%FSLAX45Y45*%
G04 Gerber Fmt 4.5, Leading zero omitted, Abs format (unit mm)*
G04 Created by KiCad (PCBNEW (5.1.6)-1) date 2021-08-27 09:05:00*
%MOMM*%
%LPD*%
G01*
G04 APERTURE LIST*
%ADD10C,0.200000*%
%ADD11C,0.300000*%
G04 APERTURE END LIST*
D10*
X9030500Y3070600D02*
X9070500Y3030600D01*
X9070500Y3070600D02*
X9030500Y3030600D01*
X9157500Y1203700D02*
X9197500Y1163700D01*
X9197500Y1203700D02*
X9157500Y1163700D01*
X12637300Y6486900D02*
X12677300Y6446900D01*
X12677300Y6486900D02*
X12637300Y6446900D01*
X12650000Y12633700D02*
X12690000Y12593700D01*
X12690000Y12633700D02*
X12650000Y12593700D01*
X12650000Y5813800D02*
X12690000Y5773800D01*
X12690000Y5813800D02*
X12650000Y5773800D01*
X12662700Y10157200D02*
X12702700Y10117200D01*
X12702700Y10157200D02*
X12662700Y10117200D01*
X12675400Y9395200D02*
X12715400Y9355200D01*
X12715400Y9395200D02*
X12675400Y9355200D01*
X14280000Y1114800D02*
X14320000Y1074800D01*
X14320000Y1114800D02*
X14280000Y1074800D01*
X20244210Y6876410D02*
X20284210Y6836410D01*
X20284210Y6876410D02*
X20244210Y6836410D01*
X20746410Y9758170D02*
X20786410Y9718170D01*
X20786410Y9758170D02*
X20746410Y9718170D01*
X21240900Y12320370D02*
X21280900Y12280370D01*
X21280900Y12320370D02*
X21240900Y12280370D01*
X21346960Y11577060D02*
X21386960Y11537060D01*
X21386960Y11577060D02*
X21346960Y11537060D01*
X21441320Y10265260D02*
X21481320Y10225260D01*
X21481320Y10265260D02*
X21441320Y10225260D01*
X6548200Y10188000D02*
G75*
G03*
X6548200Y10188000I-25000J0D01*
G01*
X6563200Y10203000D02*
X6483200Y10203000D01*
X6563200Y10173000D02*
X6483200Y10173000D01*
X6483200Y10203000D02*
G75*
G03*
X6483200Y10173000I0J-15000D01*
G01*
X6563200Y10173000D02*
G75*
G03*
X6563200Y10203000I0J15000D01*
G01*
X6548200Y9426000D02*
G75*
G03*
X6548200Y9426000I-25000J0D01*
G01*
X6563200Y9441000D02*
X6483200Y9441000D01*
X6563200Y9411000D02*
X6483200Y9411000D01*
X6483200Y9441000D02*
G75*
G03*
X6483200Y9411000I0J-15000D01*
G01*
X6563200Y9411000D02*
G75*
G03*
X6563200Y9441000I0J15000D01*
G01*
X7056200Y10188000D02*
G75*
G03*
X7056200Y10188000I-25000J0D01*
G01*
X7071200Y10203000D02*
X6991200Y10203000D01*
X7071200Y10173000D02*
X6991200Y10173000D01*
X6991200Y10203000D02*
G75*
G03*
X6991200Y10173000I0J-15000D01*
G01*
X7071200Y10173000D02*
G75*
G03*
X7071200Y10203000I0J15000D01*
G01*
X7056200Y9426000D02*
G75*
G03*
X7056200Y9426000I-25000J0D01*
G01*
X7071200Y9441000D02*
X6991200Y9441000D01*
X7071200Y9411000D02*
X6991200Y9411000D01*
X6991200Y9441000D02*
G75*
G03*
X6991200Y9411000I0J-15000D01*
G01*
X7071200Y9411000D02*
G75*
G03*
X7071200Y9441000I0J15000D01*
G01*
X7564200Y10188000D02*
G75*
G03*
X7564200Y10188000I-25000J0D01*
G01*
X7579200Y10203000D02*
X7499200Y10203000D01*
X7579200Y10173000D02*
X7499200Y10173000D01*
X7499200Y10203000D02*
G75*
G03*
X7499200Y10173000I0J-15000D01*
G01*
X7579200Y10173000D02*
G75*
G03*
X7579200Y10203000I0J15000D01*
G01*
X7564200Y9426000D02*
G75*
G03*
X7564200Y9426000I-25000J0D01*
G01*
X7579200Y9441000D02*
X7499200Y9441000D01*
X7579200Y9411000D02*
X7499200Y9411000D01*
X7499200Y9441000D02*
G75*
G03*
X7499200Y9411000I0J-15000D01*
G01*
X7579200Y9411000D02*
G75*
G03*
X7579200Y9441000I0J15000D01*
G01*
X8072200Y10188000D02*
G75*
G03*
X8072200Y10188000I-25000J0D01*
G01*
X8087200Y10203000D02*
X8007200Y10203000D01*
X8087200Y10173000D02*
X8007200Y10173000D01*
X8007200Y10203000D02*
G75*
G03*
X8007200Y10173000I0J-15000D01*
G01*
X8087200Y10173000D02*
G75*
G03*
X8087200Y10203000I0J15000D01*
G01*
X8072200Y9426000D02*
G75*
G03*
X8072200Y9426000I-25000J0D01*
G01*
X8087200Y9441000D02*
X8007200Y9441000D01*
X8087200Y9411000D02*
X8007200Y9411000D01*
X8007200Y9441000D02*
G75*
G03*
X8007200Y9411000I0J-15000D01*
G01*
X8087200Y9411000D02*
G75*
G03*
X8087200Y9441000I0J15000D01*
G01*
X8580200Y10188000D02*
G75*
G03*
X8580200Y10188000I-25000J0D01*
G01*
X8595200Y10203000D02*
X8515200Y10203000D01*
X8595200Y10173000D02*
X8515200Y10173000D01*
X8515200Y10203000D02*
G75*
G03*
X8515200Y10173000I0J-15000D01*
G01*
X8595200Y10173000D02*
G75*
G03*
X8595200Y10203000I0J15000D01*
G01*
X8580200Y9426000D02*
G75*
G03*
X8580200Y9426000I-25000J0D01*
G01*
X8595200Y9441000D02*
X8515200Y9441000D01*
X8595200Y9411000D02*
X8515200Y9411000D01*
X8515200Y9441000D02*
G75*
G03*
X8515200Y9411000I0J-15000D01*
G01*
X8595200Y9411000D02*
G75*
G03*
X8595200Y9441000I0J15000D01*
G01*
X9088200Y10188000D02*
G75*
G03*
X9088200Y10188000I-25000J0D01*
G01*
X9103200Y10203000D02*
X9023200Y10203000D01*
X9103200Y10173000D02*
X9023200Y10173000D01*
X9023200Y10203000D02*
G75*
G03*
X9023200Y10173000I0J-15000D01*
G01*
X9103200Y10173000D02*
G75*
G03*
X9103200Y10203000I0J15000D01*
G01*
X9088200Y9426000D02*
G75*
G03*
X9088200Y9426000I-25000J0D01*
G01*
X9103200Y9441000D02*
X9023200Y9441000D01*
X9103200Y9411000D02*
X9023200Y9411000D01*
X9023200Y9441000D02*
G75*
G03*
X9023200Y9411000I0J-15000D01*
G01*
X9103200Y9411000D02*
G75*
G03*
X9103200Y9441000I0J15000D01*
G01*
X13148700Y14469580D02*
G75*
G03*
X13148700Y14469580I-25000J0D01*
G01*
X13149700Y14069580D02*
G75*
G03*
X13149700Y14069580I-25000J0D01*
G01*
X14215500Y14469580D02*
G75*
G03*
X14215500Y14469580I-25000J0D01*
G01*
X14216500Y14069580D02*
G75*
G03*
X14216500Y14069580I-25000J0D01*
G01*
X13176600Y10969000D02*
G75*
G03*
X13176600Y10969000I-25000J0D01*
G01*
X13177600Y10569000D02*
G75*
G03*
X13177600Y10569000I-25000J0D01*
G01*
X13684600Y7413000D02*
G75*
G03*
X13684600Y7413000I-25000J0D01*
G01*
X13685600Y7013000D02*
G75*
G03*
X13685600Y7013000I-25000J0D01*
G01*
X14264700Y12502120D02*
G75*
G03*
X14264700Y12502120I-25000J0D01*
G01*
X14265700Y12102120D02*
G75*
G03*
X14265700Y12102120I-25000J0D01*
G01*
X13177600Y9019600D02*
G75*
G03*
X13177600Y9019600I-25000J0D01*
G01*
X13178600Y8619600D02*
G75*
G03*
X13178600Y8619600I-25000J0D01*
G01*
X13151200Y7413000D02*
G75*
G03*
X13151200Y7413000I-25000J0D01*
G01*
X13152200Y7013000D02*
G75*
G03*
X13152200Y7013000I-25000J0D01*
G01*
X12955400Y3862400D02*
G75*
G03*
X12955400Y3862400I-25000J0D01*
G01*
X13355400Y3863400D02*
G75*
G03*
X13355400Y3863400I-25000J0D01*
G01*
X13682100Y14469580D02*
G75*
G03*
X13682100Y14469580I-25000J0D01*
G01*
X13683100Y14069580D02*
G75*
G03*
X13683100Y14069580I-25000J0D01*
G01*
X13685600Y5412800D02*
G75*
G03*
X13685600Y5412800I-25000J0D01*
G01*
X13686600Y5012800D02*
G75*
G03*
X13686600Y5012800I-25000J0D01*
G01*
X13731300Y12502120D02*
G75*
G03*
X13731300Y12502120I-25000J0D01*
G01*
X13732300Y12102120D02*
G75*
G03*
X13732300Y12102120I-25000J0D01*
G01*
X5786200Y2923600D02*
G75*
G03*
X5786200Y2923600I-25000J0D01*
G01*
X5801200Y2938600D02*
X5721200Y2938600D01*
X5801200Y2908600D02*
X5721200Y2908600D01*
X5721200Y2938600D02*
G75*
G03*
X5721200Y2908600I0J-15000D01*
G01*
X5801200Y2908600D02*
G75*
G03*
X5801200Y2938600I0J15000D01*
G01*
X5786200Y2161600D02*
G75*
G03*
X5786200Y2161600I-25000J0D01*
G01*
X5801200Y2176600D02*
X5721200Y2176600D01*
X5801200Y2146600D02*
X5721200Y2146600D01*
X5721200Y2176600D02*
G75*
G03*
X5721200Y2146600I0J-15000D01*
G01*
X5801200Y2146600D02*
G75*
G03*
X5801200Y2176600I0J15000D01*
G01*
X6294200Y2923600D02*
G75*
G03*
X6294200Y2923600I-25000J0D01*
G01*
X6309200Y2938600D02*
X6229200Y2938600D01*
X6309200Y2908600D02*
X6229200Y2908600D01*
X6229200Y2938600D02*
G75*
G03*
X6229200Y2908600I0J-15000D01*
G01*
X6309200Y2908600D02*
G75*
G03*
X6309200Y2938600I0J15000D01*
G01*
X6294200Y2161600D02*
G75*
G03*
X6294200Y2161600I-25000J0D01*
G01*
X6309200Y2176600D02*
X6229200Y2176600D01*
X6309200Y2146600D02*
X6229200Y2146600D01*
X6229200Y2176600D02*
G75*
G03*
X6229200Y2146600I0J-15000D01*
G01*
X6309200Y2146600D02*
G75*
G03*
X6309200Y2176600I0J15000D01*
G01*
X6802200Y2923600D02*
G75*
G03*
X6802200Y2923600I-25000J0D01*
G01*
X6817200Y2938600D02*
X6737200Y2938600D01*
X6817200Y2908600D02*
X6737200Y2908600D01*
X6737200Y2938600D02*
G75*
G03*
X6737200Y2908600I0J-15000D01*
G01*
X6817200Y2908600D02*
G75*
G03*
X6817200Y2938600I0J15000D01*
G01*
X6802200Y2161600D02*
G75*
G03*
X6802200Y2161600I-25000J0D01*
G01*
X6817200Y2176600D02*
X6737200Y2176600D01*
X6817200Y2146600D02*
X6737200Y2146600D01*
X6737200Y2176600D02*
G75*
G03*
X6737200Y2146600I0J-15000D01*
G01*
X6817200Y2146600D02*
G75*
G03*
X6817200Y2176600I0J15000D01*
G01*
X7310200Y2923600D02*
G75*
G03*
X7310200Y2923600I-25000J0D01*
G01*
X7325200Y2938600D02*
X7245200Y2938600D01*
X7325200Y2908600D02*
X7245200Y2908600D01*
X7245200Y2938600D02*
G75*
G03*
X7245200Y2908600I0J-15000D01*
G01*
X7325200Y2908600D02*
G75*
G03*
X7325200Y2938600I0J15000D01*
G01*
X7310200Y2161600D02*
G75*
G03*
X7310200Y2161600I-25000J0D01*
G01*
X7325200Y2176600D02*
X7245200Y2176600D01*
X7325200Y2146600D02*
X7245200Y2146600D01*
X7245200Y2176600D02*
G75*
G03*
X7245200Y2146600I0J-15000D01*
G01*
X7325200Y2146600D02*
G75*
G03*
X7325200Y2176600I0J15000D01*
G01*
X7818200Y2923600D02*
G75*
G03*
X7818200Y2923600I-25000J0D01*
G01*
X7833200Y2938600D02*
X7753200Y2938600D01*
X7833200Y2908600D02*
X7753200Y2908600D01*
X7753200Y2938600D02*
G75*
G03*
X7753200Y2908600I0J-15000D01*
G01*
X7833200Y2908600D02*
G75*
G03*
X7833200Y2938600I0J15000D01*
G01*
X7818200Y2161600D02*
G75*
G03*
X7818200Y2161600I-25000J0D01*
G01*
X7833200Y2176600D02*
X7753200Y2176600D01*
X7833200Y2146600D02*
X7753200Y2146600D01*
X7753200Y2176600D02*
G75*
G03*
X7753200Y2146600I0J-15000D01*
G01*
X7833200Y2146600D02*
G75*
G03*
X7833200Y2176600I0J15000D01*
G01*
X8326200Y2923600D02*
G75*
G03*
X8326200Y2923600I-25000J0D01*
G01*
X8341200Y2938600D02*
X8261200Y2938600D01*
X8341200Y2908600D02*
X8261200Y2908600D01*
X8261200Y2938600D02*
G75*
G03*
X8261200Y2908600I0J-15000D01*
G01*
X8341200Y2908600D02*
G75*
G03*
X8341200Y2938600I0J15000D01*
G01*
X8326200Y2161600D02*
G75*
G03*
X8326200Y2161600I-25000J0D01*
G01*
X8341200Y2176600D02*
X8261200Y2176600D01*
X8341200Y2146600D02*
X8261200Y2146600D01*
X8261200Y2176600D02*
G75*
G03*
X8261200Y2146600I0J-15000D01*
G01*
X8341200Y2146600D02*
G75*
G03*
X8341200Y2176600I0J15000D01*
G01*
X13152200Y5412800D02*
G75*
G03*
X13152200Y5412800I-25000J0D01*
G01*
X13153200Y5012800D02*
G75*
G03*
X13153200Y5012800I-25000J0D01*
G01*
X13710000Y10969000D02*
G75*
G03*
X13710000Y10969000I-25000J0D01*
G01*
X13711000Y10569000D02*
G75*
G03*
X13711000Y10569000I-25000J0D01*
G01*
X14218000Y7413000D02*
G75*
G03*
X14218000Y7413000I-25000J0D01*
G01*
X14219000Y7013000D02*
G75*
G03*
X14219000Y7013000I-25000J0D01*
G01*
X14243400Y10969000D02*
G75*
G03*
X14243400Y10969000I-25000J0D01*
G01*
X14244400Y10569000D02*
G75*
G03*
X14244400Y10569000I-25000J0D01*
G01*
X13197900Y12502120D02*
G75*
G03*
X13197900Y12502120I-25000J0D01*
G01*
X13198900Y12102120D02*
G75*
G03*
X13198900Y12102120I-25000J0D01*
G01*
X6522800Y6581200D02*
G75*
G03*
X6522800Y6581200I-25000J0D01*
G01*
X6537800Y6596200D02*
X6457800Y6596200D01*
X6537800Y6566200D02*
X6457800Y6566200D01*
X6457800Y6596200D02*
G75*
G03*
X6457800Y6566200I0J-15000D01*
G01*
X6537800Y6566200D02*
G75*
G03*
X6537800Y6596200I0J15000D01*
G01*
X6522800Y5819200D02*
G75*
G03*
X6522800Y5819200I-25000J0D01*
G01*
X6537800Y5834200D02*
X6457800Y5834200D01*
X6537800Y5804200D02*
X6457800Y5804200D01*
X6457800Y5834200D02*
G75*
G03*
X6457800Y5804200I0J-15000D01*
G01*
X6537800Y5804200D02*
G75*
G03*
X6537800Y5834200I0J15000D01*
G01*
X7030800Y6581200D02*
G75*
G03*
X7030800Y6581200I-25000J0D01*
G01*
X7045800Y6596200D02*
X6965800Y6596200D01*
X7045800Y6566200D02*
X6965800Y6566200D01*
X6965800Y6596200D02*
G75*
G03*
X6965800Y6566200I0J-15000D01*
G01*
X7045800Y6566200D02*
G75*
G03*
X7045800Y6596200I0J15000D01*
G01*
X7030800Y5819200D02*
G75*
G03*
X7030800Y5819200I-25000J0D01*
G01*
X7045800Y5834200D02*
X6965800Y5834200D01*
X7045800Y5804200D02*
X6965800Y5804200D01*
X6965800Y5834200D02*
G75*
G03*
X6965800Y5804200I0J-15000D01*
G01*
X7045800Y5804200D02*
G75*
G03*
X7045800Y5834200I0J15000D01*
G01*
X7538800Y6581200D02*
G75*
G03*
X7538800Y6581200I-25000J0D01*
G01*
X7553800Y6596200D02*
X7473800Y6596200D01*
X7553800Y6566200D02*
X7473800Y6566200D01*
X7473800Y6596200D02*
G75*
G03*
X7473800Y6566200I0J-15000D01*
G01*
X7553800Y6566200D02*
G75*
G03*
X7553800Y6596200I0J15000D01*
G01*
X7538800Y5819200D02*
G75*
G03*
X7538800Y5819200I-25000J0D01*
G01*
X7553800Y5834200D02*
X7473800Y5834200D01*
X7553800Y5804200D02*
X7473800Y5804200D01*
X7473800Y5834200D02*
G75*
G03*
X7473800Y5804200I0J-15000D01*
G01*
X7553800Y5804200D02*
G75*
G03*
X7553800Y5834200I0J15000D01*
G01*
X8046800Y6581200D02*
G75*
G03*
X8046800Y6581200I-25000J0D01*
G01*
X8061800Y6596200D02*
X7981800Y6596200D01*
X8061800Y6566200D02*
X7981800Y6566200D01*
X7981800Y6596200D02*
G75*
G03*
X7981800Y6566200I0J-15000D01*
G01*
X8061800Y6566200D02*
G75*
G03*
X8061800Y6596200I0J15000D01*
G01*
X8046800Y5819200D02*
G75*
G03*
X8046800Y5819200I-25000J0D01*
G01*
X8061800Y5834200D02*
X7981800Y5834200D01*
X8061800Y5804200D02*
X7981800Y5804200D01*
X7981800Y5834200D02*
G75*
G03*
X7981800Y5804200I0J-15000D01*
G01*
X8061800Y5804200D02*
G75*
G03*
X8061800Y5834200I0J15000D01*
G01*
X8554800Y6581200D02*
G75*
G03*
X8554800Y6581200I-25000J0D01*
G01*
X8569800Y6596200D02*
X8489800Y6596200D01*
X8569800Y6566200D02*
X8489800Y6566200D01*
X8489800Y6596200D02*
G75*
G03*
X8489800Y6566200I0J-15000D01*
G01*
X8569800Y6566200D02*
G75*
G03*
X8569800Y6596200I0J15000D01*
G01*
X8554800Y5819200D02*
G75*
G03*
X8554800Y5819200I-25000J0D01*
G01*
X8569800Y5834200D02*
X8489800Y5834200D01*
X8569800Y5804200D02*
X8489800Y5804200D01*
X8489800Y5834200D02*
G75*
G03*
X8489800Y5804200I0J-15000D01*
G01*
X8569800Y5804200D02*
G75*
G03*
X8569800Y5834200I0J15000D01*
G01*
X9062800Y6581200D02*
G75*
G03*
X9062800Y6581200I-25000J0D01*
G01*
X9077800Y6596200D02*
X8997800Y6596200D01*
X9077800Y6566200D02*
X8997800Y6566200D01*
X8997800Y6596200D02*
G75*
G03*
X8997800Y6566200I0J-15000D01*
G01*
X9077800Y6566200D02*
G75*
G03*
X9077800Y6596200I0J15000D01*
G01*
X9062800Y5819200D02*
G75*
G03*
X9062800Y5819200I-25000J0D01*
G01*
X9077800Y5834200D02*
X8997800Y5834200D01*
X9077800Y5804200D02*
X8997800Y5804200D01*
X8997800Y5834200D02*
G75*
G03*
X8997800Y5804200I0J-15000D01*
G01*
X9077800Y5804200D02*
G75*
G03*
X9077800Y5834200I0J15000D01*
G01*
X6573600Y13648600D02*
G75*
G03*
X6573600Y13648600I-25000J0D01*
G01*
X6588600Y13663600D02*
X6508600Y13663600D01*
X6588600Y13633600D02*
X6508600Y13633600D01*
X6508600Y13663600D02*
G75*
G03*
X6508600Y13633600I0J-15000D01*
G01*
X6588600Y13633600D02*
G75*
G03*
X6588600Y13663600I0J15000D01*
G01*
X6573600Y12886600D02*
G75*
G03*
X6573600Y12886600I-25000J0D01*
G01*
X6588600Y12901600D02*
X6508600Y12901600D01*
X6588600Y12871600D02*
X6508600Y12871600D01*
X6508600Y12901600D02*
G75*
G03*
X6508600Y12871600I0J-15000D01*
G01*
X6588600Y12871600D02*
G75*
G03*
X6588600Y12901600I0J15000D01*
G01*
X7081600Y13648600D02*
G75*
G03*
X7081600Y13648600I-25000J0D01*
G01*
X7096600Y13663600D02*
X7016600Y13663600D01*
X7096600Y13633600D02*
X7016600Y13633600D01*
X7016600Y13663600D02*
G75*
G03*
X7016600Y13633600I0J-15000D01*
G01*
X7096600Y13633600D02*
G75*
G03*
X7096600Y13663600I0J15000D01*
G01*
X7081600Y12886600D02*
G75*
G03*
X7081600Y12886600I-25000J0D01*
G01*
X7096600Y12901600D02*
X7016600Y12901600D01*
X7096600Y12871600D02*
X7016600Y12871600D01*
X7016600Y12901600D02*
G75*
G03*
X7016600Y12871600I0J-15000D01*
G01*
X7096600Y12871600D02*
G75*
G03*
X7096600Y12901600I0J15000D01*
G01*
X7589600Y13648600D02*
G75*
G03*
X7589600Y13648600I-25000J0D01*
G01*
X7604600Y13663600D02*
X7524600Y13663600D01*
X7604600Y13633600D02*
X7524600Y13633600D01*
X7524600Y13663600D02*
G75*
G03*
X7524600Y13633600I0J-15000D01*
G01*
X7604600Y13633600D02*
G75*
G03*
X7604600Y13663600I0J15000D01*
G01*
X7589600Y12886600D02*
G75*
G03*
X7589600Y12886600I-25000J0D01*
G01*
X7604600Y12901600D02*
X7524600Y12901600D01*
X7604600Y12871600D02*
X7524600Y12871600D01*
X7524600Y12901600D02*
G75*
G03*
X7524600Y12871600I0J-15000D01*
G01*
X7604600Y12871600D02*
G75*
G03*
X7604600Y12901600I0J15000D01*
G01*
X8097600Y13648600D02*
G75*
G03*
X8097600Y13648600I-25000J0D01*
G01*
X8112600Y13663600D02*
X8032600Y13663600D01*
X8112600Y13633600D02*
X8032600Y13633600D01*
X8032600Y13663600D02*
G75*
G03*
X8032600Y13633600I0J-15000D01*
G01*
X8112600Y13633600D02*
G75*
G03*
X8112600Y13663600I0J15000D01*
G01*
X8097600Y12886600D02*
G75*
G03*
X8097600Y12886600I-25000J0D01*
G01*
X8112600Y12901600D02*
X8032600Y12901600D01*
X8112600Y12871600D02*
X8032600Y12871600D01*
X8032600Y12901600D02*
G75*
G03*
X8032600Y12871600I0J-15000D01*
G01*
X8112600Y12871600D02*
G75*
G03*
X8112600Y12901600I0J15000D01*
G01*
X8605600Y13648600D02*
G75*
G03*
X8605600Y13648600I-25000J0D01*
G01*
X8620600Y13663600D02*
X8540600Y13663600D01*
X8620600Y13633600D02*
X8540600Y13633600D01*
X8540600Y13663600D02*
G75*
G03*
X8540600Y13633600I0J-15000D01*
G01*
X8620600Y13633600D02*
G75*
G03*
X8620600Y13663600I0J15000D01*
G01*
X8605600Y12886600D02*
G75*
G03*
X8605600Y12886600I-25000J0D01*
G01*
X8620600Y12901600D02*
X8540600Y12901600D01*
X8620600Y12871600D02*
X8540600Y12871600D01*
X8540600Y12901600D02*
G75*
G03*
X8540600Y12871600I0J-15000D01*
G01*
X8620600Y12871600D02*
G75*
G03*
X8620600Y12901600I0J15000D01*
G01*
X9113600Y13648600D02*
G75*
G03*
X9113600Y13648600I-25000J0D01*
G01*
X9128600Y13663600D02*
X9048600Y13663600D01*
X9128600Y13633600D02*
X9048600Y13633600D01*
X9048600Y13663600D02*
G75*
G03*
X9048600Y13633600I0J-15000D01*
G01*
X9128600Y13633600D02*
G75*
G03*
X9128600Y13663600I0J15000D01*
G01*
X9113600Y12886600D02*
G75*
G03*
X9113600Y12886600I-25000J0D01*
G01*
X9128600Y12901600D02*
X9048600Y12901600D01*
X9128600Y12871600D02*
X9048600Y12871600D01*
X9048600Y12901600D02*
G75*
G03*
X9048600Y12871600I0J-15000D01*
G01*
X9128600Y12871600D02*
G75*
G03*
X9128600Y12901600I0J15000D01*
G01*
X14219000Y5412800D02*
G75*
G03*
X14219000Y5412800I-25000J0D01*
G01*
X14220000Y5012800D02*
G75*
G03*
X14220000Y5012800I-25000J0D01*
G01*
X13711000Y9019600D02*
G75*
G03*
X13711000Y9019600I-25000J0D01*
G01*
X13712000Y8619600D02*
G75*
G03*
X13712000Y8619600I-25000J0D01*
G01*
X14244400Y9019600D02*
G75*
G03*
X14244400Y9019600I-25000J0D01*
G01*
X14245400Y8619600D02*
G75*
G03*
X14245400Y8619600I-25000J0D01*
G01*
X14195000Y5838300D02*
X14195000Y5783300D01*
X14167500Y5810800D02*
X14222500Y5810800D01*
X13687000Y9445100D02*
X13687000Y9390100D01*
X13659500Y9417600D02*
X13714500Y9417600D01*
X14220400Y9445100D02*
X14220400Y9390100D01*
X14192900Y9417600D02*
X14247900Y9417600D01*
X13123700Y13699080D02*
X13123700Y13644080D01*
X13096200Y13671580D02*
X13151200Y13671580D01*
X14190500Y13699080D02*
X14190500Y13644080D01*
X14163000Y13671580D02*
X14218000Y13671580D01*
X13151600Y10198500D02*
X13151600Y10143500D01*
X13124100Y10171000D02*
X13179100Y10171000D01*
X13659600Y6642500D02*
X13659600Y6587500D01*
X13632100Y6615000D02*
X13687100Y6615000D01*
X14240700Y12927620D02*
X14240700Y12872620D01*
X14213200Y12900120D02*
X14268200Y12900120D01*
X13153600Y9445100D02*
X13153600Y9390100D01*
X13126100Y9417600D02*
X13181100Y9417600D01*
X13126200Y6642500D02*
X13126200Y6587500D01*
X13098700Y6615000D02*
X13153700Y6615000D01*
X13728400Y3889900D02*
X13728400Y3834900D01*
X13700900Y3862400D02*
X13755900Y3862400D01*
X13657100Y13699080D02*
X13657100Y13644080D01*
X13629600Y13671580D02*
X13684600Y13671580D01*
X13661600Y5838300D02*
X13661600Y5783300D01*
X13634100Y5810800D02*
X13689100Y5810800D01*
X13707300Y12927620D02*
X13707300Y12872620D01*
X13679800Y12900120D02*
X13734800Y12900120D01*
X13128200Y5838300D02*
X13128200Y5783300D01*
X13100700Y5810800D02*
X13155700Y5810800D01*
X13685000Y10198500D02*
X13685000Y10143500D01*
X13657500Y10171000D02*
X13712500Y10171000D01*
X14193000Y6642500D02*
X14193000Y6587500D01*
X14165500Y6615000D02*
X14220500Y6615000D01*
X14218400Y10198500D02*
X14218400Y10143500D01*
X14190900Y10171000D02*
X14245900Y10171000D01*
X13173900Y12927620D02*
X13173900Y12872620D01*
X13146400Y12900120D02*
X13201400Y12900120D01*
X10430613Y10141387D02*
X10430613Y10183813D01*
X10388187Y10183813D01*
X10388187Y10141387D01*
X10430613Y10141387D01*
X10430613Y9379387D02*
X10430613Y9421813D01*
X10388187Y9421813D01*
X10388187Y9379387D01*
X10430613Y9379387D01*
X11192613Y10141387D02*
X11192613Y10183813D01*
X11150187Y10183813D01*
X11150187Y10141387D01*
X11192613Y10141387D01*
X11192613Y9379387D02*
X11192613Y9421813D01*
X11150187Y9421813D01*
X11150187Y9379387D01*
X11192613Y9379387D01*
X11700613Y10141387D02*
X11700613Y10183813D01*
X11658187Y10183813D01*
X11658187Y10141387D01*
X11700613Y10141387D01*
X11700613Y9379387D02*
X11700613Y9421813D01*
X11658187Y9421813D01*
X11658187Y9379387D01*
X11700613Y9379387D01*
X12208613Y10141387D02*
X12208613Y10183813D01*
X12166187Y10183813D01*
X12166187Y10141387D01*
X12208613Y10141387D01*
X12208613Y9379387D02*
X12208613Y9421813D01*
X12166187Y9421813D01*
X12166187Y9379387D01*
X12208613Y9379387D01*
X18152213Y11970187D02*
X18152213Y12012613D01*
X18109787Y12012613D01*
X18109787Y11970187D01*
X18152213Y11970187D01*
X18152213Y11220187D02*
X18152213Y11262613D01*
X18109787Y11262613D01*
X18109787Y11220187D01*
X18152213Y11220187D01*
X10405213Y13627387D02*
X10405213Y13669813D01*
X10362787Y13669813D01*
X10362787Y13627387D01*
X10405213Y13627387D01*
X10405213Y12865387D02*
X10405213Y12907813D01*
X10362787Y12907813D01*
X10362787Y12865387D01*
X10405213Y12865387D01*
X11167213Y13627387D02*
X11167213Y13669813D01*
X11124787Y13669813D01*
X11124787Y13627387D01*
X11167213Y13627387D01*
X11167213Y12865387D02*
X11167213Y12907813D01*
X11124787Y12907813D01*
X11124787Y12865387D01*
X11167213Y12865387D01*
X11675213Y13627387D02*
X11675213Y13669813D01*
X11632787Y13669813D01*
X11632787Y13627387D01*
X11675213Y13627387D01*
X11675213Y12865387D02*
X11675213Y12907813D01*
X11632787Y12907813D01*
X11632787Y12865387D01*
X11675213Y12865387D01*
X12183213Y13627387D02*
X12183213Y13669813D01*
X12140787Y13669813D01*
X12140787Y13627387D01*
X12183213Y13627387D01*
X12183213Y12865387D02*
X12183213Y12907813D01*
X12140787Y12907813D01*
X12140787Y12865387D01*
X12183213Y12865387D01*
X21022413Y11995587D02*
X21022413Y12038013D01*
X20979987Y12038013D01*
X20979987Y11995587D01*
X21022413Y11995587D01*
X21022413Y11245587D02*
X21022413Y11288013D01*
X20979987Y11288013D01*
X20979987Y11245587D01*
X21022413Y11245587D01*
X9719413Y2927787D02*
X9719413Y2970213D01*
X9676987Y2970213D01*
X9676987Y2927787D01*
X9719413Y2927787D01*
X9719413Y2165787D02*
X9719413Y2208213D01*
X9676987Y2208213D01*
X9676987Y2165787D01*
X9719413Y2165787D01*
X10481413Y2927787D02*
X10481413Y2970213D01*
X10438987Y2970213D01*
X10438987Y2927787D01*
X10481413Y2927787D01*
X10481413Y2165787D02*
X10481413Y2208213D01*
X10438987Y2208213D01*
X10438987Y2165787D01*
X10481413Y2165787D01*
X10989413Y2927787D02*
X10989413Y2970213D01*
X10946987Y2970213D01*
X10946987Y2927787D01*
X10989413Y2927787D01*
X10989413Y2165787D02*
X10989413Y2208213D01*
X10946987Y2208213D01*
X10946987Y2165787D01*
X10989413Y2165787D01*
X11497413Y2927787D02*
X11497413Y2970213D01*
X11454987Y2970213D01*
X11454987Y2927787D01*
X11497413Y2927787D01*
X11497413Y2165787D02*
X11497413Y2208213D01*
X11454987Y2208213D01*
X11454987Y2165787D01*
X11497413Y2165787D01*
X16450413Y1454587D02*
X16450413Y1497013D01*
X16407987Y1497013D01*
X16407987Y1454587D01*
X16450413Y1454587D01*
X16450413Y692587D02*
X16450413Y735013D01*
X16407987Y735013D01*
X16407987Y692587D01*
X16450413Y692587D01*
X16958413Y1454587D02*
X16958413Y1497013D01*
X16915987Y1497013D01*
X16915987Y1454587D01*
X16958413Y1454587D01*
X16958413Y692587D02*
X16958413Y735013D01*
X16915987Y735013D01*
X16915987Y692587D01*
X16958413Y692587D01*
X17466413Y1454587D02*
X17466413Y1497013D01*
X17423987Y1497013D01*
X17423987Y1454587D01*
X17466413Y1454587D01*
X17466413Y692587D02*
X17466413Y735013D01*
X17423987Y735013D01*
X17423987Y692587D01*
X17466413Y692587D01*
X18228413Y1454587D02*
X18228413Y1497013D01*
X18185987Y1497013D01*
X18185987Y1454587D01*
X18228413Y1454587D01*
X18228413Y692587D02*
X18228413Y735013D01*
X18185987Y735013D01*
X18185987Y692587D01*
X18228413Y692587D01*
X12843613Y1454587D02*
X12843613Y1497013D01*
X12801187Y1497013D01*
X12801187Y1454587D01*
X12843613Y1454587D01*
X12843613Y692587D02*
X12843613Y735013D01*
X12801187Y735013D01*
X12801187Y692587D01*
X12843613Y692587D01*
X13351613Y1454587D02*
X13351613Y1497013D01*
X13309187Y1497013D01*
X13309187Y1454587D01*
X13351613Y1454587D01*
X13351613Y692587D02*
X13351613Y735013D01*
X13309187Y735013D01*
X13309187Y692587D01*
X13351613Y692587D01*
X13859613Y1454587D02*
X13859613Y1497013D01*
X13817187Y1497013D01*
X13817187Y1454587D01*
X13859613Y1454587D01*
X13859613Y692587D02*
X13859613Y735013D01*
X13817187Y735013D01*
X13817187Y692587D01*
X13859613Y692587D01*
X14621613Y1454587D02*
X14621613Y1497013D01*
X14579187Y1497013D01*
X14579187Y1454587D01*
X14621613Y1454587D01*
X14621613Y692587D02*
X14621613Y735013D01*
X14579187Y735013D01*
X14579187Y692587D01*
X14621613Y692587D01*
X10456013Y6534587D02*
X10456013Y6577013D01*
X10413587Y6577013D01*
X10413587Y6534587D01*
X10456013Y6534587D01*
X10456013Y5772587D02*
X10456013Y5815013D01*
X10413587Y5815013D01*
X10413587Y5772587D01*
X10456013Y5772587D01*
X11218013Y6534587D02*
X11218013Y6577013D01*
X11175587Y6577013D01*
X11175587Y6534587D01*
X11218013Y6534587D01*
X11218013Y5772587D02*
X11218013Y5815013D01*
X11175587Y5815013D01*
X11175587Y5772587D01*
X11218013Y5772587D01*
X11726013Y6534587D02*
X11726013Y6577013D01*
X11683587Y6577013D01*
X11683587Y6534587D01*
X11726013Y6534587D01*
X11726013Y5772587D02*
X11726013Y5815013D01*
X11683587Y5815013D01*
X11683587Y5772587D01*
X11726013Y5772587D01*
X12234013Y6534587D02*
X12234013Y6577013D01*
X12191587Y6577013D01*
X12191587Y6534587D01*
X12234013Y6534587D01*
X12234013Y5772587D02*
X12234013Y5815013D01*
X12191587Y5815013D01*
X12191587Y5772587D01*
X12234013Y5772587D01*
X14956000Y13985300D02*
X14994100Y14023400D01*
X14956000Y14061500D01*
X14917900Y14023400D01*
X14956000Y13985300D01*
X15718000Y13985300D02*
X15756100Y14023400D01*
X15718000Y14061500D01*
X15679900Y14023400D01*
X15718000Y13985300D01*
X14956000Y12461300D02*
X14994100Y12499400D01*
X14956000Y12537500D01*
X14917900Y12499400D01*
X14956000Y12461300D01*
X15718000Y12461300D02*
X15756100Y12499400D01*
X15718000Y12537500D01*
X15679900Y12499400D01*
X15718000Y12461300D01*
X14956000Y12842300D02*
X14994100Y12880400D01*
X14956000Y12918500D01*
X14917900Y12880400D01*
X14956000Y12842300D01*
X15718000Y12842300D02*
X15756100Y12880400D01*
X15718000Y12918500D01*
X15679900Y12880400D01*
X15718000Y12842300D01*
X15006800Y4587300D02*
X15044900Y4625400D01*
X15006800Y4663500D01*
X14968700Y4625400D01*
X15006800Y4587300D01*
X15768800Y4587300D02*
X15806900Y4625400D01*
X15768800Y4663500D01*
X15730700Y4625400D01*
X15768800Y4587300D01*
X14981400Y6593900D02*
X15019500Y6632000D01*
X14981400Y6670100D01*
X14943300Y6632000D01*
X14981400Y6593900D01*
X15743400Y6593900D02*
X15781500Y6632000D01*
X15743400Y6670100D01*
X15705300Y6632000D01*
X15743400Y6593900D01*
X15006800Y4993700D02*
X15044900Y5031800D01*
X15006800Y5069900D01*
X14968700Y5031800D01*
X15006800Y4993700D01*
X15768800Y4993700D02*
X15806900Y5031800D01*
X15768800Y5069900D01*
X15730700Y5031800D01*
X15768800Y4993700D01*
X18131000Y10861100D02*
X18169100Y10899200D01*
X18131000Y10937300D01*
X18092900Y10899200D01*
X18131000Y10861100D01*
X18893000Y10861100D02*
X18931100Y10899200D01*
X18893000Y10937300D01*
X18854900Y10899200D01*
X18893000Y10861100D01*
X14956000Y14366300D02*
X14994100Y14404400D01*
X14956000Y14442500D01*
X14917900Y14404400D01*
X14956000Y14366300D01*
X15718000Y14366300D02*
X15756100Y14404400D01*
X15718000Y14442500D01*
X15679900Y14404400D01*
X15718000Y14366300D01*
X14981400Y7355900D02*
X15019500Y7394000D01*
X14981400Y7432100D01*
X14943300Y7394000D01*
X14981400Y7355900D01*
X15743400Y7355900D02*
X15781500Y7394000D01*
X15743400Y7432100D01*
X15705300Y7394000D01*
X15743400Y7355900D01*
X14956000Y10175300D02*
X14994100Y10213400D01*
X14956000Y10251500D01*
X14917900Y10213400D01*
X14956000Y10175300D01*
X15718000Y10175300D02*
X15756100Y10213400D01*
X15718000Y10251500D01*
X15679900Y10213400D01*
X15718000Y10175300D01*
X14956000Y9311700D02*
X14994100Y9349800D01*
X14956000Y9387900D01*
X14917900Y9349800D01*
X14956000Y9311700D01*
X15718000Y9311700D02*
X15756100Y9349800D01*
X15718000Y9387900D01*
X15679900Y9349800D01*
X15718000Y9311700D01*
X14956000Y12080300D02*
X14994100Y12118400D01*
X14956000Y12156500D01*
X14917900Y12118400D01*
X14956000Y12080300D01*
X15718000Y12080300D02*
X15756100Y12118400D01*
X15718000Y12156500D01*
X15679900Y12118400D01*
X15718000Y12080300D01*
X14956000Y8549700D02*
X14994100Y8587800D01*
X14956000Y8625900D01*
X14917900Y8587800D01*
X14956000Y8549700D01*
X15718000Y8549700D02*
X15756100Y8587800D01*
X15718000Y8625900D01*
X15679900Y8587800D01*
X15718000Y8549700D01*
X15006800Y5374700D02*
X15044900Y5412800D01*
X15006800Y5450900D01*
X14968700Y5412800D01*
X15006800Y5374700D01*
X15768800Y5374700D02*
X15806900Y5412800D01*
X15768800Y5450900D01*
X15730700Y5412800D01*
X15768800Y5374700D01*
X14956000Y10937300D02*
X14994100Y10975400D01*
X14956000Y11013500D01*
X14917900Y10975400D01*
X14956000Y10937300D01*
X15718000Y10937300D02*
X15756100Y10975400D01*
X15718000Y11013500D01*
X15679900Y10975400D01*
X15718000Y10937300D01*
X15006800Y5755700D02*
X15044900Y5793800D01*
X15006800Y5831900D01*
X14968700Y5793800D01*
X15006800Y5755700D01*
X15768800Y5755700D02*
X15806900Y5793800D01*
X15768800Y5831900D01*
X15730700Y5793800D01*
X15768800Y5755700D01*
X14956000Y13604300D02*
X14994100Y13642400D01*
X14956000Y13680500D01*
X14917900Y13642400D01*
X14956000Y13604300D01*
X15718000Y13604300D02*
X15756100Y13642400D01*
X15718000Y13680500D01*
X15679900Y13642400D01*
X15718000Y13604300D01*
X20239200Y10861100D02*
X20277300Y10899200D01*
X20239200Y10937300D01*
X20201100Y10899200D01*
X20239200Y10861100D01*
X21001200Y10861100D02*
X21039300Y10899200D01*
X21001200Y10937300D01*
X20963100Y10899200D01*
X21001200Y10861100D01*
X16365700Y14861600D02*
X16403800Y14899700D01*
X16365700Y14937800D01*
X16327600Y14899700D01*
X16365700Y14861600D01*
X16365700Y14099600D02*
X16403800Y14137700D01*
X16365700Y14175800D01*
X16327600Y14137700D01*
X16365700Y14099600D01*
X14981400Y6974900D02*
X15019500Y7013000D01*
X14981400Y7051100D01*
X14943300Y7013000D01*
X14981400Y6974900D01*
X15743400Y6974900D02*
X15781500Y7013000D01*
X15743400Y7051100D01*
X15705300Y7013000D01*
X15743400Y6974900D01*
X14956000Y8930700D02*
X14994100Y8968800D01*
X14956000Y9006900D01*
X14917900Y8968800D01*
X14956000Y8930700D01*
X15718000Y8930700D02*
X15756100Y8968800D01*
X15718000Y9006900D01*
X15679900Y8968800D01*
X15718000Y8930700D01*
X14956000Y10556300D02*
X14994100Y10594400D01*
X14956000Y10632500D01*
X14917900Y10594400D01*
X14956000Y10556300D01*
X15718000Y10556300D02*
X15756100Y10594400D01*
X15718000Y10632500D01*
X15679900Y10594400D01*
X15718000Y10556300D01*
X20315400Y14925100D02*
X20353500Y14963200D01*
X20315400Y15001300D01*
X20277300Y14963200D01*
X20315400Y14925100D01*
X21077400Y14925100D02*
X21115500Y14963200D01*
X21077400Y15001300D01*
X21039300Y14963200D01*
X21077400Y14925100D01*
X17446000Y4069900D02*
X17484100Y4108000D01*
X17446000Y4146100D01*
X17407900Y4108000D01*
X17446000Y4069900D01*
X17446000Y3307900D02*
X17484100Y3346000D01*
X17446000Y3384100D01*
X17407900Y3346000D01*
X17446000Y3307900D01*
X18723500Y6318900D02*
X18808500Y6233900D01*
X18808500Y6318900D02*
X18723500Y6233900D01*
X18808500Y6276400D02*
G75*
G03*
X18808500Y6276400I-42500J0D01*
G01*
X18723500Y6064900D02*
X18808500Y5979900D01*
X18808500Y6064900D02*
X18723500Y5979900D01*
X18808500Y6022400D02*
G75*
G03*
X18808500Y6022400I-42500J0D01*
G01*
X18723500Y5810900D02*
X18808500Y5725900D01*
X18808500Y5810900D02*
X18723500Y5725900D01*
X18808500Y5768400D02*
G75*
G03*
X18808500Y5768400I-42500J0D01*
G01*
X18723500Y5556900D02*
X18808500Y5471900D01*
X18808500Y5556900D02*
X18723500Y5471900D01*
X18808500Y5514400D02*
G75*
G03*
X18808500Y5514400I-42500J0D01*
G01*
X18723500Y5302900D02*
X18808500Y5217900D01*
X18808500Y5302900D02*
X18723500Y5217900D01*
X18808500Y5260400D02*
G75*
G03*
X18808500Y5260400I-42500J0D01*
G01*
X18723500Y5048900D02*
X18808500Y4963900D01*
X18808500Y5048900D02*
X18723500Y4963900D01*
X18808500Y5006400D02*
G75*
G03*
X18808500Y5006400I-42500J0D01*
G01*
X18723500Y4794900D02*
X18808500Y4709900D01*
X18808500Y4794900D02*
X18723500Y4709900D01*
X18808500Y4752400D02*
G75*
G03*
X18808500Y4752400I-42500J0D01*
G01*
X18723500Y4540900D02*
X18808500Y4455900D01*
X18808500Y4540900D02*
X18723500Y4455900D01*
X18808500Y4498400D02*
G75*
G03*
X18808500Y4498400I-42500J0D01*
G01*
X18723500Y4286900D02*
X18808500Y4201900D01*
X18808500Y4286900D02*
X18723500Y4201900D01*
X18808500Y4244400D02*
G75*
G03*
X18808500Y4244400I-42500J0D01*
G01*
X18723500Y4032900D02*
X18808500Y3947900D01*
X18808500Y4032900D02*
X18723500Y3947900D01*
X18808500Y3990400D02*
G75*
G03*
X18808500Y3990400I-42500J0D01*
G01*
X18723500Y3778900D02*
X18808500Y3693900D01*
X18808500Y3778900D02*
X18723500Y3693900D01*
X18808500Y3736400D02*
G75*
G03*
X18808500Y3736400I-42500J0D01*
G01*
X18723500Y3524900D02*
X18808500Y3439900D01*
X18808500Y3524900D02*
X18723500Y3439900D01*
X18808500Y3482400D02*
G75*
G03*
X18808500Y3482400I-42500J0D01*
G01*
X18723500Y3270900D02*
X18808500Y3185900D01*
X18808500Y3270900D02*
X18723500Y3185900D01*
X18808500Y3228400D02*
G75*
G03*
X18808500Y3228400I-42500J0D01*
G01*
X18723500Y3016900D02*
X18808500Y2931900D01*
X18808500Y3016900D02*
X18723500Y2931900D01*
X18808500Y2974400D02*
G75*
G03*
X18808500Y2974400I-42500J0D01*
G01*
X18723500Y2762900D02*
X18808500Y2677900D01*
X18808500Y2762900D02*
X18723500Y2677900D01*
X18808500Y2720400D02*
G75*
G03*
X18808500Y2720400I-42500J0D01*
G01*
X20247500Y6318900D02*
X20332500Y6233900D01*
X20332500Y6318900D02*
X20247500Y6233900D01*
X20332500Y6276400D02*
G75*
G03*
X20332500Y6276400I-42500J0D01*
G01*
X20247500Y6064900D02*
X20332500Y5979900D01*
X20332500Y6064900D02*
X20247500Y5979900D01*
X20332500Y6022400D02*
G75*
G03*
X20332500Y6022400I-42500J0D01*
G01*
X20247500Y5810900D02*
X20332500Y5725900D01*
X20332500Y5810900D02*
X20247500Y5725900D01*
X20332500Y5768400D02*
G75*
G03*
X20332500Y5768400I-42500J0D01*
G01*
X20247500Y5556900D02*
X20332500Y5471900D01*
X20332500Y5556900D02*
X20247500Y5471900D01*
X20332500Y5514400D02*
G75*
G03*
X20332500Y5514400I-42500J0D01*
G01*
X20247500Y5302900D02*
X20332500Y5217900D01*
X20332500Y5302900D02*
X20247500Y5217900D01*
X20332500Y5260400D02*
G75*
G03*
X20332500Y5260400I-42500J0D01*
G01*
X20247500Y5048900D02*
X20332500Y4963900D01*
X20332500Y5048900D02*
X20247500Y4963900D01*
X20332500Y5006400D02*
G75*
G03*
X20332500Y5006400I-42500J0D01*
G01*
X20247500Y4794900D02*
X20332500Y4709900D01*
X20332500Y4794900D02*
X20247500Y4709900D01*
X20332500Y4752400D02*
G75*
G03*
X20332500Y4752400I-42500J0D01*
G01*
X20247500Y4540900D02*
X20332500Y4455900D01*
X20332500Y4540900D02*
X20247500Y4455900D01*
X20332500Y4498400D02*
G75*
G03*
X20332500Y4498400I-42500J0D01*
G01*
X20247500Y4286900D02*
X20332500Y4201900D01*
X20332500Y4286900D02*
X20247500Y4201900D01*
X20332500Y4244400D02*
G75*
G03*
X20332500Y4244400I-42500J0D01*
G01*
X20247500Y4032900D02*
X20332500Y3947900D01*
X20332500Y4032900D02*
X20247500Y3947900D01*
X20332500Y3990400D02*
G75*
G03*
X20332500Y3990400I-42500J0D01*
G01*
X20247500Y3778900D02*
X20332500Y3693900D01*
X20332500Y3778900D02*
X20247500Y3693900D01*
X20332500Y3736400D02*
G75*
G03*
X20332500Y3736400I-42500J0D01*
G01*
X20247500Y3524900D02*
X20332500Y3439900D01*
X20332500Y3524900D02*
X20247500Y3439900D01*
X20332500Y3482400D02*
G75*
G03*
X20332500Y3482400I-42500J0D01*
G01*
X20247500Y3270900D02*
X20332500Y3185900D01*
X20332500Y3270900D02*
X20247500Y3185900D01*
X20332500Y3228400D02*
G75*
G03*
X20332500Y3228400I-42500J0D01*
G01*
X20247500Y3016900D02*
X20332500Y2931900D01*
X20332500Y3016900D02*
X20247500Y2931900D01*
X20332500Y2974400D02*
G75*
G03*
X20332500Y2974400I-42500J0D01*
G01*
X20247500Y2762900D02*
X20332500Y2677900D01*
X20332500Y2762900D02*
X20247500Y2677900D01*
X20332500Y2720400D02*
G75*
G03*
X20332500Y2720400I-42500J0D01*
G01*
X22449800Y3176800D02*
X22549800Y3076800D01*
X22549800Y3176800D02*
X22449800Y3076800D01*
X22499800Y3176800D02*
X22499800Y3076800D01*
X22449800Y3126800D02*
X22549800Y3126800D01*
X22449800Y2922800D02*
X22549800Y2822800D01*
X22549800Y2922800D02*
X22449800Y2822800D01*
X22499800Y2922800D02*
X22499800Y2822800D01*
X22449800Y2872800D02*
X22549800Y2872800D01*
X22449800Y2668800D02*
X22549800Y2568800D01*
X22549800Y2668800D02*
X22449800Y2568800D01*
X22499800Y2668800D02*
X22499800Y2568800D01*
X22449800Y2618800D02*
X22549800Y2618800D01*
X22449800Y2414800D02*
X22549800Y2314800D01*
X22549800Y2414800D02*
X22449800Y2314800D01*
X22499800Y2414800D02*
X22499800Y2314800D01*
X22449800Y2364800D02*
X22549800Y2364800D01*
X16887200Y9984000D02*
X16987200Y9884000D01*
X16987200Y9984000D02*
X16887200Y9884000D01*
X16937200Y9984000D02*
X16937200Y9884000D01*
X16887200Y9934000D02*
X16987200Y9934000D01*
X17141200Y9984000D02*
X17241200Y9884000D01*
X17241200Y9984000D02*
X17141200Y9884000D01*
X17191200Y9984000D02*
X17191200Y9884000D01*
X17141200Y9934000D02*
X17241200Y9934000D01*
X17395200Y9984000D02*
X17495200Y9884000D01*
X17495200Y9984000D02*
X17395200Y9884000D01*
X17445200Y9984000D02*
X17445200Y9884000D01*
X17395200Y9934000D02*
X17495200Y9934000D01*
X17649200Y9984000D02*
X17749200Y9884000D01*
X17749200Y9984000D02*
X17649200Y9884000D01*
X17699200Y9984000D02*
X17699200Y9884000D01*
X17649200Y9934000D02*
X17749200Y9934000D01*
X17903200Y9984000D02*
X18003200Y9884000D01*
X18003200Y9984000D02*
X17903200Y9884000D01*
X17953200Y9984000D02*
X17953200Y9884000D01*
X17903200Y9934000D02*
X18003200Y9934000D01*
X17903200Y8460000D02*
X18003200Y8360000D01*
X18003200Y8460000D02*
X17903200Y8360000D01*
X17953200Y8460000D02*
X17953200Y8360000D01*
X17903200Y8410000D02*
X18003200Y8410000D01*
X18157200Y9984000D02*
X18257200Y9884000D01*
X18257200Y9984000D02*
X18157200Y9884000D01*
X18207200Y9984000D02*
X18207200Y9884000D01*
X18157200Y9934000D02*
X18257200Y9934000D01*
X18157200Y8460000D02*
X18257200Y8360000D01*
X18257200Y8460000D02*
X18157200Y8360000D01*
X18207200Y8460000D02*
X18207200Y8360000D01*
X18157200Y8410000D02*
X18257200Y8410000D01*
X18411200Y9984000D02*
X18511200Y9884000D01*
X18511200Y9984000D02*
X18411200Y9884000D01*
X18461200Y9984000D02*
X18461200Y9884000D01*
X18411200Y9934000D02*
X18511200Y9934000D01*
X18411200Y8460000D02*
X18511200Y8360000D01*
X18511200Y8460000D02*
X18411200Y8360000D01*
X18461200Y8460000D02*
X18461200Y8360000D01*
X18411200Y8410000D02*
X18511200Y8410000D01*
X18665200Y9984000D02*
X18765200Y9884000D01*
X18765200Y9984000D02*
X18665200Y9884000D01*
X18715200Y9984000D02*
X18715200Y9884000D01*
X18665200Y9934000D02*
X18765200Y9934000D01*
X18665200Y8460000D02*
X18765200Y8360000D01*
X18765200Y8460000D02*
X18665200Y8360000D01*
X18715200Y8460000D02*
X18715200Y8360000D01*
X18665200Y8410000D02*
X18765200Y8410000D01*
X18919200Y9984000D02*
X19019200Y9884000D01*
X19019200Y9984000D02*
X18919200Y9884000D01*
X18969200Y9984000D02*
X18969200Y9884000D01*
X18919200Y9934000D02*
X19019200Y9934000D01*
X18919200Y8460000D02*
X19019200Y8360000D01*
X19019200Y8460000D02*
X18919200Y8360000D01*
X18969200Y8460000D02*
X18969200Y8360000D01*
X18919200Y8410000D02*
X19019200Y8410000D01*
X19173200Y9984000D02*
X19273200Y9884000D01*
X19273200Y9984000D02*
X19173200Y9884000D01*
X19223200Y9984000D02*
X19223200Y9884000D01*
X19173200Y9934000D02*
X19273200Y9934000D01*
X19173200Y8460000D02*
X19273200Y8360000D01*
X19273200Y8460000D02*
X19173200Y8360000D01*
X19223200Y8460000D02*
X19223200Y8360000D01*
X19173200Y8410000D02*
X19273200Y8410000D01*
X19427200Y9984000D02*
X19527200Y9884000D01*
X19527200Y9984000D02*
X19427200Y9884000D01*
X19477200Y9984000D02*
X19477200Y9884000D01*
X19427200Y9934000D02*
X19527200Y9934000D01*
X19427200Y8460000D02*
X19527200Y8360000D01*
X19527200Y8460000D02*
X19427200Y8360000D01*
X19477200Y8460000D02*
X19477200Y8360000D01*
X19427200Y8410000D02*
X19527200Y8410000D01*
X19681200Y9984000D02*
X19781200Y9884000D01*
X19781200Y9984000D02*
X19681200Y9884000D01*
X19731200Y9984000D02*
X19731200Y9884000D01*
X19681200Y9934000D02*
X19781200Y9934000D01*
X19681200Y8460000D02*
X19781200Y8360000D01*
X19781200Y8460000D02*
X19681200Y8360000D01*
X19731200Y8460000D02*
X19731200Y8360000D01*
X19681200Y8410000D02*
X19781200Y8410000D01*
X19935200Y9984000D02*
X20035200Y9884000D01*
X20035200Y9984000D02*
X19935200Y9884000D01*
X19985200Y9984000D02*
X19985200Y9884000D01*
X19935200Y9934000D02*
X20035200Y9934000D01*
X20189200Y9984000D02*
X20289200Y9884000D01*
X20289200Y9984000D02*
X20189200Y9884000D01*
X20239200Y9984000D02*
X20239200Y9884000D01*
X20189200Y9934000D02*
X20289200Y9934000D01*
X20443200Y9984000D02*
X20543200Y9884000D01*
X20543200Y9984000D02*
X20443200Y9884000D01*
X20493200Y9984000D02*
X20493200Y9884000D01*
X20443200Y9934000D02*
X20543200Y9934000D01*
X20697200Y9984000D02*
X20797200Y9884000D01*
X20797200Y9984000D02*
X20697200Y9884000D01*
X20747200Y9984000D02*
X20747200Y9884000D01*
X20697200Y9934000D02*
X20797200Y9934000D01*
X17850000Y7658000D02*
X17950000Y7558000D01*
X17950000Y7658000D02*
X17850000Y7558000D01*
X17900000Y7658000D02*
X17900000Y7558000D01*
X17850000Y7608000D02*
X17950000Y7608000D01*
X17850000Y7404000D02*
X17950000Y7304000D01*
X17950000Y7404000D02*
X17850000Y7304000D01*
X17900000Y7404000D02*
X17900000Y7304000D01*
X17850000Y7354000D02*
X17950000Y7354000D01*
X17850000Y7150000D02*
X17950000Y7050000D01*
X17950000Y7150000D02*
X17850000Y7050000D01*
X17900000Y7150000D02*
X17900000Y7050000D01*
X17850000Y7100000D02*
X17950000Y7100000D01*
X15566400Y15343400D02*
X15666400Y15243400D01*
X15666400Y15343400D02*
X15566400Y15243400D01*
X15616400Y15343400D02*
X15616400Y15243400D01*
X15566400Y15293400D02*
X15666400Y15293400D01*
X15820400Y15343400D02*
X15920400Y15243400D01*
X15920400Y15343400D02*
X15820400Y15243400D01*
X15870400Y15343400D02*
X15870400Y15243400D01*
X15820400Y15293400D02*
X15920400Y15293400D01*
X16074400Y15343400D02*
X16174400Y15243400D01*
X16174400Y15343400D02*
X16074400Y15243400D01*
X16124400Y15343400D02*
X16124400Y15243400D01*
X16074400Y15293400D02*
X16174400Y15293400D01*
X16328400Y15343400D02*
X16428400Y15243400D01*
X16428400Y15343400D02*
X16328400Y15243400D01*
X16378400Y15343400D02*
X16378400Y15243400D01*
X16328400Y15293400D02*
X16428400Y15293400D01*
X16582400Y15343400D02*
X16682400Y15243400D01*
X16682400Y15343400D02*
X16582400Y15243400D01*
X16632400Y15343400D02*
X16632400Y15243400D01*
X16582400Y15293400D02*
X16682400Y15293400D01*
X16836400Y15343400D02*
X16936400Y15243400D01*
X16936400Y15343400D02*
X16836400Y15243400D01*
X16886400Y15343400D02*
X16886400Y15243400D01*
X16836400Y15293400D02*
X16936400Y15293400D01*
X17090400Y15343400D02*
X17190400Y15243400D01*
X17190400Y15343400D02*
X17090400Y15243400D01*
X17140400Y15343400D02*
X17140400Y15243400D01*
X17090400Y15293400D02*
X17190400Y15293400D01*
X17344400Y15343400D02*
X17444400Y15243400D01*
X17444400Y15343400D02*
X17344400Y15243400D01*
X17394400Y15343400D02*
X17394400Y15243400D01*
X17344400Y15293400D02*
X17444400Y15293400D01*
X17598400Y15343400D02*
X17698400Y15243400D01*
X17698400Y15343400D02*
X17598400Y15243400D01*
X17648400Y15343400D02*
X17648400Y15243400D01*
X17598400Y15293400D02*
X17698400Y15293400D01*
X17852400Y15343400D02*
X17952400Y15243400D01*
X17952400Y15343400D02*
X17852400Y15243400D01*
X17902400Y15343400D02*
X17902400Y15243400D01*
X17852400Y15293400D02*
X17952400Y15293400D01*
X18106400Y15343400D02*
X18206400Y15243400D01*
X18206400Y15343400D02*
X18106400Y15243400D01*
X18156400Y15343400D02*
X18156400Y15243400D01*
X18106400Y15293400D02*
X18206400Y15293400D01*
X18360400Y15343400D02*
X18460400Y15243400D01*
X18460400Y15343400D02*
X18360400Y15243400D01*
X18410400Y15343400D02*
X18410400Y15243400D01*
X18360400Y15293400D02*
X18460400Y15293400D01*
X18614400Y15343400D02*
X18714400Y15243400D01*
X18714400Y15343400D02*
X18614400Y15243400D01*
X18664400Y15343400D02*
X18664400Y15243400D01*
X18614400Y15293400D02*
X18714400Y15293400D01*
X18868400Y15343400D02*
X18968400Y15243400D01*
X18968400Y15343400D02*
X18868400Y15243400D01*
X18918400Y15343400D02*
X18918400Y15243400D01*
X18868400Y15293400D02*
X18968400Y15293400D01*
X19122400Y15343400D02*
X19222400Y15243400D01*
X19222400Y15343400D02*
X19122400Y15243400D01*
X19172400Y15343400D02*
X19172400Y15243400D01*
X19122400Y15293400D02*
X19222400Y15293400D01*
X19376400Y15343400D02*
X19476400Y15243400D01*
X19476400Y15343400D02*
X19376400Y15243400D01*
X19426400Y15343400D02*
X19426400Y15243400D01*
X19376400Y15293400D02*
X19476400Y15293400D01*
X20562400Y1348000D02*
X20662400Y1248000D01*
X20662400Y1348000D02*
X20562400Y1248000D01*
X20612400Y1348000D02*
X20612400Y1248000D01*
X20562400Y1298000D02*
X20662400Y1298000D01*
X20562400Y840000D02*
X20662400Y740000D01*
X20662400Y840000D02*
X20562400Y740000D01*
X20612400Y840000D02*
X20612400Y740000D01*
X20562400Y790000D02*
X20662400Y790000D01*
X22086400Y1602000D02*
X22186400Y1502000D01*
X22186400Y1602000D02*
X22086400Y1502000D01*
X22136400Y1602000D02*
X22136400Y1502000D01*
X22086400Y1552000D02*
X22186400Y1552000D01*
X22086400Y1094000D02*
X22186400Y994000D01*
X22186400Y1094000D02*
X22086400Y994000D01*
X22136400Y1094000D02*
X22136400Y994000D01*
X22086400Y1044000D02*
X22186400Y1044000D01*
X19828600Y11830000D02*
X19938600Y11720000D01*
X19938600Y11830000D02*
X19828600Y11720000D01*
X19922491Y11736109D02*
X19922491Y11813891D01*
X19844709Y11813891D01*
X19844709Y11736109D01*
X19922491Y11736109D01*
X19828600Y11380000D02*
X19938600Y11270000D01*
X19938600Y11380000D02*
X19828600Y11270000D01*
X19922491Y11286109D02*
X19922491Y11363891D01*
X19844709Y11363891D01*
X19844709Y11286109D01*
X19922491Y11286109D01*
X20478600Y11830000D02*
X20588600Y11720000D01*
X20588600Y11830000D02*
X20478600Y11720000D01*
X20572491Y11736109D02*
X20572491Y11813891D01*
X20494709Y11813891D01*
X20494709Y11736109D01*
X20572491Y11736109D01*
X20478600Y11380000D02*
X20588600Y11270000D01*
X20588600Y11380000D02*
X20478600Y11270000D01*
X20572491Y11286109D02*
X20572491Y11363891D01*
X20494709Y11363891D01*
X20494709Y11286109D01*
X20572491Y11286109D01*
X18761800Y1607000D02*
X18871800Y1497000D01*
X18871800Y1607000D02*
X18761800Y1497000D01*
X18855691Y1513109D02*
X18855691Y1590891D01*
X18777909Y1590891D01*
X18777909Y1513109D01*
X18855691Y1513109D01*
X18761800Y591000D02*
X18871800Y481000D01*
X18871800Y591000D02*
X18761800Y481000D01*
X18855691Y497109D02*
X18855691Y574891D01*
X18777909Y574891D01*
X18777909Y497109D01*
X18855691Y497109D01*
X9274900Y3105600D02*
X9384900Y2995600D01*
X9384900Y3105600D02*
X9274900Y2995600D01*
X9368791Y3011709D02*
X9368791Y3089491D01*
X9291009Y3089491D01*
X9291009Y3011709D01*
X9368791Y3011709D01*
X9274900Y2089600D02*
X9384900Y1979600D01*
X9384900Y2089600D02*
X9274900Y1979600D01*
X9368791Y1995709D02*
X9368791Y2073491D01*
X9291009Y2073491D01*
X9291009Y1995709D01*
X9368791Y1995709D01*
X9960700Y10370000D02*
X10070700Y10260000D01*
X10070700Y10370000D02*
X9960700Y10260000D01*
X10054591Y10276109D02*
X10054591Y10353891D01*
X9976809Y10353891D01*
X9976809Y10276109D01*
X10054591Y10276109D01*
X9960700Y9354000D02*
X10070700Y9244000D01*
X10070700Y9354000D02*
X9960700Y9244000D01*
X10054591Y9260109D02*
X10054591Y9337891D01*
X9976809Y9337891D01*
X9976809Y9260109D01*
X10054591Y9260109D01*
X9541600Y13824400D02*
X9651600Y13714400D01*
X9651600Y13824400D02*
X9541600Y13714400D01*
X9635491Y13730509D02*
X9635491Y13808291D01*
X9557709Y13808291D01*
X9557709Y13730509D01*
X9635491Y13730509D01*
X9541600Y12808400D02*
X9651600Y12698400D01*
X9651600Y12808400D02*
X9541600Y12698400D01*
X9635491Y12714509D02*
X9635491Y12792291D01*
X9557709Y12792291D01*
X9557709Y12714509D01*
X9635491Y12714509D01*
X8754200Y3105600D02*
X8864200Y2995600D01*
X8864200Y3105600D02*
X8754200Y2995600D01*
X8848091Y3011709D02*
X8848091Y3089491D01*
X8770309Y3089491D01*
X8770309Y3011709D01*
X8848091Y3011709D01*
X8754200Y2089600D02*
X8864200Y1979600D01*
X8864200Y2089600D02*
X8754200Y1979600D01*
X8848091Y1995709D02*
X8848091Y2073491D01*
X8770309Y2073491D01*
X8770309Y1995709D01*
X8848091Y1995709D01*
X9973400Y13824400D02*
X10083400Y13714400D01*
X10083400Y13824400D02*
X9973400Y13714400D01*
X10067291Y13730509D02*
X10067291Y13808291D01*
X9989509Y13808291D01*
X9989509Y13730509D01*
X10067291Y13730509D01*
X9973400Y12808400D02*
X10083400Y12698400D01*
X10083400Y12808400D02*
X9973400Y12698400D01*
X10067291Y12714509D02*
X10067291Y12792291D01*
X9989509Y12792291D01*
X9989509Y12714509D01*
X10067291Y12714509D01*
X9516200Y10370000D02*
X9626200Y10260000D01*
X9626200Y10370000D02*
X9516200Y10260000D01*
X9610091Y10276109D02*
X9610091Y10353891D01*
X9532309Y10353891D01*
X9532309Y10276109D01*
X9610091Y10276109D01*
X9516200Y9354000D02*
X9626200Y9244000D01*
X9626200Y9354000D02*
X9516200Y9244000D01*
X9610091Y9260109D02*
X9610091Y9337891D01*
X9532309Y9337891D01*
X9532309Y9260109D01*
X9610091Y9260109D01*
X9986100Y6763200D02*
X10096100Y6653200D01*
X10096100Y6763200D02*
X9986100Y6653200D01*
X10079991Y6669309D02*
X10079991Y6747091D01*
X10002209Y6747091D01*
X10002209Y6669309D01*
X10079991Y6669309D01*
X9986100Y5747200D02*
X10096100Y5637200D01*
X10096100Y5747200D02*
X9986100Y5637200D01*
X10079991Y5653309D02*
X10079991Y5731091D01*
X10002209Y5731091D01*
X10002209Y5653309D01*
X10079991Y5653309D01*
X18520000Y11830000D02*
X18630000Y11720000D01*
X18630000Y11830000D02*
X18520000Y11720000D01*
X18613891Y11736109D02*
X18613891Y11813891D01*
X18536109Y11813891D01*
X18536109Y11736109D01*
X18613891Y11736109D01*
X18520000Y11380000D02*
X18630000Y11270000D01*
X18630000Y11380000D02*
X18520000Y11270000D01*
X18613891Y11286109D02*
X18613891Y11363891D01*
X18536109Y11363891D01*
X18536109Y11286109D01*
X18613891Y11286109D01*
X19170000Y11830000D02*
X19280000Y11720000D01*
X19280000Y11830000D02*
X19170000Y11720000D01*
X19263891Y11736109D02*
X19263891Y11813891D01*
X19186109Y11813891D01*
X19186109Y11736109D01*
X19263891Y11736109D01*
X19170000Y11380000D02*
X19280000Y11270000D01*
X19280000Y11380000D02*
X19170000Y11270000D01*
X19263891Y11286109D02*
X19263891Y11363891D01*
X19186109Y11363891D01*
X19186109Y11286109D01*
X19263891Y11286109D01*
X9503500Y6763200D02*
X9613500Y6653200D01*
X9613500Y6763200D02*
X9503500Y6653200D01*
X9597391Y6669309D02*
X9597391Y6747091D01*
X9519609Y6747091D01*
X9519609Y6669309D01*
X9597391Y6669309D01*
X9503500Y5747200D02*
X9613500Y5637200D01*
X9613500Y5747200D02*
X9503500Y5637200D01*
X9597391Y5653309D02*
X9597391Y5731091D01*
X9519609Y5731091D01*
X9519609Y5653309D01*
X9597391Y5653309D01*
X15180400Y1632400D02*
X15290400Y1522400D01*
X15290400Y1632400D02*
X15180400Y1522400D01*
X15274291Y1538509D02*
X15274291Y1616291D01*
X15196509Y1616291D01*
X15196509Y1538509D01*
X15274291Y1538509D01*
X15180400Y616400D02*
X15290400Y506400D01*
X15290400Y616400D02*
X15180400Y506400D01*
X15274291Y522509D02*
X15274291Y600291D01*
X15196509Y600291D01*
X15196509Y522509D01*
X15274291Y522509D01*
X1899000Y1789800D02*
X2019000Y1669800D01*
X2019000Y1789800D02*
X1899000Y1669800D01*
X1959000Y1669800D02*
X2019000Y1729800D01*
X1959000Y1789800D01*
X1899000Y1729800D01*
X1959000Y1669800D01*
X1899000Y1281800D02*
X2019000Y1161800D01*
X2019000Y1281800D02*
X1899000Y1161800D01*
X1959000Y1161800D02*
X2019000Y1221800D01*
X1959000Y1281800D01*
X1899000Y1221800D01*
X1959000Y1161800D01*
X3423000Y2043800D02*
X3543000Y1923800D01*
X3543000Y2043800D02*
X3423000Y1923800D01*
X3483000Y1923800D02*
X3543000Y1983800D01*
X3483000Y2043800D01*
X3423000Y1983800D01*
X3483000Y1923800D01*
X3423000Y1535800D02*
X3543000Y1415800D01*
X3543000Y1535800D02*
X3423000Y1415800D01*
X3483000Y1415800D02*
X3543000Y1475800D01*
X3483000Y1535800D01*
X3423000Y1475800D01*
X3483000Y1415800D01*
X1899000Y2805800D02*
X2019000Y2685800D01*
X2019000Y2805800D02*
X1899000Y2685800D01*
X1959000Y2685800D02*
X2019000Y2745800D01*
X1959000Y2805800D01*
X1899000Y2745800D01*
X1959000Y2685800D01*
X1899000Y2297800D02*
X2019000Y2177800D01*
X2019000Y2297800D02*
X1899000Y2177800D01*
X1959000Y2177800D02*
X2019000Y2237800D01*
X1959000Y2297800D01*
X1899000Y2237800D01*
X1959000Y2177800D01*
X3423000Y3059800D02*
X3543000Y2939800D01*
X3543000Y3059800D02*
X3423000Y2939800D01*
X3483000Y2939800D02*
X3543000Y2999800D01*
X3483000Y3059800D01*
X3423000Y2999800D01*
X3483000Y2939800D01*
X3423000Y2551800D02*
X3543000Y2431800D01*
X3543000Y2551800D02*
X3423000Y2431800D01*
X3483000Y2431800D02*
X3543000Y2491800D01*
X3483000Y2551800D01*
X3423000Y2491800D01*
X3483000Y2431800D01*
X1848200Y6463400D02*
X1968200Y6343400D01*
X1968200Y6463400D02*
X1848200Y6343400D01*
X1908200Y6343400D02*
X1968200Y6403400D01*
X1908200Y6463400D01*
X1848200Y6403400D01*
X1908200Y6343400D01*
X1848200Y5955400D02*
X1968200Y5835400D01*
X1968200Y5955400D02*
X1848200Y5835400D01*
X1908200Y5835400D02*
X1968200Y5895400D01*
X1908200Y5955400D01*
X1848200Y5895400D01*
X1908200Y5835400D01*
X1848200Y5446400D02*
X1968200Y5326400D01*
X1968200Y5446400D02*
X1848200Y5326400D01*
X1908200Y5326400D02*
X1968200Y5386400D01*
X1908200Y5446400D01*
X1848200Y5386400D01*
X1908200Y5326400D01*
X3372200Y6717400D02*
X3492200Y6597400D01*
X3492200Y6717400D02*
X3372200Y6597400D01*
X3432200Y6597400D02*
X3492200Y6657400D01*
X3432200Y6717400D01*
X3372200Y6657400D01*
X3432200Y6597400D01*
X3372200Y6209400D02*
X3492200Y6089400D01*
X3492200Y6209400D02*
X3372200Y6089400D01*
X3432200Y6089400D02*
X3492200Y6149400D01*
X3432200Y6209400D01*
X3372200Y6149400D01*
X3432200Y6089400D01*
X3372200Y5700400D02*
X3492200Y5580400D01*
X3492200Y5700400D02*
X3372200Y5580400D01*
X3432200Y5580400D02*
X3492200Y5640400D01*
X3432200Y5700400D01*
X3372200Y5640400D01*
X3432200Y5580400D01*
X1899000Y13454600D02*
X2019000Y13334600D01*
X2019000Y13454600D02*
X1899000Y13334600D01*
X1959000Y13334600D02*
X2019000Y13394600D01*
X1959000Y13454600D01*
X1899000Y13394600D01*
X1959000Y13334600D01*
X1899000Y12946600D02*
X2019000Y12826600D01*
X2019000Y12946600D02*
X1899000Y12826600D01*
X1959000Y12826600D02*
X2019000Y12886600D01*
X1959000Y12946600D01*
X1899000Y12886600D01*
X1959000Y12826600D01*
X1899000Y12437600D02*
X2019000Y12317600D01*
X2019000Y12437600D02*
X1899000Y12317600D01*
X1959000Y12317600D02*
X2019000Y12377600D01*
X1959000Y12437600D01*
X1899000Y12377600D01*
X1959000Y12317600D01*
X3423000Y13708600D02*
X3543000Y13588600D01*
X3543000Y13708600D02*
X3423000Y13588600D01*
X3483000Y13588600D02*
X3543000Y13648600D01*
X3483000Y13708600D01*
X3423000Y13648600D01*
X3483000Y13588600D01*
X3423000Y13200600D02*
X3543000Y13080600D01*
X3543000Y13200600D02*
X3423000Y13080600D01*
X3483000Y13080600D02*
X3543000Y13140600D01*
X3483000Y13200600D01*
X3423000Y13140600D01*
X3483000Y13080600D01*
X3423000Y12691600D02*
X3543000Y12571600D01*
X3543000Y12691600D02*
X3423000Y12571600D01*
X3483000Y12571600D02*
X3543000Y12631600D01*
X3483000Y12691600D01*
X3423000Y12631600D01*
X3483000Y12571600D01*
X1873600Y9994000D02*
X1993600Y9874000D01*
X1993600Y9994000D02*
X1873600Y9874000D01*
X1933600Y9874000D02*
X1993600Y9934000D01*
X1933600Y9994000D01*
X1873600Y9934000D01*
X1933600Y9874000D01*
X1873600Y9486000D02*
X1993600Y9366000D01*
X1993600Y9486000D02*
X1873600Y9366000D01*
X1933600Y9366000D02*
X1993600Y9426000D01*
X1933600Y9486000D01*
X1873600Y9426000D01*
X1933600Y9366000D01*
X1873600Y8977000D02*
X1993600Y8857000D01*
X1993600Y8977000D02*
X1873600Y8857000D01*
X1933600Y8857000D02*
X1993600Y8917000D01*
X1933600Y8977000D01*
X1873600Y8917000D01*
X1933600Y8857000D01*
X3397600Y10248000D02*
X3517600Y10128000D01*
X3517600Y10248000D02*
X3397600Y10128000D01*
X3457600Y10128000D02*
X3517600Y10188000D01*
X3457600Y10248000D01*
X3397600Y10188000D01*
X3457600Y10128000D01*
X3397600Y9740000D02*
X3517600Y9620000D01*
X3517600Y9740000D02*
X3397600Y9620000D01*
X3457600Y9620000D02*
X3517600Y9680000D01*
X3457600Y9740000D01*
X3397600Y9680000D01*
X3457600Y9620000D01*
X3397600Y9231000D02*
X3517600Y9111000D01*
X3517600Y9231000D02*
X3397600Y9111000D01*
X3457600Y9111000D02*
X3517600Y9171000D01*
X3457600Y9231000D01*
X3397600Y9171000D01*
X3457600Y9111000D01*
X600000Y15690000D02*
X600000Y15110000D01*
X310000Y15400000D02*
X890000Y15400000D01*
X890000Y15400000D02*
G75*
G03*
X890000Y15400000I-290000J0D01*
G01*
X600000Y890000D02*
X600000Y310000D01*
X310000Y600000D02*
X890000Y600000D01*
X890000Y600000D02*
G75*
G03*
X890000Y600000I-290000J0D01*
G01*
X21400000Y2890000D02*
X21400000Y2310000D01*
X21110000Y2600000D02*
X21690000Y2600000D01*
X21690000Y2600000D02*
G75*
G03*
X21690000Y2600000I-290000J0D01*
G01*
X22700000Y15690000D02*
X22700000Y15110000D01*
X22410000Y15400000D02*
X22990000Y15400000D01*
X22990000Y15400000D02*
G75*
G03*
X22990000Y15400000I-290000J0D01*
G01*
D11*
X-1013571Y16834286D02*
X-1013571Y17134286D01*
X-942143Y17134286D01*
X-899286Y17120000D01*
X-870714Y17091429D01*
X-856429Y17062857D01*
X-842143Y17005714D01*
X-842143Y16962857D01*
X-856429Y16905714D01*
X-870714Y16877143D01*
X-899286Y16848572D01*
X-942143Y16834286D01*
X-1013571Y16834286D01*
X-713571Y16834286D02*
X-713571Y17034286D01*
X-713571Y16977143D02*
X-699286Y17005714D01*
X-685000Y17020000D01*
X-656429Y17034286D01*
X-627857Y17034286D01*
X-527857Y16834286D02*
X-527857Y17034286D01*
X-527857Y17134286D02*
X-542143Y17120000D01*
X-527857Y17105714D01*
X-513571Y17120000D01*
X-527857Y17134286D01*
X-527857Y17105714D01*
X-342143Y16834286D02*
X-370714Y16848572D01*
X-385000Y16877143D01*
X-385000Y17134286D01*
X-185000Y16834286D02*
X-213571Y16848572D01*
X-227857Y16877143D01*
X-227857Y17134286D01*
X157857Y16834286D02*
X157857Y17134286D01*
X257857Y16920000D01*
X357857Y17134286D01*
X357857Y16834286D01*
X629286Y16834286D02*
X629286Y16991429D01*
X615000Y17020000D01*
X586429Y17034286D01*
X529286Y17034286D01*
X500714Y17020000D01*
X629286Y16848572D02*
X600714Y16834286D01*
X529286Y16834286D01*
X500714Y16848572D01*
X486428Y16877143D01*
X486428Y16905714D01*
X500714Y16934286D01*
X529286Y16948572D01*
X600714Y16948572D01*
X629286Y16962857D01*
X772143Y17034286D02*
X772143Y16734286D01*
X772143Y17020000D02*
X800714Y17034286D01*
X857857Y17034286D01*
X886428Y17020000D01*
X900714Y17005714D01*
X915000Y16977143D01*
X915000Y16891429D01*
X900714Y16862857D01*
X886428Y16848572D01*
X857857Y16834286D01*
X800714Y16834286D01*
X772143Y16848572D01*
X1043571Y16862857D02*
X1057857Y16848572D01*
X1043571Y16834286D01*
X1029286Y16848572D01*
X1043571Y16862857D01*
X1043571Y16834286D01*
X1043571Y17020000D02*
X1057857Y17005714D01*
X1043571Y16991429D01*
X1029286Y17005714D01*
X1043571Y17020000D01*
X1043571Y16991429D01*
X-1340000Y16360000D02*
X-1300000Y16320000D01*
X-1300000Y16360000D02*
X-1340000Y16320000D01*
X-956429Y16504286D02*
X-927857Y16504286D01*
X-899286Y16490000D01*
X-885000Y16475714D01*
X-870714Y16447143D01*
X-856429Y16390000D01*
X-856429Y16318571D01*
X-870714Y16261429D01*
X-885000Y16232857D01*
X-899286Y16218571D01*
X-927857Y16204286D01*
X-956429Y16204286D01*
X-985000Y16218571D01*
X-999286Y16232857D01*
X-1013571Y16261429D01*
X-1027857Y16318571D01*
X-1027857Y16390000D01*
X-1013571Y16447143D01*
X-999286Y16475714D01*
X-985000Y16490000D01*
X-956429Y16504286D01*
X-727857Y16232857D02*
X-713571Y16218571D01*
X-727857Y16204286D01*
X-742143Y16218571D01*
X-727857Y16232857D01*
X-727857Y16204286D01*
X-456429Y16404286D02*
X-456429Y16204286D01*
X-527857Y16518571D02*
X-599286Y16304286D01*
X-413571Y16304286D01*
X-242143Y16504286D02*
X-213571Y16504286D01*
X-185000Y16490000D01*
X-170714Y16475714D01*
X-156429Y16447143D01*
X-142143Y16390000D01*
X-142143Y16318571D01*
X-156429Y16261429D01*
X-170714Y16232857D01*
X-185000Y16218571D01*
X-213571Y16204286D01*
X-242143Y16204286D01*
X-270714Y16218571D01*
X-285000Y16232857D01*
X-299286Y16261429D01*
X-313572Y16318571D01*
X-313572Y16390000D01*
X-299286Y16447143D01*
X-285000Y16475714D01*
X-270714Y16490000D01*
X-242143Y16504286D01*
X-13571Y16204286D02*
X-13571Y16404286D01*
X-13571Y16375714D02*
X714Y16390000D01*
X29286Y16404286D01*
X72143Y16404286D01*
X100714Y16390000D01*
X115000Y16361429D01*
X115000Y16204286D01*
X115000Y16361429D02*
X129286Y16390000D01*
X157857Y16404286D01*
X200714Y16404286D01*
X229286Y16390000D01*
X243571Y16361429D01*
X243571Y16204286D01*
X386428Y16204286D02*
X386428Y16404286D01*
X386428Y16375714D02*
X400714Y16390000D01*
X429286Y16404286D01*
X472143Y16404286D01*
X500714Y16390000D01*
X515000Y16361429D01*
X515000Y16204286D01*
X515000Y16361429D02*
X529286Y16390000D01*
X557857Y16404286D01*
X600714Y16404286D01*
X629286Y16390000D01*
X643571Y16361429D01*
X643571Y16204286D01*
X1229286Y16518571D02*
X972143Y16132857D01*
X1615000Y16504286D02*
X1643571Y16504286D01*
X1672143Y16490000D01*
X1686428Y16475714D01*
X1700714Y16447143D01*
X1715000Y16390000D01*
X1715000Y16318571D01*
X1700714Y16261429D01*
X1686428Y16232857D01*
X1672143Y16218571D01*
X1643571Y16204286D01*
X1615000Y16204286D01*
X1586428Y16218571D01*
X1572143Y16232857D01*
X1557857Y16261429D01*
X1543571Y16318571D01*
X1543571Y16390000D01*
X1557857Y16447143D01*
X1572143Y16475714D01*
X1586428Y16490000D01*
X1615000Y16504286D01*
X1843571Y16232857D02*
X1857857Y16218571D01*
X1843571Y16204286D01*
X1829286Y16218571D01*
X1843571Y16232857D01*
X1843571Y16204286D01*
X2043571Y16504286D02*
X2072143Y16504286D01*
X2100714Y16490000D01*
X2115000Y16475714D01*
X2129286Y16447143D01*
X2143571Y16390000D01*
X2143571Y16318571D01*
X2129286Y16261429D01*
X2115000Y16232857D01*
X2100714Y16218571D01*
X2072143Y16204286D01*
X2043571Y16204286D01*
X2015000Y16218571D01*
X2000714Y16232857D01*
X1986428Y16261429D01*
X1972143Y16318571D01*
X1972143Y16390000D01*
X1986428Y16447143D01*
X2000714Y16475714D01*
X2015000Y16490000D01*
X2043571Y16504286D01*
X2429286Y16204286D02*
X2257857Y16204286D01*
X2343571Y16204286D02*
X2343571Y16504286D01*
X2315000Y16461429D01*
X2286429Y16432857D01*
X2257857Y16418571D01*
X2686429Y16504286D02*
X2629286Y16504286D01*
X2600714Y16490000D01*
X2586429Y16475714D01*
X2557857Y16432857D01*
X2543571Y16375714D01*
X2543571Y16261429D01*
X2557857Y16232857D01*
X2572143Y16218571D01*
X2600714Y16204286D01*
X2657857Y16204286D01*
X2686429Y16218571D01*
X2700714Y16232857D01*
X2715000Y16261429D01*
X2715000Y16332857D01*
X2700714Y16361429D01*
X2686429Y16375714D01*
X2657857Y16390000D01*
X2600714Y16390000D01*
X2572143Y16375714D01*
X2557857Y16361429D01*
X2543571Y16332857D01*
X2829286Y16504286D02*
X2829286Y16447143D01*
X2943571Y16504286D02*
X2943571Y16447143D01*
X3386428Y16090000D02*
X3372143Y16104286D01*
X3343571Y16147143D01*
X3329286Y16175714D01*
X3315000Y16218571D01*
X3300714Y16290000D01*
X3300714Y16347143D01*
X3315000Y16418571D01*
X3329286Y16461429D01*
X3343571Y16490000D01*
X3372143Y16532857D01*
X3386428Y16547143D01*
X3657857Y16204286D02*
X3486428Y16204286D01*
X3572143Y16204286D02*
X3572143Y16504286D01*
X3543571Y16461429D01*
X3515000Y16432857D01*
X3486428Y16418571D01*
X3757857Y16504286D02*
X3943571Y16504286D01*
X3843571Y16390000D01*
X3886428Y16390000D01*
X3915000Y16375714D01*
X3929286Y16361429D01*
X3943571Y16332857D01*
X3943571Y16261429D01*
X3929286Y16232857D01*
X3915000Y16218571D01*
X3886428Y16204286D01*
X3800714Y16204286D01*
X3772143Y16218571D01*
X3757857Y16232857D01*
X4300714Y16204286D02*
X4300714Y16504286D01*
X4429286Y16204286D02*
X4429286Y16361429D01*
X4415000Y16390000D01*
X4386429Y16404286D01*
X4343571Y16404286D01*
X4315000Y16390000D01*
X4300714Y16375714D01*
X4615000Y16204286D02*
X4586429Y16218571D01*
X4572143Y16232857D01*
X4557857Y16261429D01*
X4557857Y16347143D01*
X4572143Y16375714D01*
X4586429Y16390000D01*
X4615000Y16404286D01*
X4657857Y16404286D01*
X4686429Y16390000D01*
X4700714Y16375714D01*
X4715000Y16347143D01*
X4715000Y16261429D01*
X4700714Y16232857D01*
X4686429Y16218571D01*
X4657857Y16204286D01*
X4615000Y16204286D01*
X4886429Y16204286D02*
X4857857Y16218571D01*
X4843571Y16247143D01*
X4843571Y16504286D01*
X5115000Y16218571D02*
X5086429Y16204286D01*
X5029286Y16204286D01*
X5000714Y16218571D01*
X4986429Y16247143D01*
X4986429Y16361429D01*
X5000714Y16390000D01*
X5029286Y16404286D01*
X5086429Y16404286D01*
X5115000Y16390000D01*
X5129286Y16361429D01*
X5129286Y16332857D01*
X4986429Y16304286D01*
X5243571Y16218571D02*
X5272143Y16204286D01*
X5329286Y16204286D01*
X5357857Y16218571D01*
X5372143Y16247143D01*
X5372143Y16261429D01*
X5357857Y16290000D01*
X5329286Y16304286D01*
X5286429Y16304286D01*
X5257857Y16318571D01*
X5243571Y16347143D01*
X5243571Y16361429D01*
X5257857Y16390000D01*
X5286429Y16404286D01*
X5329286Y16404286D01*
X5357857Y16390000D01*
X5472143Y16090000D02*
X5486429Y16104286D01*
X5515000Y16147143D01*
X5529286Y16175714D01*
X5543571Y16218571D01*
X5557857Y16290000D01*
X5557857Y16347143D01*
X5543571Y16418571D01*
X5529286Y16461429D01*
X5515000Y16490000D01*
X5486429Y16532857D01*
X5472143Y16547143D01*
X-1300000Y15944000D02*
G75*
G03*
X-1300000Y15944000I-25000J0D01*
G01*
X-956429Y16108286D02*
X-927857Y16108286D01*
X-899286Y16094000D01*
X-885000Y16079714D01*
X-870714Y16051143D01*
X-856429Y15994000D01*
X-856429Y15922571D01*
X-870714Y15865429D01*
X-885000Y15836857D01*
X-899286Y15822571D01*
X-927857Y15808286D01*
X-956429Y15808286D01*
X-985000Y15822571D01*
X-999286Y15836857D01*
X-1013571Y15865429D01*
X-1027857Y15922571D01*
X-1027857Y15994000D01*
X-1013571Y16051143D01*
X-999286Y16079714D01*
X-985000Y16094000D01*
X-956429Y16108286D01*
X-727857Y15836857D02*
X-713571Y15822571D01*
X-727857Y15808286D01*
X-742143Y15822571D01*
X-727857Y15836857D01*
X-727857Y15808286D01*
X-442143Y16108286D02*
X-585000Y16108286D01*
X-599286Y15965429D01*
X-585000Y15979714D01*
X-556429Y15994000D01*
X-485000Y15994000D01*
X-456429Y15979714D01*
X-442143Y15965429D01*
X-427857Y15936857D01*
X-427857Y15865429D01*
X-442143Y15836857D01*
X-456429Y15822571D01*
X-485000Y15808286D01*
X-556429Y15808286D01*
X-585000Y15822571D01*
X-599286Y15836857D01*
X-242143Y16108286D02*
X-213571Y16108286D01*
X-185000Y16094000D01*
X-170714Y16079714D01*
X-156429Y16051143D01*
X-142143Y15994000D01*
X-142143Y15922571D01*
X-156429Y15865429D01*
X-170714Y15836857D01*
X-185000Y15822571D01*
X-213571Y15808286D01*
X-242143Y15808286D01*
X-270714Y15822571D01*
X-285000Y15836857D01*
X-299286Y15865429D01*
X-313572Y15922571D01*
X-313572Y15994000D01*
X-299286Y16051143D01*
X-285000Y16079714D01*
X-270714Y16094000D01*
X-242143Y16108286D01*
X-13571Y15808286D02*
X-13571Y16008286D01*
X-13571Y15979714D02*
X714Y15994000D01*
X29286Y16008286D01*
X72143Y16008286D01*
X100714Y15994000D01*
X115000Y15965429D01*
X115000Y15808286D01*
X115000Y15965429D02*
X129286Y15994000D01*
X157857Y16008286D01*
X200714Y16008286D01*
X229286Y15994000D01*
X243571Y15965429D01*
X243571Y15808286D01*
X386428Y15808286D02*
X386428Y16008286D01*
X386428Y15979714D02*
X400714Y15994000D01*
X429286Y16008286D01*
X472143Y16008286D01*
X500714Y15994000D01*
X515000Y15965429D01*
X515000Y15808286D01*
X515000Y15965429D02*
X529286Y15994000D01*
X557857Y16008286D01*
X600714Y16008286D01*
X629286Y15994000D01*
X643571Y15965429D01*
X643571Y15808286D01*
X1229286Y16122571D02*
X972143Y15736857D01*
X1615000Y16108286D02*
X1643571Y16108286D01*
X1672143Y16094000D01*
X1686428Y16079714D01*
X1700714Y16051143D01*
X1715000Y15994000D01*
X1715000Y15922571D01*
X1700714Y15865429D01*
X1686428Y15836857D01*
X1672143Y15822571D01*
X1643571Y15808286D01*
X1615000Y15808286D01*
X1586428Y15822571D01*
X1572143Y15836857D01*
X1557857Y15865429D01*
X1543571Y15922571D01*
X1543571Y15994000D01*
X1557857Y16051143D01*
X1572143Y16079714D01*
X1586428Y16094000D01*
X1615000Y16108286D01*
X1843571Y15836857D02*
X1857857Y15822571D01*
X1843571Y15808286D01*
X1829286Y15822571D01*
X1843571Y15836857D01*
X1843571Y15808286D01*
X2043571Y16108286D02*
X2072143Y16108286D01*
X2100714Y16094000D01*
X2115000Y16079714D01*
X2129286Y16051143D01*
X2143571Y15994000D01*
X2143571Y15922571D01*
X2129286Y15865429D01*
X2115000Y15836857D01*
X2100714Y15822571D01*
X2072143Y15808286D01*
X2043571Y15808286D01*
X2015000Y15822571D01*
X2000714Y15836857D01*
X1986428Y15865429D01*
X1972143Y15922571D01*
X1972143Y15994000D01*
X1986428Y16051143D01*
X2000714Y16079714D01*
X2015000Y16094000D01*
X2043571Y16108286D01*
X2257857Y16079714D02*
X2272143Y16094000D01*
X2300714Y16108286D01*
X2372143Y16108286D01*
X2400714Y16094000D01*
X2415000Y16079714D01*
X2429286Y16051143D01*
X2429286Y16022571D01*
X2415000Y15979714D01*
X2243571Y15808286D01*
X2429286Y15808286D01*
X2615000Y16108286D02*
X2643571Y16108286D01*
X2672143Y16094000D01*
X2686429Y16079714D01*
X2700714Y16051143D01*
X2715000Y15994000D01*
X2715000Y15922571D01*
X2700714Y15865429D01*
X2686429Y15836857D01*
X2672143Y15822571D01*
X2643571Y15808286D01*
X2615000Y15808286D01*
X2586429Y15822571D01*
X2572143Y15836857D01*
X2557857Y15865429D01*
X2543571Y15922571D01*
X2543571Y15994000D01*
X2557857Y16051143D01*
X2572143Y16079714D01*
X2586429Y16094000D01*
X2615000Y16108286D01*
X2829286Y16108286D02*
X2829286Y16051143D01*
X2943571Y16108286D02*
X2943571Y16051143D01*
X3386428Y15694000D02*
X3372143Y15708286D01*
X3343571Y15751143D01*
X3329286Y15779714D01*
X3315000Y15822571D01*
X3300714Y15894000D01*
X3300714Y15951143D01*
X3315000Y16022571D01*
X3329286Y16065429D01*
X3343571Y16094000D01*
X3372143Y16136857D01*
X3386428Y16151143D01*
X3472143Y16108286D02*
X3657857Y16108286D01*
X3557857Y15994000D01*
X3600714Y15994000D01*
X3629286Y15979714D01*
X3643571Y15965429D01*
X3657857Y15936857D01*
X3657857Y15865429D01*
X3643571Y15836857D01*
X3629286Y15822571D01*
X3600714Y15808286D01*
X3515000Y15808286D01*
X3486428Y15822571D01*
X3472143Y15836857D01*
X3829286Y15979714D02*
X3800714Y15994000D01*
X3786428Y16008286D01*
X3772143Y16036857D01*
X3772143Y16051143D01*
X3786428Y16079714D01*
X3800714Y16094000D01*
X3829286Y16108286D01*
X3886428Y16108286D01*
X3915000Y16094000D01*
X3929286Y16079714D01*
X3943571Y16051143D01*
X3943571Y16036857D01*
X3929286Y16008286D01*
X3915000Y15994000D01*
X3886428Y15979714D01*
X3829286Y15979714D01*
X3800714Y15965429D01*
X3786428Y15951143D01*
X3772143Y15922571D01*
X3772143Y15865429D01*
X3786428Y15836857D01*
X3800714Y15822571D01*
X3829286Y15808286D01*
X3886428Y15808286D01*
X3915000Y15822571D01*
X3929286Y15836857D01*
X3943571Y15865429D01*
X3943571Y15922571D01*
X3929286Y15951143D01*
X3915000Y15965429D01*
X3886428Y15979714D01*
X4300714Y15808286D02*
X4300714Y16108286D01*
X4429286Y15808286D02*
X4429286Y15965429D01*
X4415000Y15994000D01*
X4386429Y16008286D01*
X4343571Y16008286D01*
X4315000Y15994000D01*
X4300714Y15979714D01*
X4615000Y15808286D02*
X4586429Y15822571D01*
X4572143Y15836857D01*
X4557857Y15865429D01*
X4557857Y15951143D01*
X4572143Y15979714D01*
X4586429Y15994000D01*
X4615000Y16008286D01*
X4657857Y16008286D01*
X4686429Y15994000D01*
X4700714Y15979714D01*
X4715000Y15951143D01*
X4715000Y15865429D01*
X4700714Y15836857D01*
X4686429Y15822571D01*
X4657857Y15808286D01*
X4615000Y15808286D01*
X4886429Y15808286D02*
X4857857Y15822571D01*
X4843571Y15851143D01*
X4843571Y16108286D01*
X5115000Y15822571D02*
X5086429Y15808286D01*
X5029286Y15808286D01*
X5000714Y15822571D01*
X4986429Y15851143D01*
X4986429Y15965429D01*
X5000714Y15994000D01*
X5029286Y16008286D01*
X5086429Y16008286D01*
X5115000Y15994000D01*
X5129286Y15965429D01*
X5129286Y15936857D01*
X4986429Y15908286D01*
X5243571Y15822571D02*
X5272143Y15808286D01*
X5329286Y15808286D01*
X5357857Y15822571D01*
X5372143Y15851143D01*
X5372143Y15865429D01*
X5357857Y15894000D01*
X5329286Y15908286D01*
X5286429Y15908286D01*
X5257857Y15922571D01*
X5243571Y15951143D01*
X5243571Y15965429D01*
X5257857Y15994000D01*
X5286429Y16008286D01*
X5329286Y16008286D01*
X5357857Y15994000D01*
X5729286Y15922571D02*
X5957857Y15922571D01*
X5843571Y15808286D02*
X5843571Y16036857D01*
X6457857Y16008286D02*
X6457857Y15808286D01*
X6386428Y16122571D02*
X6315000Y15908286D01*
X6500714Y15908286D01*
X6657857Y15979714D02*
X6629286Y15994000D01*
X6615000Y16008286D01*
X6600714Y16036857D01*
X6600714Y16051143D01*
X6615000Y16079714D01*
X6629286Y16094000D01*
X6657857Y16108286D01*
X6715000Y16108286D01*
X6743571Y16094000D01*
X6757857Y16079714D01*
X6772143Y16051143D01*
X6772143Y16036857D01*
X6757857Y16008286D01*
X6743571Y15994000D01*
X6715000Y15979714D01*
X6657857Y15979714D01*
X6629286Y15965429D01*
X6615000Y15951143D01*
X6600714Y15922571D01*
X6600714Y15865429D01*
X6615000Y15836857D01*
X6629286Y15822571D01*
X6657857Y15808286D01*
X6715000Y15808286D01*
X6743571Y15822571D01*
X6757857Y15836857D01*
X6772143Y15865429D01*
X6772143Y15922571D01*
X6757857Y15951143D01*
X6743571Y15965429D01*
X6715000Y15979714D01*
X7115000Y15822571D02*
X7143571Y15808286D01*
X7200714Y15808286D01*
X7229286Y15822571D01*
X7243571Y15851143D01*
X7243571Y15865429D01*
X7229286Y15894000D01*
X7200714Y15908286D01*
X7157857Y15908286D01*
X7129286Y15922571D01*
X7115000Y15951143D01*
X7115000Y15965429D01*
X7129286Y15994000D01*
X7157857Y16008286D01*
X7200714Y16008286D01*
X7229286Y15994000D01*
X7415000Y15808286D02*
X7386428Y15822571D01*
X7372143Y15851143D01*
X7372143Y16108286D01*
X7572143Y15808286D02*
X7543571Y15822571D01*
X7529286Y15836857D01*
X7515000Y15865429D01*
X7515000Y15951143D01*
X7529286Y15979714D01*
X7543571Y15994000D01*
X7572143Y16008286D01*
X7615000Y16008286D01*
X7643571Y15994000D01*
X7657857Y15979714D01*
X7672143Y15951143D01*
X7672143Y15865429D01*
X7657857Y15836857D01*
X7643571Y15822571D01*
X7615000Y15808286D01*
X7572143Y15808286D01*
X7757857Y16008286D02*
X7872143Y16008286D01*
X7800714Y16108286D02*
X7800714Y15851143D01*
X7815000Y15822571D01*
X7843571Y15808286D01*
X7872143Y15808286D01*
X7957857Y15822571D02*
X7986428Y15808286D01*
X8043571Y15808286D01*
X8072143Y15822571D01*
X8086428Y15851143D01*
X8086428Y15865429D01*
X8072143Y15894000D01*
X8043571Y15908286D01*
X8000714Y15908286D01*
X7972143Y15922571D01*
X7957857Y15951143D01*
X7957857Y15965429D01*
X7972143Y15994000D01*
X8000714Y16008286D01*
X8043571Y16008286D01*
X8072143Y15994000D01*
X8186428Y15694000D02*
X8200714Y15708286D01*
X8229286Y15751143D01*
X8243571Y15779714D01*
X8257857Y15822571D01*
X8272143Y15894000D01*
X8272143Y15951143D01*
X8257857Y16022571D01*
X8243571Y16065429D01*
X8229286Y16094000D01*
X8200714Y16136857D01*
X8186428Y16151143D01*
X-1327500Y15575500D02*
X-1327500Y15520500D01*
X-1355000Y15548000D02*
X-1300000Y15548000D01*
X-956429Y15712286D02*
X-927857Y15712286D01*
X-899286Y15698000D01*
X-885000Y15683714D01*
X-870714Y15655143D01*
X-856429Y15598000D01*
X-856429Y15526571D01*
X-870714Y15469429D01*
X-885000Y15440857D01*
X-899286Y15426571D01*
X-927857Y15412286D01*
X-956429Y15412286D01*
X-985000Y15426571D01*
X-999286Y15440857D01*
X-1013571Y15469429D01*
X-1027857Y15526571D01*
X-1027857Y15598000D01*
X-1013571Y15655143D01*
X-999286Y15683714D01*
X-985000Y15698000D01*
X-956429Y15712286D01*
X-727857Y15440857D02*
X-713571Y15426571D01*
X-727857Y15412286D01*
X-742143Y15426571D01*
X-727857Y15440857D01*
X-727857Y15412286D01*
X-442143Y15712286D02*
X-585000Y15712286D01*
X-599286Y15569429D01*
X-585000Y15583714D01*
X-556429Y15598000D01*
X-485000Y15598000D01*
X-456429Y15583714D01*
X-442143Y15569429D01*
X-427857Y15540857D01*
X-427857Y15469429D01*
X-442143Y15440857D01*
X-456429Y15426571D01*
X-485000Y15412286D01*
X-556429Y15412286D01*
X-585000Y15426571D01*
X-599286Y15440857D01*
X-156429Y15712286D02*
X-299286Y15712286D01*
X-313572Y15569429D01*
X-299286Y15583714D01*
X-270714Y15598000D01*
X-199286Y15598000D01*
X-170714Y15583714D01*
X-156429Y15569429D01*
X-142143Y15540857D01*
X-142143Y15469429D01*
X-156429Y15440857D01*
X-170714Y15426571D01*
X-199286Y15412286D01*
X-270714Y15412286D01*
X-299286Y15426571D01*
X-313572Y15440857D01*
X-13571Y15412286D02*
X-13571Y15612286D01*
X-13571Y15583714D02*
X714Y15598000D01*
X29286Y15612286D01*
X72143Y15612286D01*
X100714Y15598000D01*
X115000Y15569429D01*
X115000Y15412286D01*
X115000Y15569429D02*
X129286Y15598000D01*
X157857Y15612286D01*
X200714Y15612286D01*
X229286Y15598000D01*
X243571Y15569429D01*
X243571Y15412286D01*
X386428Y15412286D02*
X386428Y15612286D01*
X386428Y15583714D02*
X400714Y15598000D01*
X429286Y15612286D01*
X472143Y15612286D01*
X500714Y15598000D01*
X515000Y15569429D01*
X515000Y15412286D01*
X515000Y15569429D02*
X529286Y15598000D01*
X557857Y15612286D01*
X600714Y15612286D01*
X629286Y15598000D01*
X643571Y15569429D01*
X643571Y15412286D01*
X1229286Y15726571D02*
X972143Y15340857D01*
X1615000Y15712286D02*
X1643571Y15712286D01*
X1672143Y15698000D01*
X1686428Y15683714D01*
X1700714Y15655143D01*
X1715000Y15598000D01*
X1715000Y15526571D01*
X1700714Y15469429D01*
X1686428Y15440857D01*
X1672143Y15426571D01*
X1643571Y15412286D01*
X1615000Y15412286D01*
X1586428Y15426571D01*
X1572143Y15440857D01*
X1557857Y15469429D01*
X1543571Y15526571D01*
X1543571Y15598000D01*
X1557857Y15655143D01*
X1572143Y15683714D01*
X1586428Y15698000D01*
X1615000Y15712286D01*
X1843571Y15440857D02*
X1857857Y15426571D01*
X1843571Y15412286D01*
X1829286Y15426571D01*
X1843571Y15440857D01*
X1843571Y15412286D01*
X2043571Y15712286D02*
X2072143Y15712286D01*
X2100714Y15698000D01*
X2115000Y15683714D01*
X2129286Y15655143D01*
X2143571Y15598000D01*
X2143571Y15526571D01*
X2129286Y15469429D01*
X2115000Y15440857D01*
X2100714Y15426571D01*
X2072143Y15412286D01*
X2043571Y15412286D01*
X2015000Y15426571D01*
X2000714Y15440857D01*
X1986428Y15469429D01*
X1972143Y15526571D01*
X1972143Y15598000D01*
X1986428Y15655143D01*
X2000714Y15683714D01*
X2015000Y15698000D01*
X2043571Y15712286D01*
X2257857Y15683714D02*
X2272143Y15698000D01*
X2300714Y15712286D01*
X2372143Y15712286D01*
X2400714Y15698000D01*
X2415000Y15683714D01*
X2429286Y15655143D01*
X2429286Y15626571D01*
X2415000Y15583714D01*
X2243571Y15412286D01*
X2429286Y15412286D01*
X2543571Y15683714D02*
X2557857Y15698000D01*
X2586429Y15712286D01*
X2657857Y15712286D01*
X2686429Y15698000D01*
X2700714Y15683714D01*
X2715000Y15655143D01*
X2715000Y15626571D01*
X2700714Y15583714D01*
X2529286Y15412286D01*
X2715000Y15412286D01*
X2829286Y15712286D02*
X2829286Y15655143D01*
X2943571Y15712286D02*
X2943571Y15655143D01*
X3386428Y15298000D02*
X3372143Y15312286D01*
X3343571Y15355143D01*
X3329286Y15383714D01*
X3315000Y15426571D01*
X3300714Y15498000D01*
X3300714Y15555143D01*
X3315000Y15626571D01*
X3329286Y15669429D01*
X3343571Y15698000D01*
X3372143Y15740857D01*
X3386428Y15755143D01*
X3657857Y15412286D02*
X3486428Y15412286D01*
X3572143Y15412286D02*
X3572143Y15712286D01*
X3543571Y15669429D01*
X3515000Y15640857D01*
X3486428Y15626571D01*
X3800714Y15412286D02*
X3857857Y15412286D01*
X3886428Y15426571D01*
X3900714Y15440857D01*
X3929286Y15483714D01*
X3943571Y15540857D01*
X3943571Y15655143D01*
X3929286Y15683714D01*
X3915000Y15698000D01*
X3886428Y15712286D01*
X3829286Y15712286D01*
X3800714Y15698000D01*
X3786428Y15683714D01*
X3772143Y15655143D01*
X3772143Y15583714D01*
X3786428Y15555143D01*
X3800714Y15540857D01*
X3829286Y15526571D01*
X3886428Y15526571D01*
X3915000Y15540857D01*
X3929286Y15555143D01*
X3943571Y15583714D01*
X4300714Y15412286D02*
X4300714Y15712286D01*
X4429286Y15412286D02*
X4429286Y15569429D01*
X4415000Y15598000D01*
X4386429Y15612286D01*
X4343571Y15612286D01*
X4315000Y15598000D01*
X4300714Y15583714D01*
X4615000Y15412286D02*
X4586429Y15426571D01*
X4572143Y15440857D01*
X4557857Y15469429D01*
X4557857Y15555143D01*
X4572143Y15583714D01*
X4586429Y15598000D01*
X4615000Y15612286D01*
X4657857Y15612286D01*
X4686429Y15598000D01*
X4700714Y15583714D01*
X4715000Y15555143D01*
X4715000Y15469429D01*
X4700714Y15440857D01*
X4686429Y15426571D01*
X4657857Y15412286D01*
X4615000Y15412286D01*
X4886429Y15412286D02*
X4857857Y15426571D01*
X4843571Y15455143D01*
X4843571Y15712286D01*
X5115000Y15426571D02*
X5086429Y15412286D01*
X5029286Y15412286D01*
X5000714Y15426571D01*
X4986429Y15455143D01*
X4986429Y15569429D01*
X5000714Y15598000D01*
X5029286Y15612286D01*
X5086429Y15612286D01*
X5115000Y15598000D01*
X5129286Y15569429D01*
X5129286Y15540857D01*
X4986429Y15512286D01*
X5243571Y15426571D02*
X5272143Y15412286D01*
X5329286Y15412286D01*
X5357857Y15426571D01*
X5372143Y15455143D01*
X5372143Y15469429D01*
X5357857Y15498000D01*
X5329286Y15512286D01*
X5286429Y15512286D01*
X5257857Y15526571D01*
X5243571Y15555143D01*
X5243571Y15569429D01*
X5257857Y15598000D01*
X5286429Y15612286D01*
X5329286Y15612286D01*
X5357857Y15598000D01*
X5472143Y15298000D02*
X5486429Y15312286D01*
X5515000Y15355143D01*
X5529286Y15383714D01*
X5543571Y15426571D01*
X5557857Y15498000D01*
X5557857Y15555143D01*
X5543571Y15626571D01*
X5529286Y15669429D01*
X5515000Y15698000D01*
X5486429Y15740857D01*
X5472143Y15755143D01*
X-1308787Y15130787D02*
X-1308787Y15173213D01*
X-1351213Y15173213D01*
X-1351213Y15130787D01*
X-1308787Y15130787D01*
X-956429Y15316286D02*
X-927857Y15316286D01*
X-899286Y15302000D01*
X-885000Y15287714D01*
X-870714Y15259143D01*
X-856429Y15202000D01*
X-856429Y15130571D01*
X-870714Y15073429D01*
X-885000Y15044857D01*
X-899286Y15030571D01*
X-927857Y15016286D01*
X-956429Y15016286D01*
X-985000Y15030571D01*
X-999286Y15044857D01*
X-1013571Y15073429D01*
X-1027857Y15130571D01*
X-1027857Y15202000D01*
X-1013571Y15259143D01*
X-999286Y15287714D01*
X-985000Y15302000D01*
X-956429Y15316286D01*
X-727857Y15044857D02*
X-713571Y15030571D01*
X-727857Y15016286D01*
X-742143Y15030571D01*
X-727857Y15044857D01*
X-727857Y15016286D01*
X-456429Y15316286D02*
X-513571Y15316286D01*
X-542143Y15302000D01*
X-556429Y15287714D01*
X-585000Y15244857D01*
X-599286Y15187714D01*
X-599286Y15073429D01*
X-585000Y15044857D01*
X-570714Y15030571D01*
X-542143Y15016286D01*
X-485000Y15016286D01*
X-456429Y15030571D01*
X-442143Y15044857D01*
X-427857Y15073429D01*
X-427857Y15144857D01*
X-442143Y15173429D01*
X-456429Y15187714D01*
X-485000Y15202000D01*
X-542143Y15202000D01*
X-570714Y15187714D01*
X-585000Y15173429D01*
X-599286Y15144857D01*
X-242143Y15316286D02*
X-213571Y15316286D01*
X-185000Y15302000D01*
X-170714Y15287714D01*
X-156429Y15259143D01*
X-142143Y15202000D01*
X-142143Y15130571D01*
X-156429Y15073429D01*
X-170714Y15044857D01*
X-185000Y15030571D01*
X-213571Y15016286D01*
X-242143Y15016286D01*
X-270714Y15030571D01*
X-285000Y15044857D01*
X-299286Y15073429D01*
X-313572Y15130571D01*
X-313572Y15202000D01*
X-299286Y15259143D01*
X-285000Y15287714D01*
X-270714Y15302000D01*
X-242143Y15316286D01*
X-13571Y15016286D02*
X-13571Y15216286D01*
X-13571Y15187714D02*
X714Y15202000D01*
X29286Y15216286D01*
X72143Y15216286D01*
X100714Y15202000D01*
X115000Y15173429D01*
X115000Y15016286D01*
X115000Y15173429D02*
X129286Y15202000D01*
X157857Y15216286D01*
X200714Y15216286D01*
X229286Y15202000D01*
X243571Y15173429D01*
X243571Y15016286D01*
X386428Y15016286D02*
X386428Y15216286D01*
X386428Y15187714D02*
X400714Y15202000D01*
X429286Y15216286D01*
X472143Y15216286D01*
X500714Y15202000D01*
X515000Y15173429D01*
X515000Y15016286D01*
X515000Y15173429D02*
X529286Y15202000D01*
X557857Y15216286D01*
X600714Y15216286D01*
X629286Y15202000D01*
X643571Y15173429D01*
X643571Y15016286D01*
X1229286Y15330571D02*
X972143Y14944857D01*
X1615000Y15316286D02*
X1643571Y15316286D01*
X1672143Y15302000D01*
X1686428Y15287714D01*
X1700714Y15259143D01*
X1715000Y15202000D01*
X1715000Y15130571D01*
X1700714Y15073429D01*
X1686428Y15044857D01*
X1672143Y15030571D01*
X1643571Y15016286D01*
X1615000Y15016286D01*
X1586428Y15030571D01*
X1572143Y15044857D01*
X1557857Y15073429D01*
X1543571Y15130571D01*
X1543571Y15202000D01*
X1557857Y15259143D01*
X1572143Y15287714D01*
X1586428Y15302000D01*
X1615000Y15316286D01*
X1843571Y15044857D02*
X1857857Y15030571D01*
X1843571Y15016286D01*
X1829286Y15030571D01*
X1843571Y15044857D01*
X1843571Y15016286D01*
X2043571Y15316286D02*
X2072143Y15316286D01*
X2100714Y15302000D01*
X2115000Y15287714D01*
X2129286Y15259143D01*
X2143571Y15202000D01*
X2143571Y15130571D01*
X2129286Y15073429D01*
X2115000Y15044857D01*
X2100714Y15030571D01*
X2072143Y15016286D01*
X2043571Y15016286D01*
X2015000Y15030571D01*
X2000714Y15044857D01*
X1986428Y15073429D01*
X1972143Y15130571D01*
X1972143Y15202000D01*
X1986428Y15259143D01*
X2000714Y15287714D01*
X2015000Y15302000D01*
X2043571Y15316286D01*
X2257857Y15287714D02*
X2272143Y15302000D01*
X2300714Y15316286D01*
X2372143Y15316286D01*
X2400714Y15302000D01*
X2415000Y15287714D01*
X2429286Y15259143D01*
X2429286Y15230571D01*
X2415000Y15187714D01*
X2243571Y15016286D01*
X2429286Y15016286D01*
X2686429Y15216286D02*
X2686429Y15016286D01*
X2615000Y15330571D02*
X2543571Y15116286D01*
X2729286Y15116286D01*
X2829286Y15316286D02*
X2829286Y15259143D01*
X2943571Y15316286D02*
X2943571Y15259143D01*
X3386428Y14902000D02*
X3372143Y14916286D01*
X3343571Y14959143D01*
X3329286Y14987714D01*
X3315000Y15030571D01*
X3300714Y15102000D01*
X3300714Y15159143D01*
X3315000Y15230571D01*
X3329286Y15273429D01*
X3343571Y15302000D01*
X3372143Y15344857D01*
X3386428Y15359143D01*
X3643571Y15316286D02*
X3500714Y15316286D01*
X3486428Y15173429D01*
X3500714Y15187714D01*
X3529286Y15202000D01*
X3600714Y15202000D01*
X3629286Y15187714D01*
X3643571Y15173429D01*
X3657857Y15144857D01*
X3657857Y15073429D01*
X3643571Y15044857D01*
X3629286Y15030571D01*
X3600714Y15016286D01*
X3529286Y15016286D01*
X3500714Y15030571D01*
X3486428Y15044857D01*
X3772143Y15287714D02*
X3786428Y15302000D01*
X3815000Y15316286D01*
X3886428Y15316286D01*
X3915000Y15302000D01*
X3929286Y15287714D01*
X3943571Y15259143D01*
X3943571Y15230571D01*
X3929286Y15187714D01*
X3757857Y15016286D01*
X3943571Y15016286D01*
X4300714Y15016286D02*
X4300714Y15316286D01*
X4429286Y15016286D02*
X4429286Y15173429D01*
X4415000Y15202000D01*
X4386429Y15216286D01*
X4343571Y15216286D01*
X4315000Y15202000D01*
X4300714Y15187714D01*
X4615000Y15016286D02*
X4586429Y15030571D01*
X4572143Y15044857D01*
X4557857Y15073429D01*
X4557857Y15159143D01*
X4572143Y15187714D01*
X4586429Y15202000D01*
X4615000Y15216286D01*
X4657857Y15216286D01*
X4686429Y15202000D01*
X4700714Y15187714D01*
X4715000Y15159143D01*
X4715000Y15073429D01*
X4700714Y15044857D01*
X4686429Y15030571D01*
X4657857Y15016286D01*
X4615000Y15016286D01*
X4886429Y15016286D02*
X4857857Y15030571D01*
X4843571Y15059143D01*
X4843571Y15316286D01*
X5115000Y15030571D02*
X5086429Y15016286D01*
X5029286Y15016286D01*
X5000714Y15030571D01*
X4986429Y15059143D01*
X4986429Y15173429D01*
X5000714Y15202000D01*
X5029286Y15216286D01*
X5086429Y15216286D01*
X5115000Y15202000D01*
X5129286Y15173429D01*
X5129286Y15144857D01*
X4986429Y15116286D01*
X5243571Y15030571D02*
X5272143Y15016286D01*
X5329286Y15016286D01*
X5357857Y15030571D01*
X5372143Y15059143D01*
X5372143Y15073429D01*
X5357857Y15102000D01*
X5329286Y15116286D01*
X5286429Y15116286D01*
X5257857Y15130571D01*
X5243571Y15159143D01*
X5243571Y15173429D01*
X5257857Y15202000D01*
X5286429Y15216286D01*
X5329286Y15216286D01*
X5357857Y15202000D01*
X5472143Y14902000D02*
X5486429Y14916286D01*
X5515000Y14959143D01*
X5529286Y14987714D01*
X5543571Y15030571D01*
X5557857Y15102000D01*
X5557857Y15159143D01*
X5543571Y15230571D01*
X5529286Y15273429D01*
X5515000Y15302000D01*
X5486429Y15344857D01*
X5472143Y15359143D01*
X-1338100Y14717900D02*
X-1300000Y14756000D01*
X-1338100Y14794100D01*
X-1376200Y14756000D01*
X-1338100Y14717900D01*
X-956429Y14920286D02*
X-927857Y14920286D01*
X-899286Y14906000D01*
X-885000Y14891714D01*
X-870714Y14863143D01*
X-856429Y14806000D01*
X-856429Y14734571D01*
X-870714Y14677429D01*
X-885000Y14648857D01*
X-899286Y14634571D01*
X-927857Y14620286D01*
X-956429Y14620286D01*
X-985000Y14634571D01*
X-999286Y14648857D01*
X-1013571Y14677429D01*
X-1027857Y14734571D01*
X-1027857Y14806000D01*
X-1013571Y14863143D01*
X-999286Y14891714D01*
X-985000Y14906000D01*
X-956429Y14920286D01*
X-727857Y14648857D02*
X-713571Y14634571D01*
X-727857Y14620286D01*
X-742143Y14634571D01*
X-727857Y14648857D01*
X-727857Y14620286D01*
X-613572Y14920286D02*
X-413571Y14920286D01*
X-542143Y14620286D01*
X-170714Y14920286D02*
X-227857Y14920286D01*
X-256429Y14906000D01*
X-270714Y14891714D01*
X-299286Y14848857D01*
X-313572Y14791714D01*
X-313572Y14677429D01*
X-299286Y14648857D01*
X-285000Y14634571D01*
X-256429Y14620286D01*
X-199286Y14620286D01*
X-170714Y14634571D01*
X-156429Y14648857D01*
X-142143Y14677429D01*
X-142143Y14748857D01*
X-156429Y14777429D01*
X-170714Y14791714D01*
X-199286Y14806000D01*
X-256429Y14806000D01*
X-285000Y14791714D01*
X-299286Y14777429D01*
X-313572Y14748857D01*
X-13571Y14620286D02*
X-13571Y14820286D01*
X-13571Y14791714D02*
X714Y14806000D01*
X29286Y14820286D01*
X72143Y14820286D01*
X100714Y14806000D01*
X115000Y14777429D01*
X115000Y14620286D01*
X115000Y14777429D02*
X129286Y14806000D01*
X157857Y14820286D01*
X200714Y14820286D01*
X229286Y14806000D01*
X243571Y14777429D01*
X243571Y14620286D01*
X386428Y14620286D02*
X386428Y14820286D01*
X386428Y14791714D02*
X400714Y14806000D01*
X429286Y14820286D01*
X472143Y14820286D01*
X500714Y14806000D01*
X515000Y14777429D01*
X515000Y14620286D01*
X515000Y14777429D02*
X529286Y14806000D01*
X557857Y14820286D01*
X600714Y14820286D01*
X629286Y14806000D01*
X643571Y14777429D01*
X643571Y14620286D01*
X1229286Y14934571D02*
X972143Y14548857D01*
X1615000Y14920286D02*
X1643571Y14920286D01*
X1672143Y14906000D01*
X1686428Y14891714D01*
X1700714Y14863143D01*
X1715000Y14806000D01*
X1715000Y14734571D01*
X1700714Y14677429D01*
X1686428Y14648857D01*
X1672143Y14634571D01*
X1643571Y14620286D01*
X1615000Y14620286D01*
X1586428Y14634571D01*
X1572143Y14648857D01*
X1557857Y14677429D01*
X1543571Y14734571D01*
X1543571Y14806000D01*
X1557857Y14863143D01*
X1572143Y14891714D01*
X1586428Y14906000D01*
X1615000Y14920286D01*
X1843571Y14648857D02*
X1857857Y14634571D01*
X1843571Y14620286D01*
X1829286Y14634571D01*
X1843571Y14648857D01*
X1843571Y14620286D01*
X2043571Y14920286D02*
X2072143Y14920286D01*
X2100714Y14906000D01*
X2115000Y14891714D01*
X2129286Y14863143D01*
X2143571Y14806000D01*
X2143571Y14734571D01*
X2129286Y14677429D01*
X2115000Y14648857D01*
X2100714Y14634571D01*
X2072143Y14620286D01*
X2043571Y14620286D01*
X2015000Y14634571D01*
X2000714Y14648857D01*
X1986428Y14677429D01*
X1972143Y14734571D01*
X1972143Y14806000D01*
X1986428Y14863143D01*
X2000714Y14891714D01*
X2015000Y14906000D01*
X2043571Y14920286D01*
X2243571Y14920286D02*
X2429286Y14920286D01*
X2329286Y14806000D01*
X2372143Y14806000D01*
X2400714Y14791714D01*
X2415000Y14777429D01*
X2429286Y14748857D01*
X2429286Y14677429D01*
X2415000Y14648857D01*
X2400714Y14634571D01*
X2372143Y14620286D01*
X2286429Y14620286D01*
X2257857Y14634571D01*
X2243571Y14648857D01*
X2615000Y14920286D02*
X2643571Y14920286D01*
X2672143Y14906000D01*
X2686429Y14891714D01*
X2700714Y14863143D01*
X2715000Y14806000D01*
X2715000Y14734571D01*
X2700714Y14677429D01*
X2686429Y14648857D01*
X2672143Y14634571D01*
X2643571Y14620286D01*
X2615000Y14620286D01*
X2586429Y14634571D01*
X2572143Y14648857D01*
X2557857Y14677429D01*
X2543571Y14734571D01*
X2543571Y14806000D01*
X2557857Y14863143D01*
X2572143Y14891714D01*
X2586429Y14906000D01*
X2615000Y14920286D01*
X2829286Y14920286D02*
X2829286Y14863143D01*
X2943571Y14920286D02*
X2943571Y14863143D01*
X3386428Y14506000D02*
X3372143Y14520286D01*
X3343571Y14563143D01*
X3329286Y14591714D01*
X3315000Y14634571D01*
X3300714Y14706000D01*
X3300714Y14763143D01*
X3315000Y14834571D01*
X3329286Y14877429D01*
X3343571Y14906000D01*
X3372143Y14948857D01*
X3386428Y14963143D01*
X3629286Y14820286D02*
X3629286Y14620286D01*
X3557857Y14934571D02*
X3486428Y14720286D01*
X3672143Y14720286D01*
X3829286Y14791714D02*
X3800714Y14806000D01*
X3786428Y14820286D01*
X3772143Y14848857D01*
X3772143Y14863143D01*
X3786428Y14891714D01*
X3800714Y14906000D01*
X3829286Y14920286D01*
X3886428Y14920286D01*
X3915000Y14906000D01*
X3929286Y14891714D01*
X3943571Y14863143D01*
X3943571Y14848857D01*
X3929286Y14820286D01*
X3915000Y14806000D01*
X3886428Y14791714D01*
X3829286Y14791714D01*
X3800714Y14777429D01*
X3786428Y14763143D01*
X3772143Y14734571D01*
X3772143Y14677429D01*
X3786428Y14648857D01*
X3800714Y14634571D01*
X3829286Y14620286D01*
X3886428Y14620286D01*
X3915000Y14634571D01*
X3929286Y14648857D01*
X3943571Y14677429D01*
X3943571Y14734571D01*
X3929286Y14763143D01*
X3915000Y14777429D01*
X3886428Y14791714D01*
X4300714Y14620286D02*
X4300714Y14920286D01*
X4429286Y14620286D02*
X4429286Y14777429D01*
X4415000Y14806000D01*
X4386429Y14820286D01*
X4343571Y14820286D01*
X4315000Y14806000D01*
X4300714Y14791714D01*
X4615000Y14620286D02*
X4586429Y14634571D01*
X4572143Y14648857D01*
X4557857Y14677429D01*
X4557857Y14763143D01*
X4572143Y14791714D01*
X4586429Y14806000D01*
X4615000Y14820286D01*
X4657857Y14820286D01*
X4686429Y14806000D01*
X4700714Y14791714D01*
X4715000Y14763143D01*
X4715000Y14677429D01*
X4700714Y14648857D01*
X4686429Y14634571D01*
X4657857Y14620286D01*
X4615000Y14620286D01*
X4886429Y14620286D02*
X4857857Y14634571D01*
X4843571Y14663143D01*
X4843571Y14920286D01*
X5115000Y14634571D02*
X5086429Y14620286D01*
X5029286Y14620286D01*
X5000714Y14634571D01*
X4986429Y14663143D01*
X4986429Y14777429D01*
X5000714Y14806000D01*
X5029286Y14820286D01*
X5086429Y14820286D01*
X5115000Y14806000D01*
X5129286Y14777429D01*
X5129286Y14748857D01*
X4986429Y14720286D01*
X5243571Y14634571D02*
X5272143Y14620286D01*
X5329286Y14620286D01*
X5357857Y14634571D01*
X5372143Y14663143D01*
X5372143Y14677429D01*
X5357857Y14706000D01*
X5329286Y14720286D01*
X5286429Y14720286D01*
X5257857Y14734571D01*
X5243571Y14763143D01*
X5243571Y14777429D01*
X5257857Y14806000D01*
X5286429Y14820286D01*
X5329286Y14820286D01*
X5357857Y14806000D01*
X5472143Y14506000D02*
X5486429Y14520286D01*
X5515000Y14563143D01*
X5529286Y14591714D01*
X5543571Y14634571D01*
X5557857Y14706000D01*
X5557857Y14763143D01*
X5543571Y14834571D01*
X5529286Y14877429D01*
X5515000Y14906000D01*
X5486429Y14948857D01*
X5472143Y14963143D01*
X-1385000Y14402500D02*
X-1300000Y14317500D01*
X-1300000Y14402500D02*
X-1385000Y14317500D01*
X-1300000Y14360000D02*
G75*
G03*
X-1300000Y14360000I-42500J0D01*
G01*
X-956429Y14524286D02*
X-927857Y14524286D01*
X-899286Y14510000D01*
X-885000Y14495714D01*
X-870714Y14467143D01*
X-856429Y14410000D01*
X-856429Y14338571D01*
X-870714Y14281429D01*
X-885000Y14252857D01*
X-899286Y14238571D01*
X-927857Y14224286D01*
X-956429Y14224286D01*
X-985000Y14238571D01*
X-999286Y14252857D01*
X-1013571Y14281429D01*
X-1027857Y14338571D01*
X-1027857Y14410000D01*
X-1013571Y14467143D01*
X-999286Y14495714D01*
X-985000Y14510000D01*
X-956429Y14524286D01*
X-727857Y14252857D02*
X-713571Y14238571D01*
X-727857Y14224286D01*
X-742143Y14238571D01*
X-727857Y14252857D01*
X-727857Y14224286D01*
X-542143Y14395714D02*
X-570714Y14410000D01*
X-585000Y14424286D01*
X-599286Y14452857D01*
X-599286Y14467143D01*
X-585000Y14495714D01*
X-570714Y14510000D01*
X-542143Y14524286D01*
X-485000Y14524286D01*
X-456429Y14510000D01*
X-442143Y14495714D01*
X-427857Y14467143D01*
X-427857Y14452857D01*
X-442143Y14424286D01*
X-456429Y14410000D01*
X-485000Y14395714D01*
X-542143Y14395714D01*
X-570714Y14381429D01*
X-585000Y14367143D01*
X-599286Y14338571D01*
X-599286Y14281429D01*
X-585000Y14252857D01*
X-570714Y14238571D01*
X-542143Y14224286D01*
X-485000Y14224286D01*
X-456429Y14238571D01*
X-442143Y14252857D01*
X-427857Y14281429D01*
X-427857Y14338571D01*
X-442143Y14367143D01*
X-456429Y14381429D01*
X-485000Y14395714D01*
X-156429Y14524286D02*
X-299286Y14524286D01*
X-313572Y14381429D01*
X-299286Y14395714D01*
X-270714Y14410000D01*
X-199286Y14410000D01*
X-170714Y14395714D01*
X-156429Y14381429D01*
X-142143Y14352857D01*
X-142143Y14281429D01*
X-156429Y14252857D01*
X-170714Y14238571D01*
X-199286Y14224286D01*
X-270714Y14224286D01*
X-299286Y14238571D01*
X-313572Y14252857D01*
X-13571Y14224286D02*
X-13571Y14424286D01*
X-13571Y14395714D02*
X714Y14410000D01*
X29286Y14424286D01*
X72143Y14424286D01*
X100714Y14410000D01*
X115000Y14381429D01*
X115000Y14224286D01*
X115000Y14381429D02*
X129286Y14410000D01*
X157857Y14424286D01*
X200714Y14424286D01*
X229286Y14410000D01*
X243571Y14381429D01*
X243571Y14224286D01*
X386428Y14224286D02*
X386428Y14424286D01*
X386428Y14395714D02*
X400714Y14410000D01*
X429286Y14424286D01*
X472143Y14424286D01*
X500714Y14410000D01*
X515000Y14381429D01*
X515000Y14224286D01*
X515000Y14381429D02*
X529286Y14410000D01*
X557857Y14424286D01*
X600714Y14424286D01*
X629286Y14410000D01*
X643571Y14381429D01*
X643571Y14224286D01*
X1229286Y14538571D02*
X972143Y14152857D01*
X1615000Y14524286D02*
X1643571Y14524286D01*
X1672143Y14510000D01*
X1686428Y14495714D01*
X1700714Y14467143D01*
X1715000Y14410000D01*
X1715000Y14338571D01*
X1700714Y14281429D01*
X1686428Y14252857D01*
X1672143Y14238571D01*
X1643571Y14224286D01*
X1615000Y14224286D01*
X1586428Y14238571D01*
X1572143Y14252857D01*
X1557857Y14281429D01*
X1543571Y14338571D01*
X1543571Y14410000D01*
X1557857Y14467143D01*
X1572143Y14495714D01*
X1586428Y14510000D01*
X1615000Y14524286D01*
X1843571Y14252857D02*
X1857857Y14238571D01*
X1843571Y14224286D01*
X1829286Y14238571D01*
X1843571Y14252857D01*
X1843571Y14224286D01*
X2043571Y14524286D02*
X2072143Y14524286D01*
X2100714Y14510000D01*
X2115000Y14495714D01*
X2129286Y14467143D01*
X2143571Y14410000D01*
X2143571Y14338571D01*
X2129286Y14281429D01*
X2115000Y14252857D01*
X2100714Y14238571D01*
X2072143Y14224286D01*
X2043571Y14224286D01*
X2015000Y14238571D01*
X2000714Y14252857D01*
X1986428Y14281429D01*
X1972143Y14338571D01*
X1972143Y14410000D01*
X1986428Y14467143D01*
X2000714Y14495714D01*
X2015000Y14510000D01*
X2043571Y14524286D01*
X2243571Y14524286D02*
X2429286Y14524286D01*
X2329286Y14410000D01*
X2372143Y14410000D01*
X2400714Y14395714D01*
X2415000Y14381429D01*
X2429286Y14352857D01*
X2429286Y14281429D01*
X2415000Y14252857D01*
X2400714Y14238571D01*
X2372143Y14224286D01*
X2286429Y14224286D01*
X2257857Y14238571D01*
X2243571Y14252857D01*
X2529286Y14524286D02*
X2715000Y14524286D01*
X2615000Y14410000D01*
X2657857Y14410000D01*
X2686429Y14395714D01*
X2700714Y14381429D01*
X2715000Y14352857D01*
X2715000Y14281429D01*
X2700714Y14252857D01*
X2686429Y14238571D01*
X2657857Y14224286D01*
X2572143Y14224286D01*
X2543571Y14238571D01*
X2529286Y14252857D01*
X2829286Y14524286D02*
X2829286Y14467143D01*
X2943571Y14524286D02*
X2943571Y14467143D01*
X3386428Y14110000D02*
X3372143Y14124286D01*
X3343571Y14167143D01*
X3329286Y14195714D01*
X3315000Y14238571D01*
X3300714Y14310000D01*
X3300714Y14367143D01*
X3315000Y14438571D01*
X3329286Y14481429D01*
X3343571Y14510000D01*
X3372143Y14552857D01*
X3386428Y14567143D01*
X3472143Y14524286D02*
X3657857Y14524286D01*
X3557857Y14410000D01*
X3600714Y14410000D01*
X3629286Y14395714D01*
X3643571Y14381429D01*
X3657857Y14352857D01*
X3657857Y14281429D01*
X3643571Y14252857D01*
X3629286Y14238571D01*
X3600714Y14224286D01*
X3515000Y14224286D01*
X3486428Y14238571D01*
X3472143Y14252857D01*
X3843571Y14524286D02*
X3872143Y14524286D01*
X3900714Y14510000D01*
X3915000Y14495714D01*
X3929286Y14467143D01*
X3943571Y14410000D01*
X3943571Y14338571D01*
X3929286Y14281429D01*
X3915000Y14252857D01*
X3900714Y14238571D01*
X3872143Y14224286D01*
X3843571Y14224286D01*
X3815000Y14238571D01*
X3800714Y14252857D01*
X3786428Y14281429D01*
X3772143Y14338571D01*
X3772143Y14410000D01*
X3786428Y14467143D01*
X3800714Y14495714D01*
X3815000Y14510000D01*
X3843571Y14524286D01*
X4300714Y14224286D02*
X4300714Y14524286D01*
X4429286Y14224286D02*
X4429286Y14381429D01*
X4415000Y14410000D01*
X4386429Y14424286D01*
X4343571Y14424286D01*
X4315000Y14410000D01*
X4300714Y14395714D01*
X4615000Y14224286D02*
X4586429Y14238571D01*
X4572143Y14252857D01*
X4557857Y14281429D01*
X4557857Y14367143D01*
X4572143Y14395714D01*
X4586429Y14410000D01*
X4615000Y14424286D01*
X4657857Y14424286D01*
X4686429Y14410000D01*
X4700714Y14395714D01*
X4715000Y14367143D01*
X4715000Y14281429D01*
X4700714Y14252857D01*
X4686429Y14238571D01*
X4657857Y14224286D01*
X4615000Y14224286D01*
X4886429Y14224286D02*
X4857857Y14238571D01*
X4843571Y14267143D01*
X4843571Y14524286D01*
X5115000Y14238571D02*
X5086429Y14224286D01*
X5029286Y14224286D01*
X5000714Y14238571D01*
X4986429Y14267143D01*
X4986429Y14381429D01*
X5000714Y14410000D01*
X5029286Y14424286D01*
X5086429Y14424286D01*
X5115000Y14410000D01*
X5129286Y14381429D01*
X5129286Y14352857D01*
X4986429Y14324286D01*
X5243571Y14238571D02*
X5272143Y14224286D01*
X5329286Y14224286D01*
X5357857Y14238571D01*
X5372143Y14267143D01*
X5372143Y14281429D01*
X5357857Y14310000D01*
X5329286Y14324286D01*
X5286429Y14324286D01*
X5257857Y14338571D01*
X5243571Y14367143D01*
X5243571Y14381429D01*
X5257857Y14410000D01*
X5286429Y14424286D01*
X5329286Y14424286D01*
X5357857Y14410000D01*
X5472143Y14110000D02*
X5486429Y14124286D01*
X5515000Y14167143D01*
X5529286Y14195714D01*
X5543571Y14238571D01*
X5557857Y14310000D01*
X5557857Y14367143D01*
X5543571Y14438571D01*
X5529286Y14481429D01*
X5515000Y14510000D01*
X5486429Y14552857D01*
X5472143Y14567143D01*
X-1400000Y14014000D02*
X-1300000Y13914000D01*
X-1300000Y14014000D02*
X-1400000Y13914000D01*
X-1350000Y14014000D02*
X-1350000Y13914000D01*
X-1400000Y13964000D02*
X-1300000Y13964000D01*
X-856429Y13828286D02*
X-1027857Y13828286D01*
X-942143Y13828286D02*
X-942143Y14128286D01*
X-970714Y14085429D01*
X-999286Y14056857D01*
X-1027857Y14042571D01*
X-727857Y13856857D02*
X-713571Y13842571D01*
X-727857Y13828286D01*
X-742143Y13842571D01*
X-727857Y13856857D01*
X-727857Y13828286D01*
X-527857Y14128286D02*
X-499286Y14128286D01*
X-470714Y14114000D01*
X-456429Y14099714D01*
X-442143Y14071143D01*
X-427857Y14014000D01*
X-427857Y13942571D01*
X-442143Y13885429D01*
X-456429Y13856857D01*
X-470714Y13842571D01*
X-499286Y13828286D01*
X-527857Y13828286D01*
X-556429Y13842571D01*
X-570714Y13856857D01*
X-585000Y13885429D01*
X-599286Y13942571D01*
X-599286Y14014000D01*
X-585000Y14071143D01*
X-570714Y14099714D01*
X-556429Y14114000D01*
X-527857Y14128286D01*
X-242143Y14128286D02*
X-213571Y14128286D01*
X-185000Y14114000D01*
X-170714Y14099714D01*
X-156429Y14071143D01*
X-142143Y14014000D01*
X-142143Y13942571D01*
X-156429Y13885429D01*
X-170714Y13856857D01*
X-185000Y13842571D01*
X-213571Y13828286D01*
X-242143Y13828286D01*
X-270714Y13842571D01*
X-285000Y13856857D01*
X-299286Y13885429D01*
X-313572Y13942571D01*
X-313572Y14014000D01*
X-299286Y14071143D01*
X-285000Y14099714D01*
X-270714Y14114000D01*
X-242143Y14128286D01*
X-13571Y13828286D02*
X-13571Y14028286D01*
X-13571Y13999714D02*
X714Y14014000D01*
X29286Y14028286D01*
X72143Y14028286D01*
X100714Y14014000D01*
X115000Y13985429D01*
X115000Y13828286D01*
X115000Y13985429D02*
X129286Y14014000D01*
X157857Y14028286D01*
X200714Y14028286D01*
X229286Y14014000D01*
X243571Y13985429D01*
X243571Y13828286D01*
X386428Y13828286D02*
X386428Y14028286D01*
X386428Y13999714D02*
X400714Y14014000D01*
X429286Y14028286D01*
X472143Y14028286D01*
X500714Y14014000D01*
X515000Y13985429D01*
X515000Y13828286D01*
X515000Y13985429D02*
X529286Y14014000D01*
X557857Y14028286D01*
X600714Y14028286D01*
X629286Y14014000D01*
X643571Y13985429D01*
X643571Y13828286D01*
X1229286Y14142571D02*
X972143Y13756857D01*
X1615000Y14128286D02*
X1643571Y14128286D01*
X1672143Y14114000D01*
X1686428Y14099714D01*
X1700714Y14071143D01*
X1715000Y14014000D01*
X1715000Y13942571D01*
X1700714Y13885429D01*
X1686428Y13856857D01*
X1672143Y13842571D01*
X1643571Y13828286D01*
X1615000Y13828286D01*
X1586428Y13842571D01*
X1572143Y13856857D01*
X1557857Y13885429D01*
X1543571Y13942571D01*
X1543571Y14014000D01*
X1557857Y14071143D01*
X1572143Y14099714D01*
X1586428Y14114000D01*
X1615000Y14128286D01*
X1843571Y13856857D02*
X1857857Y13842571D01*
X1843571Y13828286D01*
X1829286Y13842571D01*
X1843571Y13856857D01*
X1843571Y13828286D01*
X2043571Y14128286D02*
X2072143Y14128286D01*
X2100714Y14114000D01*
X2115000Y14099714D01*
X2129286Y14071143D01*
X2143571Y14014000D01*
X2143571Y13942571D01*
X2129286Y13885429D01*
X2115000Y13856857D01*
X2100714Y13842571D01*
X2072143Y13828286D01*
X2043571Y13828286D01*
X2015000Y13842571D01*
X2000714Y13856857D01*
X1986428Y13885429D01*
X1972143Y13942571D01*
X1972143Y14014000D01*
X1986428Y14071143D01*
X2000714Y14099714D01*
X2015000Y14114000D01*
X2043571Y14128286D01*
X2243571Y14128286D02*
X2429286Y14128286D01*
X2329286Y14014000D01*
X2372143Y14014000D01*
X2400714Y13999714D01*
X2415000Y13985429D01*
X2429286Y13956857D01*
X2429286Y13885429D01*
X2415000Y13856857D01*
X2400714Y13842571D01*
X2372143Y13828286D01*
X2286429Y13828286D01*
X2257857Y13842571D01*
X2243571Y13856857D01*
X2572143Y13828286D02*
X2629286Y13828286D01*
X2657857Y13842571D01*
X2672143Y13856857D01*
X2700714Y13899714D01*
X2715000Y13956857D01*
X2715000Y14071143D01*
X2700714Y14099714D01*
X2686429Y14114000D01*
X2657857Y14128286D01*
X2600714Y14128286D01*
X2572143Y14114000D01*
X2557857Y14099714D01*
X2543571Y14071143D01*
X2543571Y13999714D01*
X2557857Y13971143D01*
X2572143Y13956857D01*
X2600714Y13942571D01*
X2657857Y13942571D01*
X2686429Y13956857D01*
X2700714Y13971143D01*
X2715000Y13999714D01*
X2829286Y14128286D02*
X2829286Y14071143D01*
X2943571Y14128286D02*
X2943571Y14071143D01*
X3386428Y13714000D02*
X3372143Y13728286D01*
X3343571Y13771143D01*
X3329286Y13799714D01*
X3315000Y13842571D01*
X3300714Y13914000D01*
X3300714Y13971143D01*
X3315000Y14042571D01*
X3329286Y14085429D01*
X3343571Y14114000D01*
X3372143Y14156857D01*
X3386428Y14171143D01*
X3643571Y14128286D02*
X3500714Y14128286D01*
X3486428Y13985429D01*
X3500714Y13999714D01*
X3529286Y14014000D01*
X3600714Y14014000D01*
X3629286Y13999714D01*
X3643571Y13985429D01*
X3657857Y13956857D01*
X3657857Y13885429D01*
X3643571Y13856857D01*
X3629286Y13842571D01*
X3600714Y13828286D01*
X3529286Y13828286D01*
X3500714Y13842571D01*
X3486428Y13856857D01*
X3943571Y13828286D02*
X3772143Y13828286D01*
X3857857Y13828286D02*
X3857857Y14128286D01*
X3829286Y14085429D01*
X3800714Y14056857D01*
X3772143Y14042571D01*
X4300714Y13828286D02*
X4300714Y14128286D01*
X4429286Y13828286D02*
X4429286Y13985429D01*
X4415000Y14014000D01*
X4386429Y14028286D01*
X4343571Y14028286D01*
X4315000Y14014000D01*
X4300714Y13999714D01*
X4615000Y13828286D02*
X4586429Y13842571D01*
X4572143Y13856857D01*
X4557857Y13885429D01*
X4557857Y13971143D01*
X4572143Y13999714D01*
X4586429Y14014000D01*
X4615000Y14028286D01*
X4657857Y14028286D01*
X4686429Y14014000D01*
X4700714Y13999714D01*
X4715000Y13971143D01*
X4715000Y13885429D01*
X4700714Y13856857D01*
X4686429Y13842571D01*
X4657857Y13828286D01*
X4615000Y13828286D01*
X4886429Y13828286D02*
X4857857Y13842571D01*
X4843571Y13871143D01*
X4843571Y14128286D01*
X5115000Y13842571D02*
X5086429Y13828286D01*
X5029286Y13828286D01*
X5000714Y13842571D01*
X4986429Y13871143D01*
X4986429Y13985429D01*
X5000714Y14014000D01*
X5029286Y14028286D01*
X5086429Y14028286D01*
X5115000Y14014000D01*
X5129286Y13985429D01*
X5129286Y13956857D01*
X4986429Y13928286D01*
X5243571Y13842571D02*
X5272143Y13828286D01*
X5329286Y13828286D01*
X5357857Y13842571D01*
X5372143Y13871143D01*
X5372143Y13885429D01*
X5357857Y13914000D01*
X5329286Y13928286D01*
X5286429Y13928286D01*
X5257857Y13942571D01*
X5243571Y13971143D01*
X5243571Y13985429D01*
X5257857Y14014000D01*
X5286429Y14028286D01*
X5329286Y14028286D01*
X5357857Y14014000D01*
X5472143Y13714000D02*
X5486429Y13728286D01*
X5515000Y13771143D01*
X5529286Y13799714D01*
X5543571Y13842571D01*
X5557857Y13914000D01*
X5557857Y13971143D01*
X5543571Y14042571D01*
X5529286Y14085429D01*
X5515000Y14114000D01*
X5486429Y14156857D01*
X5472143Y14171143D01*
X-1410000Y13623000D02*
X-1300000Y13513000D01*
X-1300000Y13623000D02*
X-1410000Y13513000D01*
X-1316109Y13529109D02*
X-1316109Y13606891D01*
X-1393891Y13606891D01*
X-1393891Y13529109D01*
X-1316109Y13529109D01*
X-856429Y13432286D02*
X-1027857Y13432286D01*
X-942143Y13432286D02*
X-942143Y13732286D01*
X-970714Y13689429D01*
X-999286Y13660857D01*
X-1027857Y13646571D01*
X-727857Y13460857D02*
X-713571Y13446571D01*
X-727857Y13432286D01*
X-742143Y13446571D01*
X-727857Y13460857D01*
X-727857Y13432286D01*
X-427857Y13432286D02*
X-599286Y13432286D01*
X-513571Y13432286D02*
X-513571Y13732286D01*
X-542143Y13689429D01*
X-570714Y13660857D01*
X-599286Y13646571D01*
X-242143Y13732286D02*
X-213571Y13732286D01*
X-185000Y13718000D01*
X-170714Y13703714D01*
X-156429Y13675143D01*
X-142143Y13618000D01*
X-142143Y13546571D01*
X-156429Y13489429D01*
X-170714Y13460857D01*
X-185000Y13446571D01*
X-213571Y13432286D01*
X-242143Y13432286D01*
X-270714Y13446571D01*
X-285000Y13460857D01*
X-299286Y13489429D01*
X-313572Y13546571D01*
X-313572Y13618000D01*
X-299286Y13675143D01*
X-285000Y13703714D01*
X-270714Y13718000D01*
X-242143Y13732286D01*
X-13571Y13432286D02*
X-13571Y13632286D01*
X-13571Y13603714D02*
X714Y13618000D01*
X29286Y13632286D01*
X72143Y13632286D01*
X100714Y13618000D01*
X115000Y13589429D01*
X115000Y13432286D01*
X115000Y13589429D02*
X129286Y13618000D01*
X157857Y13632286D01*
X200714Y13632286D01*
X229286Y13618000D01*
X243571Y13589429D01*
X243571Y13432286D01*
X386428Y13432286D02*
X386428Y13632286D01*
X386428Y13603714D02*
X400714Y13618000D01*
X429286Y13632286D01*
X472143Y13632286D01*
X500714Y13618000D01*
X515000Y13589429D01*
X515000Y13432286D01*
X515000Y13589429D02*
X529286Y13618000D01*
X557857Y13632286D01*
X600714Y13632286D01*
X629286Y13618000D01*
X643571Y13589429D01*
X643571Y13432286D01*
X1229286Y13746571D02*
X972143Y13360857D01*
X1615000Y13732286D02*
X1643571Y13732286D01*
X1672143Y13718000D01*
X1686428Y13703714D01*
X1700714Y13675143D01*
X1715000Y13618000D01*
X1715000Y13546571D01*
X1700714Y13489429D01*
X1686428Y13460857D01*
X1672143Y13446571D01*
X1643571Y13432286D01*
X1615000Y13432286D01*
X1586428Y13446571D01*
X1572143Y13460857D01*
X1557857Y13489429D01*
X1543571Y13546571D01*
X1543571Y13618000D01*
X1557857Y13675143D01*
X1572143Y13703714D01*
X1586428Y13718000D01*
X1615000Y13732286D01*
X1843571Y13460857D02*
X1857857Y13446571D01*
X1843571Y13432286D01*
X1829286Y13446571D01*
X1843571Y13460857D01*
X1843571Y13432286D01*
X2043571Y13732286D02*
X2072143Y13732286D01*
X2100714Y13718000D01*
X2115000Y13703714D01*
X2129286Y13675143D01*
X2143571Y13618000D01*
X2143571Y13546571D01*
X2129286Y13489429D01*
X2115000Y13460857D01*
X2100714Y13446571D01*
X2072143Y13432286D01*
X2043571Y13432286D01*
X2015000Y13446571D01*
X2000714Y13460857D01*
X1986428Y13489429D01*
X1972143Y13546571D01*
X1972143Y13618000D01*
X1986428Y13675143D01*
X2000714Y13703714D01*
X2015000Y13718000D01*
X2043571Y13732286D01*
X2400714Y13632286D02*
X2400714Y13432286D01*
X2329286Y13746571D02*
X2257857Y13532286D01*
X2443571Y13532286D01*
X2529286Y13732286D02*
X2715000Y13732286D01*
X2615000Y13618000D01*
X2657857Y13618000D01*
X2686429Y13603714D01*
X2700714Y13589429D01*
X2715000Y13560857D01*
X2715000Y13489429D01*
X2700714Y13460857D01*
X2686429Y13446571D01*
X2657857Y13432286D01*
X2572143Y13432286D01*
X2543571Y13446571D01*
X2529286Y13460857D01*
X2829286Y13732286D02*
X2829286Y13675143D01*
X2943571Y13732286D02*
X2943571Y13675143D01*
X3386428Y13318000D02*
X3372143Y13332286D01*
X3343571Y13375143D01*
X3329286Y13403714D01*
X3315000Y13446571D01*
X3300714Y13518000D01*
X3300714Y13575143D01*
X3315000Y13646571D01*
X3329286Y13689429D01*
X3343571Y13718000D01*
X3372143Y13760857D01*
X3386428Y13775143D01*
X3486428Y13703714D02*
X3500714Y13718000D01*
X3529286Y13732286D01*
X3600714Y13732286D01*
X3629286Y13718000D01*
X3643571Y13703714D01*
X3657857Y13675143D01*
X3657857Y13646571D01*
X3643571Y13603714D01*
X3472143Y13432286D01*
X3657857Y13432286D01*
X3829286Y13603714D02*
X3800714Y13618000D01*
X3786428Y13632286D01*
X3772143Y13660857D01*
X3772143Y13675143D01*
X3786428Y13703714D01*
X3800714Y13718000D01*
X3829286Y13732286D01*
X3886428Y13732286D01*
X3915000Y13718000D01*
X3929286Y13703714D01*
X3943571Y13675143D01*
X3943571Y13660857D01*
X3929286Y13632286D01*
X3915000Y13618000D01*
X3886428Y13603714D01*
X3829286Y13603714D01*
X3800714Y13589429D01*
X3786428Y13575143D01*
X3772143Y13546571D01*
X3772143Y13489429D01*
X3786428Y13460857D01*
X3800714Y13446571D01*
X3829286Y13432286D01*
X3886428Y13432286D01*
X3915000Y13446571D01*
X3929286Y13460857D01*
X3943571Y13489429D01*
X3943571Y13546571D01*
X3929286Y13575143D01*
X3915000Y13589429D01*
X3886428Y13603714D01*
X4300714Y13432286D02*
X4300714Y13732286D01*
X4429286Y13432286D02*
X4429286Y13589429D01*
X4415000Y13618000D01*
X4386429Y13632286D01*
X4343571Y13632286D01*
X4315000Y13618000D01*
X4300714Y13603714D01*
X4615000Y13432286D02*
X4586429Y13446571D01*
X4572143Y13460857D01*
X4557857Y13489429D01*
X4557857Y13575143D01*
X4572143Y13603714D01*
X4586429Y13618000D01*
X4615000Y13632286D01*
X4657857Y13632286D01*
X4686429Y13618000D01*
X4700714Y13603714D01*
X4715000Y13575143D01*
X4715000Y13489429D01*
X4700714Y13460857D01*
X4686429Y13446571D01*
X4657857Y13432286D01*
X4615000Y13432286D01*
X4886429Y13432286D02*
X4857857Y13446571D01*
X4843571Y13475143D01*
X4843571Y13732286D01*
X5115000Y13446571D02*
X5086429Y13432286D01*
X5029286Y13432286D01*
X5000714Y13446571D01*
X4986429Y13475143D01*
X4986429Y13589429D01*
X5000714Y13618000D01*
X5029286Y13632286D01*
X5086429Y13632286D01*
X5115000Y13618000D01*
X5129286Y13589429D01*
X5129286Y13560857D01*
X4986429Y13532286D01*
X5243571Y13446571D02*
X5272143Y13432286D01*
X5329286Y13432286D01*
X5357857Y13446571D01*
X5372143Y13475143D01*
X5372143Y13489429D01*
X5357857Y13518000D01*
X5329286Y13532286D01*
X5286429Y13532286D01*
X5257857Y13546571D01*
X5243571Y13575143D01*
X5243571Y13589429D01*
X5257857Y13618000D01*
X5286429Y13632286D01*
X5329286Y13632286D01*
X5357857Y13618000D01*
X5472143Y13318000D02*
X5486429Y13332286D01*
X5515000Y13375143D01*
X5529286Y13403714D01*
X5543571Y13446571D01*
X5557857Y13518000D01*
X5557857Y13575143D01*
X5543571Y13646571D01*
X5529286Y13689429D01*
X5515000Y13718000D01*
X5486429Y13760857D01*
X5472143Y13775143D01*
X-1420000Y13232000D02*
X-1300000Y13112000D01*
X-1300000Y13232000D02*
X-1420000Y13112000D01*
X-1360000Y13112000D02*
X-1300000Y13172000D01*
X-1360000Y13232000D01*
X-1420000Y13172000D01*
X-1360000Y13112000D01*
X-856429Y13036286D02*
X-1027857Y13036286D01*
X-942143Y13036286D02*
X-942143Y13336286D01*
X-970714Y13293429D01*
X-999286Y13264857D01*
X-1027857Y13250571D01*
X-727857Y13064857D02*
X-713571Y13050571D01*
X-727857Y13036286D01*
X-742143Y13050571D01*
X-727857Y13064857D01*
X-727857Y13036286D01*
X-599286Y13307714D02*
X-585000Y13322000D01*
X-556429Y13336286D01*
X-485000Y13336286D01*
X-456429Y13322000D01*
X-442143Y13307714D01*
X-427857Y13279143D01*
X-427857Y13250571D01*
X-442143Y13207714D01*
X-613572Y13036286D01*
X-427857Y13036286D01*
X-242143Y13336286D02*
X-213571Y13336286D01*
X-185000Y13322000D01*
X-170714Y13307714D01*
X-156429Y13279143D01*
X-142143Y13222000D01*
X-142143Y13150571D01*
X-156429Y13093429D01*
X-170714Y13064857D01*
X-185000Y13050571D01*
X-213571Y13036286D01*
X-242143Y13036286D01*
X-270714Y13050571D01*
X-285000Y13064857D01*
X-299286Y13093429D01*
X-313572Y13150571D01*
X-313572Y13222000D01*
X-299286Y13279143D01*
X-285000Y13307714D01*
X-270714Y13322000D01*
X-242143Y13336286D01*
X-13571Y13036286D02*
X-13571Y13236286D01*
X-13571Y13207714D02*
X714Y13222000D01*
X29286Y13236286D01*
X72143Y13236286D01*
X100714Y13222000D01*
X115000Y13193429D01*
X115000Y13036286D01*
X115000Y13193429D02*
X129286Y13222000D01*
X157857Y13236286D01*
X200714Y13236286D01*
X229286Y13222000D01*
X243571Y13193429D01*
X243571Y13036286D01*
X386428Y13036286D02*
X386428Y13236286D01*
X386428Y13207714D02*
X400714Y13222000D01*
X429286Y13236286D01*
X472143Y13236286D01*
X500714Y13222000D01*
X515000Y13193429D01*
X515000Y13036286D01*
X515000Y13193429D02*
X529286Y13222000D01*
X557857Y13236286D01*
X600714Y13236286D01*
X629286Y13222000D01*
X643571Y13193429D01*
X643571Y13036286D01*
X1229286Y13350571D02*
X972143Y12964857D01*
X1615000Y13336286D02*
X1643571Y13336286D01*
X1672143Y13322000D01*
X1686428Y13307714D01*
X1700714Y13279143D01*
X1715000Y13222000D01*
X1715000Y13150571D01*
X1700714Y13093429D01*
X1686428Y13064857D01*
X1672143Y13050571D01*
X1643571Y13036286D01*
X1615000Y13036286D01*
X1586428Y13050571D01*
X1572143Y13064857D01*
X1557857Y13093429D01*
X1543571Y13150571D01*
X1543571Y13222000D01*
X1557857Y13279143D01*
X1572143Y13307714D01*
X1586428Y13322000D01*
X1615000Y13336286D01*
X1843571Y13064857D02*
X1857857Y13050571D01*
X1843571Y13036286D01*
X1829286Y13050571D01*
X1843571Y13064857D01*
X1843571Y13036286D01*
X2043571Y13336286D02*
X2072143Y13336286D01*
X2100714Y13322000D01*
X2115000Y13307714D01*
X2129286Y13279143D01*
X2143571Y13222000D01*
X2143571Y13150571D01*
X2129286Y13093429D01*
X2115000Y13064857D01*
X2100714Y13050571D01*
X2072143Y13036286D01*
X2043571Y13036286D01*
X2015000Y13050571D01*
X2000714Y13064857D01*
X1986428Y13093429D01*
X1972143Y13150571D01*
X1972143Y13222000D01*
X1986428Y13279143D01*
X2000714Y13307714D01*
X2015000Y13322000D01*
X2043571Y13336286D01*
X2400714Y13236286D02*
X2400714Y13036286D01*
X2329286Y13350571D02*
X2257857Y13136286D01*
X2443571Y13136286D01*
X2529286Y13336286D02*
X2729286Y13336286D01*
X2600714Y13036286D01*
X2829286Y13336286D02*
X2829286Y13279143D01*
X2943571Y13336286D02*
X2943571Y13279143D01*
X3386428Y12922000D02*
X3372143Y12936286D01*
X3343571Y12979143D01*
X3329286Y13007714D01*
X3315000Y13050571D01*
X3300714Y13122000D01*
X3300714Y13179143D01*
X3315000Y13250571D01*
X3329286Y13293429D01*
X3343571Y13322000D01*
X3372143Y13364857D01*
X3386428Y13379143D01*
X3486428Y13307714D02*
X3500714Y13322000D01*
X3529286Y13336286D01*
X3600714Y13336286D01*
X3629286Y13322000D01*
X3643571Y13307714D01*
X3657857Y13279143D01*
X3657857Y13250571D01*
X3643571Y13207714D01*
X3472143Y13036286D01*
X3657857Y13036286D01*
X3915000Y13336286D02*
X3857857Y13336286D01*
X3829286Y13322000D01*
X3815000Y13307714D01*
X3786428Y13264857D01*
X3772143Y13207714D01*
X3772143Y13093429D01*
X3786428Y13064857D01*
X3800714Y13050571D01*
X3829286Y13036286D01*
X3886428Y13036286D01*
X3915000Y13050571D01*
X3929286Y13064857D01*
X3943571Y13093429D01*
X3943571Y13164857D01*
X3929286Y13193429D01*
X3915000Y13207714D01*
X3886428Y13222000D01*
X3829286Y13222000D01*
X3800714Y13207714D01*
X3786428Y13193429D01*
X3772143Y13164857D01*
X4300714Y13036286D02*
X4300714Y13336286D01*
X4429286Y13036286D02*
X4429286Y13193429D01*
X4415000Y13222000D01*
X4386429Y13236286D01*
X4343571Y13236286D01*
X4315000Y13222000D01*
X4300714Y13207714D01*
X4615000Y13036286D02*
X4586429Y13050571D01*
X4572143Y13064857D01*
X4557857Y13093429D01*
X4557857Y13179143D01*
X4572143Y13207714D01*
X4586429Y13222000D01*
X4615000Y13236286D01*
X4657857Y13236286D01*
X4686429Y13222000D01*
X4700714Y13207714D01*
X4715000Y13179143D01*
X4715000Y13093429D01*
X4700714Y13064857D01*
X4686429Y13050571D01*
X4657857Y13036286D01*
X4615000Y13036286D01*
X4886429Y13036286D02*
X4857857Y13050571D01*
X4843571Y13079143D01*
X4843571Y13336286D01*
X5115000Y13050571D02*
X5086429Y13036286D01*
X5029286Y13036286D01*
X5000714Y13050571D01*
X4986429Y13079143D01*
X4986429Y13193429D01*
X5000714Y13222000D01*
X5029286Y13236286D01*
X5086429Y13236286D01*
X5115000Y13222000D01*
X5129286Y13193429D01*
X5129286Y13164857D01*
X4986429Y13136286D01*
X5243571Y13050571D02*
X5272143Y13036286D01*
X5329286Y13036286D01*
X5357857Y13050571D01*
X5372143Y13079143D01*
X5372143Y13093429D01*
X5357857Y13122000D01*
X5329286Y13136286D01*
X5286429Y13136286D01*
X5257857Y13150571D01*
X5243571Y13179143D01*
X5243571Y13193429D01*
X5257857Y13222000D01*
X5286429Y13236286D01*
X5329286Y13236286D01*
X5357857Y13222000D01*
X5472143Y12922000D02*
X5486429Y12936286D01*
X5515000Y12979143D01*
X5529286Y13007714D01*
X5543571Y13050571D01*
X5557857Y13122000D01*
X5557857Y13179143D01*
X5543571Y13250571D01*
X5529286Y13293429D01*
X5515000Y13322000D01*
X5486429Y13364857D01*
X5472143Y13379143D01*
X-1590000Y13066000D02*
X-1590000Y12486000D01*
X-1880000Y12776000D02*
X-1300000Y12776000D01*
X-1300000Y12776000D02*
G75*
G03*
X-1300000Y12776000I-290000J0D01*
G01*
X-870714Y12940286D02*
X-1013571Y12940286D01*
X-1027857Y12797429D01*
X-1013571Y12811714D01*
X-985000Y12826000D01*
X-913571Y12826000D01*
X-885000Y12811714D01*
X-870714Y12797429D01*
X-856429Y12768857D01*
X-856429Y12697429D01*
X-870714Y12668857D01*
X-885000Y12654571D01*
X-913571Y12640286D01*
X-985000Y12640286D01*
X-1013571Y12654571D01*
X-1027857Y12668857D01*
X-727857Y12668857D02*
X-713571Y12654571D01*
X-727857Y12640286D01*
X-742143Y12654571D01*
X-727857Y12668857D01*
X-727857Y12640286D01*
X-542143Y12811714D02*
X-570714Y12826000D01*
X-585000Y12840286D01*
X-599286Y12868857D01*
X-599286Y12883143D01*
X-585000Y12911714D01*
X-570714Y12926000D01*
X-542143Y12940286D01*
X-485000Y12940286D01*
X-456429Y12926000D01*
X-442143Y12911714D01*
X-427857Y12883143D01*
X-427857Y12868857D01*
X-442143Y12840286D01*
X-456429Y12826000D01*
X-485000Y12811714D01*
X-542143Y12811714D01*
X-570714Y12797429D01*
X-585000Y12783143D01*
X-599286Y12754571D01*
X-599286Y12697429D01*
X-585000Y12668857D01*
X-570714Y12654571D01*
X-542143Y12640286D01*
X-485000Y12640286D01*
X-456429Y12654571D01*
X-442143Y12668857D01*
X-427857Y12697429D01*
X-427857Y12754571D01*
X-442143Y12783143D01*
X-456429Y12797429D01*
X-485000Y12811714D01*
X-242143Y12940286D02*
X-213571Y12940286D01*
X-185000Y12926000D01*
X-170714Y12911714D01*
X-156429Y12883143D01*
X-142143Y12826000D01*
X-142143Y12754571D01*
X-156429Y12697429D01*
X-170714Y12668857D01*
X-185000Y12654571D01*
X-213571Y12640286D01*
X-242143Y12640286D01*
X-270714Y12654571D01*
X-285000Y12668857D01*
X-299286Y12697429D01*
X-313572Y12754571D01*
X-313572Y12826000D01*
X-299286Y12883143D01*
X-285000Y12911714D01*
X-270714Y12926000D01*
X-242143Y12940286D01*
X-13571Y12640286D02*
X-13571Y12840286D01*
X-13571Y12811714D02*
X714Y12826000D01*
X29286Y12840286D01*
X72143Y12840286D01*
X100714Y12826000D01*
X115000Y12797429D01*
X115000Y12640286D01*
X115000Y12797429D02*
X129286Y12826000D01*
X157857Y12840286D01*
X200714Y12840286D01*
X229286Y12826000D01*
X243571Y12797429D01*
X243571Y12640286D01*
X386428Y12640286D02*
X386428Y12840286D01*
X386428Y12811714D02*
X400714Y12826000D01*
X429286Y12840286D01*
X472143Y12840286D01*
X500714Y12826000D01*
X515000Y12797429D01*
X515000Y12640286D01*
X515000Y12797429D02*
X529286Y12826000D01*
X557857Y12840286D01*
X600714Y12840286D01*
X629286Y12826000D01*
X643571Y12797429D01*
X643571Y12640286D01*
X1229286Y12954571D02*
X972143Y12568857D01*
X1615000Y12940286D02*
X1643571Y12940286D01*
X1672143Y12926000D01*
X1686428Y12911714D01*
X1700714Y12883143D01*
X1715000Y12826000D01*
X1715000Y12754571D01*
X1700714Y12697429D01*
X1686428Y12668857D01*
X1672143Y12654571D01*
X1643571Y12640286D01*
X1615000Y12640286D01*
X1586428Y12654571D01*
X1572143Y12668857D01*
X1557857Y12697429D01*
X1543571Y12754571D01*
X1543571Y12826000D01*
X1557857Y12883143D01*
X1572143Y12911714D01*
X1586428Y12926000D01*
X1615000Y12940286D01*
X1843571Y12668857D02*
X1857857Y12654571D01*
X1843571Y12640286D01*
X1829286Y12654571D01*
X1843571Y12668857D01*
X1843571Y12640286D01*
X1972143Y12911714D02*
X1986428Y12926000D01*
X2015000Y12940286D01*
X2086428Y12940286D01*
X2115000Y12926000D01*
X2129286Y12911714D01*
X2143571Y12883143D01*
X2143571Y12854571D01*
X2129286Y12811714D01*
X1957857Y12640286D01*
X2143571Y12640286D01*
X2257857Y12911714D02*
X2272143Y12926000D01*
X2300714Y12940286D01*
X2372143Y12940286D01*
X2400714Y12926000D01*
X2415000Y12911714D01*
X2429286Y12883143D01*
X2429286Y12854571D01*
X2415000Y12811714D01*
X2243571Y12640286D01*
X2429286Y12640286D01*
X2600714Y12811714D02*
X2572143Y12826000D01*
X2557857Y12840286D01*
X2543571Y12868857D01*
X2543571Y12883143D01*
X2557857Y12911714D01*
X2572143Y12926000D01*
X2600714Y12940286D01*
X2657857Y12940286D01*
X2686429Y12926000D01*
X2700714Y12911714D01*
X2715000Y12883143D01*
X2715000Y12868857D01*
X2700714Y12840286D01*
X2686429Y12826000D01*
X2657857Y12811714D01*
X2600714Y12811714D01*
X2572143Y12797429D01*
X2557857Y12783143D01*
X2543571Y12754571D01*
X2543571Y12697429D01*
X2557857Y12668857D01*
X2572143Y12654571D01*
X2600714Y12640286D01*
X2657857Y12640286D01*
X2686429Y12654571D01*
X2700714Y12668857D01*
X2715000Y12697429D01*
X2715000Y12754571D01*
X2700714Y12783143D01*
X2686429Y12797429D01*
X2657857Y12811714D01*
X2829286Y12940286D02*
X2829286Y12883143D01*
X2943571Y12940286D02*
X2943571Y12883143D01*
X3386428Y12526000D02*
X3372143Y12540286D01*
X3343571Y12583143D01*
X3329286Y12611714D01*
X3315000Y12654571D01*
X3300714Y12726000D01*
X3300714Y12783143D01*
X3315000Y12854571D01*
X3329286Y12897429D01*
X3343571Y12926000D01*
X3372143Y12968857D01*
X3386428Y12983143D01*
X3629286Y12840286D02*
X3629286Y12640286D01*
X3557857Y12954571D02*
X3486428Y12740286D01*
X3672143Y12740286D01*
X4015000Y12640286D02*
X4015000Y12940286D01*
X4143571Y12640286D02*
X4143571Y12797429D01*
X4129286Y12826000D01*
X4100714Y12840286D01*
X4057857Y12840286D01*
X4029286Y12826000D01*
X4015000Y12811714D01*
X4329286Y12640286D02*
X4300714Y12654571D01*
X4286429Y12668857D01*
X4272143Y12697429D01*
X4272143Y12783143D01*
X4286429Y12811714D01*
X4300714Y12826000D01*
X4329286Y12840286D01*
X4372143Y12840286D01*
X4400714Y12826000D01*
X4415000Y12811714D01*
X4429286Y12783143D01*
X4429286Y12697429D01*
X4415000Y12668857D01*
X4400714Y12654571D01*
X4372143Y12640286D01*
X4329286Y12640286D01*
X4600714Y12640286D02*
X4572143Y12654571D01*
X4557857Y12683143D01*
X4557857Y12940286D01*
X4829286Y12654571D02*
X4800714Y12640286D01*
X4743571Y12640286D01*
X4715000Y12654571D01*
X4700714Y12683143D01*
X4700714Y12797429D01*
X4715000Y12826000D01*
X4743571Y12840286D01*
X4800714Y12840286D01*
X4829286Y12826000D01*
X4843571Y12797429D01*
X4843571Y12768857D01*
X4700714Y12740286D01*
X4957857Y12654571D02*
X4986429Y12640286D01*
X5043571Y12640286D01*
X5072143Y12654571D01*
X5086429Y12683143D01*
X5086429Y12697429D01*
X5072143Y12726000D01*
X5043571Y12740286D01*
X5000714Y12740286D01*
X4972143Y12754571D01*
X4957857Y12783143D01*
X4957857Y12797429D01*
X4972143Y12826000D01*
X5000714Y12840286D01*
X5043571Y12840286D01*
X5072143Y12826000D01*
X5186429Y12526000D02*
X5200714Y12540286D01*
X5229286Y12583143D01*
X5243571Y12611714D01*
X5257857Y12654571D01*
X5272143Y12726000D01*
X5272143Y12783143D01*
X5257857Y12854571D01*
X5243571Y12897429D01*
X5229286Y12926000D01*
X5200714Y12968857D01*
X5186429Y12983143D01*
M02*
