%FSLAX45Y45*%
G04 Gerber Fmt 4.5, Leading zero omitted, Abs format (unit mm)*
G04 Created by KiCad (PCBNEW (5.1.6)-1) date 2021-08-27 09:05:00*
%MOMM*%
%LPD*%
G01*
G04 APERTURE LIST*
%ADD10C,0.200000*%
%ADD11C,0.300000*%
G04 APERTURE END LIST*
D10*
D11*
X-1013571Y16834286D02*
X-1013571Y17134286D01*
X-942143Y17134286D01*
X-899286Y17120000D01*
X-870714Y17091429D01*
X-856429Y17062857D01*
X-842143Y17005714D01*
X-842143Y16962857D01*
X-856429Y16905714D01*
X-870714Y16877143D01*
X-899286Y16848572D01*
X-942143Y16834286D01*
X-1013571Y16834286D01*
X-713571Y16834286D02*
X-713571Y17034286D01*
X-713571Y16977143D02*
X-699286Y17005714D01*
X-685000Y17020000D01*
X-656429Y17034286D01*
X-627857Y17034286D01*
X-527857Y16834286D02*
X-527857Y17034286D01*
X-527857Y17134286D02*
X-542143Y17120000D01*
X-527857Y17105714D01*
X-513571Y17120000D01*
X-527857Y17134286D01*
X-527857Y17105714D01*
X-342143Y16834286D02*
X-370714Y16848572D01*
X-385000Y16877143D01*
X-385000Y17134286D01*
X-185000Y16834286D02*
X-213571Y16848572D01*
X-227857Y16877143D01*
X-227857Y17134286D01*
X157857Y16834286D02*
X157857Y17134286D01*
X257857Y16920000D01*
X357857Y17134286D01*
X357857Y16834286D01*
X629286Y16834286D02*
X629286Y16991429D01*
X615000Y17020000D01*
X586429Y17034286D01*
X529286Y17034286D01*
X500714Y17020000D01*
X629286Y16848572D02*
X600714Y16834286D01*
X529286Y16834286D01*
X500714Y16848572D01*
X486428Y16877143D01*
X486428Y16905714D01*
X500714Y16934286D01*
X529286Y16948572D01*
X600714Y16948572D01*
X629286Y16962857D01*
X772143Y17034286D02*
X772143Y16734286D01*
X772143Y17020000D02*
X800714Y17034286D01*
X857857Y17034286D01*
X886428Y17020000D01*
X900714Y17005714D01*
X915000Y16977143D01*
X915000Y16891429D01*
X900714Y16862857D01*
X886428Y16848572D01*
X857857Y16834286D01*
X800714Y16834286D01*
X772143Y16848572D01*
X1043571Y16862857D02*
X1057857Y16848572D01*
X1043571Y16834286D01*
X1029286Y16848572D01*
X1043571Y16862857D01*
X1043571Y16834286D01*
X1043571Y17020000D02*
X1057857Y17005714D01*
X1043571Y16991429D01*
X1029286Y17005714D01*
X1043571Y17020000D01*
X1043571Y16991429D01*
M02*
