%TF.GenerationSoftware,KiCad,Pcbnew,(5.1.6)-1*%
%TF.CreationDate,2021-08-27T09:05:13+02:00*%
%TF.ProjectId,_Asclepios-Ohmmeter-v2,b5417363-6c65-4706-996f-732d4f686d6d,rev?*%
%TF.SameCoordinates,PXc65d40PYa4fc540*%
%TF.FileFunction,Legend,Top*%
%TF.FilePolarity,Positive*%
%FSLAX46Y46*%
G04 Gerber Fmt 4.6, Leading zero omitted, Abs format (unit mm)*
G04 Created by KiCad (PCBNEW (5.1.6)-1) date 2021-08-27 09:05:13*
%MOMM*%
%LPD*%
G01*
G04 APERTURE LIST*
%ADD10C,0.300000*%
%ADD11C,0.150000*%
%ADD12C,0.120000*%
%ADD13C,0.050000*%
G04 APERTURE END LIST*
D10*
X11063414Y30885691D02*
X10968176Y30980929D01*
X10872938Y31266643D01*
X10872938Y31457120D01*
X10968176Y31742834D01*
X11158652Y31933310D01*
X11349128Y32028548D01*
X11730080Y32123786D01*
X12015795Y32123786D01*
X12396747Y32028548D01*
X12587223Y31933310D01*
X12777700Y31742834D01*
X12872938Y31457120D01*
X12872938Y31266643D01*
X12777700Y30980929D01*
X12682461Y30885691D01*
X10872938Y29742834D02*
X10968176Y29933310D01*
X11063414Y30028548D01*
X11253890Y30123786D01*
X11825319Y30123786D01*
X12015795Y30028548D01*
X12111033Y29933310D01*
X12206271Y29742834D01*
X12206271Y29457120D01*
X12111033Y29266643D01*
X12015795Y29171405D01*
X11825319Y29076167D01*
X11253890Y29076167D01*
X11063414Y29171405D01*
X10968176Y29266643D01*
X10872938Y29457120D01*
X10872938Y29742834D01*
X10872938Y28219024D02*
X12206271Y28219024D01*
X12015795Y28219024D02*
X12111033Y28123786D01*
X12206271Y27933310D01*
X12206271Y27647596D01*
X12111033Y27457120D01*
X11920557Y27361881D01*
X10872938Y27361881D01*
X11920557Y27361881D02*
X12111033Y27266643D01*
X12206271Y27076167D01*
X12206271Y26790453D01*
X12111033Y26599977D01*
X11920557Y26504739D01*
X10872938Y26504739D01*
X10872938Y25552358D02*
X12206271Y25552358D01*
X12015795Y25552358D02*
X12111033Y25457120D01*
X12206271Y25266643D01*
X12206271Y24980929D01*
X12111033Y24790453D01*
X11920557Y24695215D01*
X10872938Y24695215D01*
X11920557Y24695215D02*
X12111033Y24599977D01*
X12206271Y24409500D01*
X12206271Y24123786D01*
X12111033Y23933310D01*
X11920557Y23838072D01*
X10872938Y23838072D01*
X12206271Y22028548D02*
X10872938Y22028548D01*
X12206271Y22885691D02*
X11158652Y22885691D01*
X10968176Y22790453D01*
X10872938Y22599977D01*
X10872938Y22314262D01*
X10968176Y22123786D01*
X11063414Y22028548D01*
X12206271Y21076167D02*
X10872938Y21076167D01*
X12015795Y21076167D02*
X12111033Y20980929D01*
X12206271Y20790453D01*
X12206271Y20504739D01*
X12111033Y20314262D01*
X11920557Y20219024D01*
X10872938Y20219024D01*
X10968176Y19361881D02*
X10872938Y19171405D01*
X10872938Y18790453D01*
X10968176Y18599977D01*
X11158652Y18504739D01*
X11253890Y18504739D01*
X11444366Y18599977D01*
X11539604Y18790453D01*
X11539604Y19076167D01*
X11634842Y19266643D01*
X11825319Y19361881D01*
X11920557Y19361881D01*
X12111033Y19266643D01*
X12206271Y19076167D01*
X12206271Y18790453D01*
X12111033Y18599977D01*
X10968176Y15361881D02*
X10872938Y15552358D01*
X10872938Y15933310D01*
X10968176Y16123786D01*
X11158652Y16219024D01*
X11920557Y16219024D01*
X12111033Y16123786D01*
X12206271Y15933310D01*
X12206271Y15552358D01*
X12111033Y15361881D01*
X11920557Y15266643D01*
X11730080Y15266643D01*
X11539604Y16219024D01*
X12206271Y14695215D02*
X12206271Y13933310D01*
X12872938Y14409500D02*
X11158652Y14409500D01*
X10968176Y14314262D01*
X10872938Y14123786D01*
X10872938Y13933310D01*
X10872938Y11742834D02*
X12872938Y11742834D01*
X12206271Y10790453D02*
X10872938Y10790453D01*
X12015795Y10790453D02*
X12111033Y10695215D01*
X12206271Y10504739D01*
X12206271Y10219024D01*
X12111033Y10028548D01*
X11920557Y9933310D01*
X10872938Y9933310D01*
X12206271Y9266643D02*
X12206271Y8504739D01*
X10872938Y8980929D02*
X12587223Y8980929D01*
X12777700Y8885691D01*
X12872938Y8695215D01*
X12872938Y8504739D01*
X8536138Y135429410D02*
X10536138Y135429410D01*
X10536138Y134667505D01*
X10440900Y134477029D01*
X10345661Y134381791D01*
X10155185Y134286553D01*
X9869471Y134286553D01*
X9678995Y134381791D01*
X9583757Y134477029D01*
X9488519Y134667505D01*
X9488519Y135429410D01*
X8536138Y133429410D02*
X10536138Y133429410D01*
X8536138Y132572267D02*
X9583757Y132572267D01*
X9774233Y132667505D01*
X9869471Y132857981D01*
X9869471Y133143696D01*
X9774233Y133334172D01*
X9678995Y133429410D01*
X8536138Y130762743D02*
X9583757Y130762743D01*
X9774233Y130857981D01*
X9869471Y131048458D01*
X9869471Y131429410D01*
X9774233Y131619886D01*
X8631376Y130762743D02*
X8536138Y130953220D01*
X8536138Y131429410D01*
X8631376Y131619886D01*
X8821852Y131715124D01*
X9012328Y131715124D01*
X9202804Y131619886D01*
X9298042Y131429410D01*
X9298042Y130953220D01*
X9393280Y130762743D01*
X8631376Y129905600D02*
X8536138Y129715124D01*
X8536138Y129334172D01*
X8631376Y129143696D01*
X8821852Y129048458D01*
X8917090Y129048458D01*
X9107566Y129143696D01*
X9202804Y129334172D01*
X9202804Y129619886D01*
X9298042Y129810362D01*
X9488519Y129905600D01*
X9583757Y129905600D01*
X9774233Y129810362D01*
X9869471Y129619886D01*
X9869471Y129334172D01*
X9774233Y129143696D01*
X8631376Y127429410D02*
X8536138Y127619886D01*
X8536138Y128000839D01*
X8631376Y128191315D01*
X8821852Y128286553D01*
X9583757Y128286553D01*
X9774233Y128191315D01*
X9869471Y128000839D01*
X9869471Y127619886D01*
X9774233Y127429410D01*
X9583757Y127334172D01*
X9393280Y127334172D01*
X9202804Y128286553D01*
X8631376Y126572267D02*
X8536138Y126381791D01*
X8536138Y126000839D01*
X8631376Y125810362D01*
X8821852Y125715124D01*
X8917090Y125715124D01*
X9107566Y125810362D01*
X9202804Y126000839D01*
X9202804Y126286553D01*
X9298042Y126477029D01*
X9488519Y126572267D01*
X9583757Y126572267D01*
X9774233Y126477029D01*
X9869471Y126286553D01*
X9869471Y126000839D01*
X9774233Y125810362D01*
X8536138Y122286553D02*
X8536138Y123429410D01*
X8536138Y122857981D02*
X10536138Y122857981D01*
X10250423Y123048458D01*
X10059947Y123238934D01*
X9964709Y123429410D01*
X8891738Y99729710D02*
X10891738Y99729710D01*
X10891738Y98967805D01*
X10796500Y98777329D01*
X10701261Y98682091D01*
X10510785Y98586853D01*
X10225071Y98586853D01*
X10034595Y98682091D01*
X9939357Y98777329D01*
X9844119Y98967805D01*
X9844119Y99729710D01*
X8891738Y97729710D02*
X10891738Y97729710D01*
X8891738Y96872567D02*
X9939357Y96872567D01*
X10129833Y96967805D01*
X10225071Y97158281D01*
X10225071Y97443996D01*
X10129833Y97634472D01*
X10034595Y97729710D01*
X8891738Y95063043D02*
X9939357Y95063043D01*
X10129833Y95158281D01*
X10225071Y95348758D01*
X10225071Y95729710D01*
X10129833Y95920186D01*
X8986976Y95063043D02*
X8891738Y95253520D01*
X8891738Y95729710D01*
X8986976Y95920186D01*
X9177452Y96015424D01*
X9367928Y96015424D01*
X9558404Y95920186D01*
X9653642Y95729710D01*
X9653642Y95253520D01*
X9748880Y95063043D01*
X8986976Y94205900D02*
X8891738Y94015424D01*
X8891738Y93634472D01*
X8986976Y93443996D01*
X9177452Y93348758D01*
X9272690Y93348758D01*
X9463166Y93443996D01*
X9558404Y93634472D01*
X9558404Y93920186D01*
X9653642Y94110662D01*
X9844119Y94205900D01*
X9939357Y94205900D01*
X10129833Y94110662D01*
X10225071Y93920186D01*
X10225071Y93634472D01*
X10129833Y93443996D01*
X8986976Y91729710D02*
X8891738Y91920186D01*
X8891738Y92301139D01*
X8986976Y92491615D01*
X9177452Y92586853D01*
X9939357Y92586853D01*
X10129833Y92491615D01*
X10225071Y92301139D01*
X10225071Y91920186D01*
X10129833Y91729710D01*
X9939357Y91634472D01*
X9748880Y91634472D01*
X9558404Y92586853D01*
X8986976Y90872567D02*
X8891738Y90682091D01*
X8891738Y90301139D01*
X8986976Y90110662D01*
X9177452Y90015424D01*
X9272690Y90015424D01*
X9463166Y90110662D01*
X9558404Y90301139D01*
X9558404Y90586853D01*
X9653642Y90777329D01*
X9844119Y90872567D01*
X9939357Y90872567D01*
X10129833Y90777329D01*
X10225071Y90586853D01*
X10225071Y90301139D01*
X10129833Y90110662D01*
X10701261Y87729710D02*
X10796500Y87634472D01*
X10891738Y87443996D01*
X10891738Y86967805D01*
X10796500Y86777329D01*
X10701261Y86682091D01*
X10510785Y86586853D01*
X10320309Y86586853D01*
X10034595Y86682091D01*
X8891738Y87824948D01*
X8891738Y86586853D01*
X8625038Y65033310D02*
X10625038Y65033310D01*
X10625038Y64271405D01*
X10529800Y64080929D01*
X10434561Y63985691D01*
X10244085Y63890453D01*
X9958371Y63890453D01*
X9767895Y63985691D01*
X9672657Y64080929D01*
X9577419Y64271405D01*
X9577419Y65033310D01*
X8625038Y63033310D02*
X10625038Y63033310D01*
X8625038Y62176167D02*
X9672657Y62176167D01*
X9863133Y62271405D01*
X9958371Y62461881D01*
X9958371Y62747596D01*
X9863133Y62938072D01*
X9767895Y63033310D01*
X8625038Y60366643D02*
X9672657Y60366643D01*
X9863133Y60461881D01*
X9958371Y60652358D01*
X9958371Y61033310D01*
X9863133Y61223786D01*
X8720276Y60366643D02*
X8625038Y60557120D01*
X8625038Y61033310D01*
X8720276Y61223786D01*
X8910752Y61319024D01*
X9101228Y61319024D01*
X9291704Y61223786D01*
X9386942Y61033310D01*
X9386942Y60557120D01*
X9482180Y60366643D01*
X8720276Y59509500D02*
X8625038Y59319024D01*
X8625038Y58938072D01*
X8720276Y58747596D01*
X8910752Y58652358D01*
X9005990Y58652358D01*
X9196466Y58747596D01*
X9291704Y58938072D01*
X9291704Y59223786D01*
X9386942Y59414262D01*
X9577419Y59509500D01*
X9672657Y59509500D01*
X9863133Y59414262D01*
X9958371Y59223786D01*
X9958371Y58938072D01*
X9863133Y58747596D01*
X8720276Y57033310D02*
X8625038Y57223786D01*
X8625038Y57604739D01*
X8720276Y57795215D01*
X8910752Y57890453D01*
X9672657Y57890453D01*
X9863133Y57795215D01*
X9958371Y57604739D01*
X9958371Y57223786D01*
X9863133Y57033310D01*
X9672657Y56938072D01*
X9482180Y56938072D01*
X9291704Y57890453D01*
X8720276Y56176167D02*
X8625038Y55985691D01*
X8625038Y55604739D01*
X8720276Y55414262D01*
X8910752Y55319024D01*
X9005990Y55319024D01*
X9196466Y55414262D01*
X9291704Y55604739D01*
X9291704Y55890453D01*
X9386942Y56080929D01*
X9577419Y56176167D01*
X9672657Y56176167D01*
X9863133Y56080929D01*
X9958371Y55890453D01*
X9958371Y55604739D01*
X9863133Y55414262D01*
X10625038Y53128548D02*
X10625038Y51890453D01*
X9863133Y52557120D01*
X9863133Y52271405D01*
X9767895Y52080929D01*
X9672657Y51985691D01*
X9482180Y51890453D01*
X9005990Y51890453D01*
X8815514Y51985691D01*
X8720276Y52080929D01*
X8625038Y52271405D01*
X8625038Y52842834D01*
X8720276Y53033310D01*
X8815514Y53128548D01*
X178357142Y146442858D02*
X179071428Y143442858D01*
X179642857Y145585715D01*
X180214285Y143442858D01*
X180928571Y146442858D01*
X182071428Y145014286D02*
X183071428Y145014286D01*
X183500000Y143442858D02*
X182071428Y143442858D01*
X182071428Y146442858D01*
X183500000Y146442858D01*
X184785714Y143442858D02*
X184785714Y146442858D01*
X185928571Y146442858D01*
X186214285Y146300000D01*
X186357142Y146157143D01*
X186500000Y145871429D01*
X186500000Y145442858D01*
X186357142Y145157143D01*
X186214285Y145014286D01*
X185928571Y144871429D01*
X184785714Y144871429D01*
X187642857Y144300000D02*
X189071428Y144300000D01*
X187357142Y143442858D02*
X188357142Y146442858D01*
X189357142Y143442858D01*
X192214285Y146442858D02*
X193928571Y146442858D01*
X193071428Y143442858D02*
X193071428Y146442858D01*
X194928571Y143442858D02*
X194928571Y145442858D01*
X194928571Y144871429D02*
X195071428Y145157143D01*
X195214285Y145300000D01*
X195500000Y145442858D01*
X195785714Y145442858D01*
X197214285Y143442858D02*
X196928571Y143585715D01*
X196785714Y143728572D01*
X196642857Y144014286D01*
X196642857Y144871429D01*
X196785714Y145157143D01*
X196928571Y145300000D01*
X197214285Y145442858D01*
X197642857Y145442858D01*
X197928571Y145300000D01*
X198071428Y145157143D01*
X198214285Y144871429D01*
X198214285Y144014286D01*
X198071428Y143728572D01*
X197928571Y143585715D01*
X197642857Y143442858D01*
X197214285Y143442858D01*
X199214285Y145442858D02*
X199928571Y143442858D01*
X200642857Y145442858D02*
X199928571Y143442858D01*
X199642857Y142728572D01*
X199500000Y142585715D01*
X199214285Y142442858D01*
X202928571Y143585715D02*
X202642857Y143442858D01*
X202071428Y143442858D01*
X201785714Y143585715D01*
X201642857Y143871429D01*
X201642857Y145014286D01*
X201785714Y145300000D01*
X202071428Y145442858D01*
X202642857Y145442858D01*
X202928571Y145300000D01*
X203071428Y145014286D01*
X203071428Y144728572D01*
X201642857Y144442858D01*
X204214285Y143585715D02*
X204500000Y143442858D01*
X205071428Y143442858D01*
X205357142Y143585715D01*
X205500000Y143871429D01*
X205500000Y144014286D01*
X205357142Y144300000D01*
X205071428Y144442858D01*
X204642857Y144442858D01*
X204357142Y144585715D01*
X204214285Y144871429D01*
X204214285Y145014286D01*
X204357142Y145300000D01*
X204642857Y145442858D01*
X205071428Y145442858D01*
X205357142Y145300000D01*
X182142857Y138642858D02*
X182142857Y141642858D01*
X183142857Y139500000D01*
X184142857Y141642858D01*
X184142857Y138642858D01*
X186857142Y138642858D02*
X186857142Y140214286D01*
X186714285Y140500000D01*
X186428571Y140642858D01*
X185857142Y140642858D01*
X185571428Y140500000D01*
X186857142Y138785715D02*
X186571428Y138642858D01*
X185857142Y138642858D01*
X185571428Y138785715D01*
X185428571Y139071429D01*
X185428571Y139357143D01*
X185571428Y139642858D01*
X185857142Y139785715D01*
X186571428Y139785715D01*
X186857142Y139928572D01*
X188000000Y138642858D02*
X189571428Y140642858D01*
X188000000Y140642858D02*
X189571428Y138642858D01*
X190714285Y138642858D02*
X190714285Y140642858D01*
X190714285Y141642858D02*
X190571428Y141500000D01*
X190714285Y141357143D01*
X190857142Y141500000D01*
X190714285Y141642858D01*
X190714285Y141357143D01*
X192142857Y138642858D02*
X192142857Y140642858D01*
X192142857Y140357143D02*
X192285714Y140500000D01*
X192571428Y140642858D01*
X193000000Y140642858D01*
X193285714Y140500000D01*
X193428571Y140214286D01*
X193428571Y138642858D01*
X193428571Y140214286D02*
X193571428Y140500000D01*
X193857142Y140642858D01*
X194285714Y140642858D01*
X194571428Y140500000D01*
X194714285Y140214286D01*
X194714285Y138642858D01*
X197285714Y138785715D02*
X197000000Y138642858D01*
X196428571Y138642858D01*
X196142857Y138785715D01*
X196000000Y139071429D01*
X196000000Y140214286D01*
X196142857Y140500000D01*
X196428571Y140642858D01*
X197000000Y140642858D01*
X197285714Y140500000D01*
X197428571Y140214286D01*
X197428571Y139928572D01*
X196000000Y139642858D01*
X201857142Y141642858D02*
X201857142Y139500000D01*
X201714285Y139071429D01*
X201428571Y138785715D01*
X201000000Y138642858D01*
X200714285Y138642858D01*
X164928571Y135842858D02*
X164928571Y132842858D01*
X166357142Y134271429D02*
X166500000Y133985715D01*
X166785714Y133842858D01*
X164928571Y134271429D02*
X165071428Y133985715D01*
X165357142Y133842858D01*
X165928571Y133842858D01*
X166214285Y133985715D01*
X166357142Y134271429D01*
X166357142Y135842858D01*
X167928571Y134700000D02*
X169357142Y134700000D01*
X167642857Y133842858D02*
X168642857Y136842858D01*
X169642857Y133842858D01*
X170500000Y133985715D02*
X170785714Y133842858D01*
X171357142Y133842858D01*
X171642857Y133985715D01*
X171785714Y134271429D01*
X171785714Y134414286D01*
X171642857Y134700000D01*
X171357142Y134842858D01*
X170928571Y134842858D01*
X170642857Y134985715D01*
X170500000Y135271429D01*
X170500000Y135414286D01*
X170642857Y135700000D01*
X170928571Y135842858D01*
X171357142Y135842858D01*
X171642857Y135700000D01*
X174357142Y133985715D02*
X174071428Y133842858D01*
X173500000Y133842858D01*
X173214285Y133985715D01*
X173071428Y134128572D01*
X172928571Y134414286D01*
X172928571Y135271429D01*
X173071428Y135557143D01*
X173214285Y135700000D01*
X173500000Y135842858D01*
X174071428Y135842858D01*
X174357142Y135700000D01*
X176071428Y133842858D02*
X175785714Y133985715D01*
X175642857Y134271429D01*
X175642857Y136842858D01*
X178357142Y133985715D02*
X178071428Y133842858D01*
X177500000Y133842858D01*
X177214285Y133985715D01*
X177071428Y134271429D01*
X177071428Y135414286D01*
X177214285Y135700000D01*
X177500000Y135842858D01*
X178071428Y135842858D01*
X178357142Y135700000D01*
X178500000Y135414286D01*
X178500000Y135128572D01*
X177071428Y134842858D01*
X179785714Y135842858D02*
X179785714Y132842858D01*
X179785714Y135700000D02*
X180071428Y135842858D01*
X180642857Y135842858D01*
X180928571Y135700000D01*
X181071428Y135557143D01*
X181214285Y135271429D01*
X181214285Y134414286D01*
X181071428Y134128572D01*
X180928571Y133985715D01*
X180642857Y133842858D01*
X180071428Y133842858D01*
X179785714Y133985715D01*
X182499999Y133842858D02*
X182499999Y135842858D01*
X182499999Y136842858D02*
X182357142Y136700000D01*
X182499999Y136557143D01*
X182642857Y136700000D01*
X182499999Y136842858D01*
X182499999Y136557143D01*
X184357142Y133842858D02*
X184071428Y133985715D01*
X183928571Y134128572D01*
X183785714Y134414286D01*
X183785714Y135271429D01*
X183928571Y135557143D01*
X184071428Y135700000D01*
X184357142Y135842858D01*
X184785714Y135842858D01*
X185071428Y135700000D01*
X185214285Y135557143D01*
X185357142Y135271429D01*
X185357142Y134414286D01*
X185214285Y134128572D01*
X185071428Y133985715D01*
X184785714Y133842858D01*
X184357142Y133842858D01*
X186499999Y133985715D02*
X186785714Y133842858D01*
X187357142Y133842858D01*
X187642857Y133985715D01*
X187785714Y134271429D01*
X187785714Y134414286D01*
X187642857Y134700000D01*
X187357142Y134842858D01*
X186928571Y134842858D01*
X186642857Y134985715D01*
X186499999Y135271429D01*
X186499999Y135414286D01*
X186642857Y135700000D01*
X186928571Y135842858D01*
X187357142Y135842858D01*
X187642857Y135700000D01*
X191357142Y133842858D02*
X191357142Y136842858D01*
X192357142Y134700000D01*
X193357142Y136842858D01*
X193357142Y133842858D01*
X194500000Y136842858D02*
X195214285Y133842858D01*
X195785714Y135985715D01*
X196357142Y133842858D01*
X197071428Y136842858D01*
X198214285Y134985715D02*
X200500000Y134985715D01*
X201500000Y136842858D02*
X203214285Y136842858D01*
X202357142Y133842858D02*
X202357142Y136842858D01*
X205357142Y133985715D02*
X205071428Y133842858D01*
X204500000Y133842858D01*
X204214285Y133985715D01*
X204071428Y134271429D01*
X204071428Y135414286D01*
X204214285Y135700000D01*
X204500000Y135842858D01*
X205071428Y135842858D01*
X205357142Y135700000D01*
X205500000Y135414286D01*
X205500000Y135128572D01*
X204071428Y134842858D01*
X206642857Y133985715D02*
X206928571Y133842858D01*
X207500000Y133842858D01*
X207785714Y133985715D01*
X207928571Y134271429D01*
X207928571Y134414286D01*
X207785714Y134700000D01*
X207500000Y134842858D01*
X207071428Y134842858D01*
X206785714Y134985715D01*
X206642857Y135271429D01*
X206642857Y135414286D01*
X206785714Y135700000D01*
X207071428Y135842858D01*
X207500000Y135842858D01*
X207785714Y135700000D01*
X208785714Y135842858D02*
X209928571Y135842858D01*
X209214285Y136842858D02*
X209214285Y134271429D01*
X209357142Y133985715D01*
X209642857Y133842858D01*
X209928571Y133842858D01*
X212071428Y133985715D02*
X211785714Y133842858D01*
X211214285Y133842858D01*
X210928571Y133985715D01*
X210785714Y134271429D01*
X210785714Y135414286D01*
X210928571Y135700000D01*
X211214285Y135842858D01*
X211785714Y135842858D01*
X212071428Y135700000D01*
X212214285Y135414286D01*
X212214285Y135128572D01*
X210785714Y134842858D01*
X213500000Y133842858D02*
X213500000Y135842858D01*
X213500000Y135271429D02*
X213642857Y135557143D01*
X213785714Y135700000D01*
X214071428Y135842858D01*
X214357142Y135842858D01*
X217500000Y136557143D02*
X217642857Y136700000D01*
X217928571Y136842858D01*
X218642857Y136842858D01*
X218928571Y136700000D01*
X219071428Y136557143D01*
X219214285Y136271429D01*
X219214285Y135985715D01*
X219071428Y135557143D01*
X217357142Y133842858D01*
X219214285Y133842858D01*
D11*
X0Y160000000D02*
X233000000Y160000000D01*
X0Y0D02*
X0Y160000000D01*
X233000000Y0D02*
X0Y0D01*
X233000000Y160000000D02*
X233000000Y0D01*
D12*
%TO.C,J1*%
X36340000Y139026000D02*
X36340000Y128866000D01*
X14940000Y126326000D02*
X14940000Y136486000D01*
X36340000Y139026000D02*
X27640000Y139026000D01*
X27230000Y136486000D02*
X27230000Y139026000D01*
X27230000Y139026000D02*
X27640000Y139026000D01*
X14940000Y136486000D02*
X27230000Y136486000D01*
X27230000Y123776000D02*
X36340000Y123776000D01*
X27230000Y121236000D02*
X14940000Y121226000D01*
X27230000Y123776000D02*
X27230000Y121226000D01*
X36340000Y128866000D02*
X36340000Y123776000D01*
X14940000Y126326000D02*
X14940000Y121226000D01*
%TO.C,J2*%
X36086000Y104420000D02*
X36086000Y94260000D01*
X14686000Y91720000D02*
X14686000Y101880000D01*
X36086000Y104420000D02*
X27386000Y104420000D01*
X26976000Y101880000D02*
X26976000Y104420000D01*
X26976000Y104420000D02*
X27386000Y104420000D01*
X14686000Y101880000D02*
X26976000Y101880000D01*
X26976000Y89170000D02*
X36086000Y89170000D01*
X26976000Y86630000D02*
X14686000Y86620000D01*
X26976000Y89170000D02*
X26976000Y86620000D01*
X36086000Y94260000D02*
X36086000Y89170000D01*
X14686000Y91720000D02*
X14686000Y86620000D01*
%TO.C,J3*%
X35832000Y69114000D02*
X35832000Y58954000D01*
X14432000Y56414000D02*
X14432000Y66574000D01*
X35832000Y69114000D02*
X27132000Y69114000D01*
X26722000Y66574000D02*
X26722000Y69114000D01*
X26722000Y69114000D02*
X27132000Y69114000D01*
X14432000Y66574000D02*
X26722000Y66574000D01*
X26722000Y53864000D02*
X35832000Y53864000D01*
X26722000Y51324000D02*
X14432000Y51314000D01*
X26722000Y53864000D02*
X26722000Y51314000D01*
X35832000Y58954000D02*
X35832000Y53864000D01*
X14432000Y56414000D02*
X14432000Y51314000D01*
%TO.C,JC1*%
X14940000Y19838000D02*
X27230000Y19838000D01*
X14940000Y9678000D02*
X27230000Y9678000D01*
X27230000Y22378000D02*
X27640000Y22378000D01*
X27230000Y19838000D02*
X27230000Y22378000D01*
X27230000Y12218000D02*
X27230000Y9678000D01*
X27640000Y12218000D02*
X27230000Y12218000D01*
X36340000Y22378000D02*
X27640000Y22378000D01*
X14940000Y9678000D02*
X14940000Y19838000D01*
X36340000Y22378000D02*
X36340000Y12218000D01*
X35260000Y12218000D02*
X36310000Y12218000D01*
X30180000Y12218000D02*
X27640000Y12218000D01*
X35260000Y12218000D02*
X30180000Y12218000D01*
%TO.C,JCI1*%
X14940000Y29998000D02*
X27230000Y29998000D01*
X14940000Y19838000D02*
X27230000Y19838000D01*
X27230000Y32538000D02*
X27640000Y32538000D01*
X27230000Y29998000D02*
X27230000Y32538000D01*
X27230000Y22378000D02*
X27230000Y19838000D01*
X27640000Y22378000D02*
X27230000Y22378000D01*
X36340000Y32538000D02*
X27640000Y32538000D01*
X14940000Y19838000D02*
X14940000Y29998000D01*
X36340000Y32538000D02*
X36340000Y22378000D01*
X35260000Y22378000D02*
X36310000Y22378000D01*
X30180000Y22378000D02*
X27640000Y22378000D01*
X35260000Y22378000D02*
X30180000Y22378000D01*
%TO.C,K41*%
X62946000Y139026000D02*
X93426000Y139026000D01*
X62946000Y126326000D02*
X62946000Y139026000D01*
X93426000Y126326000D02*
X62946000Y126326000D01*
X93426000Y139026000D02*
X93426000Y126326000D01*
%TO.C,K42*%
X62692000Y104420000D02*
X93172000Y104420000D01*
X62692000Y91720000D02*
X62692000Y104420000D01*
X93172000Y91720000D02*
X62692000Y91720000D01*
X93172000Y104420000D02*
X93172000Y91720000D01*
%TO.C,K43*%
X62438000Y68352000D02*
X92918000Y68352000D01*
X62438000Y55652000D02*
X62438000Y68352000D01*
X92918000Y55652000D02*
X62438000Y55652000D01*
X92918000Y68352000D02*
X92918000Y55652000D01*
%TO.C,KC1*%
X55072000Y31776000D02*
X85552000Y31776000D01*
X55072000Y19076000D02*
X55072000Y31776000D01*
X85552000Y19076000D02*
X55072000Y19076000D01*
X85552000Y31776000D02*
X85552000Y19076000D01*
%TO.C,DI1*%
X94769000Y28146000D02*
X91829000Y28146000D01*
X91829000Y28146000D02*
X91829000Y22706000D01*
X91829000Y22706000D02*
X94769000Y22706000D01*
X94769000Y22706000D02*
X94769000Y28146000D01*
X93299000Y29166000D02*
X93299000Y28146000D01*
X93299000Y21686000D02*
X93299000Y22706000D01*
X94769000Y27246000D02*
X91829000Y27246000D01*
X94769000Y27126000D02*
X91829000Y27126000D01*
X94769000Y27366000D02*
X91829000Y27366000D01*
%TO.C,JUSB1*%
X226328000Y32598000D02*
X223668000Y32598000D01*
X226328000Y24918000D02*
X226328000Y32598000D01*
X223668000Y24918000D02*
X223668000Y32598000D01*
X226328000Y24918000D02*
X223668000Y24918000D01*
X226328000Y23648000D02*
X226328000Y22318000D01*
X226328000Y22318000D02*
X224998000Y22318000D01*
%TO.C,Q16*%
X132972000Y52188000D02*
X132972000Y56038000D01*
X130173193Y56484400D02*
G75*
G03*
X128672000Y54128000I1098807J-2356400D01*
G01*
X132394045Y51805369D02*
G75*
G03*
X132972000Y52188000I-1122045J2322631D01*
G01*
X130173193Y51771600D02*
G75*
G02*
X128672000Y54128000I1098807J2356400D01*
G01*
X132384264Y56430383D02*
G75*
G02*
X132972000Y56038000I-1112264J-2302383D01*
G01*
%TO.C,Q19*%
X131364000Y36934000D02*
X135214000Y36934000D01*
X135660400Y39732807D02*
G75*
G03*
X133304000Y41234000I-2356400J-1098807D01*
G01*
X130981369Y37511955D02*
G75*
G03*
X131364000Y36934000I2322631J1122045D01*
G01*
X130947600Y39732807D02*
G75*
G02*
X133304000Y41234000I2356400J-1098807D01*
G01*
X135606383Y37521736D02*
G75*
G02*
X135214000Y36934000I-2302383J1112264D01*
G01*
%TO.C,Q18*%
X143640000Y52188000D02*
X143640000Y56038000D01*
X140841193Y56484400D02*
G75*
G03*
X139340000Y54128000I1098807J-2356400D01*
G01*
X143062045Y51805369D02*
G75*
G03*
X143640000Y52188000I-1122045J2322631D01*
G01*
X140841193Y51771600D02*
G75*
G02*
X139340000Y54128000I1098807J2356400D01*
G01*
X143052264Y56430383D02*
G75*
G02*
X143640000Y56038000I-1112264J-2302383D01*
G01*
%TO.C,Q17*%
X138306000Y52188000D02*
X138306000Y56038000D01*
X135507193Y56484400D02*
G75*
G03*
X134006000Y54128000I1098807J-2356400D01*
G01*
X137728045Y51805369D02*
G75*
G03*
X138306000Y52188000I-1122045J2322631D01*
G01*
X135507193Y51771600D02*
G75*
G02*
X134006000Y54128000I1098807J2356400D01*
G01*
X137718264Y56430383D02*
G75*
G02*
X138306000Y56038000I-1112264J-2302383D01*
G01*
%TO.C,Q15*%
X140240000Y72070000D02*
X140240000Y68220000D01*
X143038807Y67773600D02*
G75*
G03*
X144540000Y70130000I-1098807J2356400D01*
G01*
X140817955Y72452631D02*
G75*
G03*
X140240000Y72070000I1122045J-2322631D01*
G01*
X143038807Y72486400D02*
G75*
G02*
X144540000Y70130000I-1098807J-2356400D01*
G01*
X140827736Y67827617D02*
G75*
G02*
X140240000Y68220000I1112264J2302383D01*
G01*
%TO.C,Q14*%
X134906000Y72070000D02*
X134906000Y68220000D01*
X137704807Y67773600D02*
G75*
G03*
X139206000Y70130000I-1098807J2356400D01*
G01*
X135483955Y72452631D02*
G75*
G03*
X134906000Y72070000I1122045J-2322631D01*
G01*
X137704807Y72486400D02*
G75*
G02*
X139206000Y70130000I-1098807J-2356400D01*
G01*
X135493736Y67827617D02*
G75*
G02*
X134906000Y68220000I1112264J2302383D01*
G01*
%TO.C,Q13*%
X129572000Y72070000D02*
X129572000Y68220000D01*
X132370807Y67773600D02*
G75*
G03*
X133872000Y70130000I-1098807J2356400D01*
G01*
X130149955Y72452631D02*
G75*
G03*
X129572000Y72070000I1122045J-2322631D01*
G01*
X132370807Y72486400D02*
G75*
G02*
X133872000Y70130000I-1098807J-2356400D01*
G01*
X130159736Y67827617D02*
G75*
G02*
X129572000Y68220000I1112264J2302383D01*
G01*
%TO.C,Q11*%
X138560000Y88256000D02*
X138560000Y92106000D01*
X135761193Y92552400D02*
G75*
G03*
X134260000Y90196000I1098807J-2356400D01*
G01*
X137982045Y87873369D02*
G75*
G03*
X138560000Y88256000I-1122045J2322631D01*
G01*
X135761193Y87839600D02*
G75*
G02*
X134260000Y90196000I1098807J2356400D01*
G01*
X137972264Y92498383D02*
G75*
G02*
X138560000Y92106000I-1112264J-2302383D01*
G01*
%TO.C,Q12*%
X143894000Y88256000D02*
X143894000Y92106000D01*
X141095193Y92552400D02*
G75*
G03*
X139594000Y90196000I1098807J-2356400D01*
G01*
X143316045Y87873369D02*
G75*
G03*
X143894000Y88256000I-1122045J2322631D01*
G01*
X141095193Y87839600D02*
G75*
G02*
X139594000Y90196000I1098807J2356400D01*
G01*
X143306264Y92498383D02*
G75*
G02*
X143894000Y92106000I-1112264J-2302383D01*
G01*
%TO.C,Q9*%
X140494000Y107630000D02*
X140494000Y103780000D01*
X143292807Y103333600D02*
G75*
G03*
X144794000Y105690000I-1098807J2356400D01*
G01*
X141071955Y108012631D02*
G75*
G03*
X140494000Y107630000I1122045J-2322631D01*
G01*
X143292807Y108046400D02*
G75*
G02*
X144794000Y105690000I-1098807J-2356400D01*
G01*
X141081736Y103387617D02*
G75*
G02*
X140494000Y103780000I1112264J2302383D01*
G01*
%TO.C,Q8*%
X135160000Y107630000D02*
X135160000Y103780000D01*
X137958807Y103333600D02*
G75*
G03*
X139460000Y105690000I-1098807J2356400D01*
G01*
X135737955Y108012631D02*
G75*
G03*
X135160000Y107630000I1122045J-2322631D01*
G01*
X137958807Y108046400D02*
G75*
G02*
X139460000Y105690000I-1098807J-2356400D01*
G01*
X135747736Y103387617D02*
G75*
G02*
X135160000Y103780000I1112264J2302383D01*
G01*
%TO.C,Q7*%
X129826000Y107630000D02*
X129826000Y103780000D01*
X132624807Y103333600D02*
G75*
G03*
X134126000Y105690000I-1098807J2356400D01*
G01*
X130403955Y108012631D02*
G75*
G03*
X129826000Y107630000I1122045J-2322631D01*
G01*
X132624807Y108046400D02*
G75*
G02*
X134126000Y105690000I-1098807J-2356400D01*
G01*
X130413736Y103387617D02*
G75*
G02*
X129826000Y103780000I1112264J2302383D01*
G01*
%TO.C,Q10*%
X133226000Y88256000D02*
X133226000Y92106000D01*
X130427193Y92552400D02*
G75*
G03*
X128926000Y90196000I1098807J-2356400D01*
G01*
X132648045Y87873369D02*
G75*
G03*
X133226000Y88256000I-1122045J2322631D01*
G01*
X130427193Y87839600D02*
G75*
G02*
X128926000Y90196000I1098807J2356400D01*
G01*
X132638264Y92498383D02*
G75*
G02*
X133226000Y92106000I-1112264J-2302383D01*
G01*
%TO.C,Q5*%
X138763000Y123081200D02*
X138763000Y126931200D01*
X135964193Y127377600D02*
G75*
G03*
X134463000Y125021200I1098807J-2356400D01*
G01*
X138185045Y122698569D02*
G75*
G03*
X138763000Y123081200I-1122045J2322631D01*
G01*
X135964193Y122664800D02*
G75*
G02*
X134463000Y125021200I1098807J2356400D01*
G01*
X138175264Y127323583D02*
G75*
G02*
X138763000Y126931200I-1112264J-2302383D01*
G01*
%TO.C,Q6*%
X144097000Y123081200D02*
X144097000Y126931200D01*
X141298193Y127377600D02*
G75*
G03*
X139797000Y125021200I1098807J-2356400D01*
G01*
X143519045Y122698569D02*
G75*
G03*
X144097000Y123081200I-1122045J2322631D01*
G01*
X141298193Y122664800D02*
G75*
G02*
X139797000Y125021200I1098807J2356400D01*
G01*
X143509264Y127323583D02*
G75*
G02*
X144097000Y126931200I-1112264J-2302383D01*
G01*
%TO.C,Q3*%
X140215000Y142635800D02*
X140215000Y138785800D01*
X143013807Y138339400D02*
G75*
G03*
X144515000Y140695800I-1098807J2356400D01*
G01*
X140792955Y143018431D02*
G75*
G03*
X140215000Y142635800I1122045J-2322631D01*
G01*
X143013807Y143052200D02*
G75*
G02*
X144515000Y140695800I-1098807J-2356400D01*
G01*
X140802736Y138393417D02*
G75*
G02*
X140215000Y138785800I1112264J2302383D01*
G01*
%TO.C,Q2*%
X134881000Y142635800D02*
X134881000Y138785800D01*
X137679807Y138339400D02*
G75*
G03*
X139181000Y140695800I-1098807J2356400D01*
G01*
X135458955Y143018431D02*
G75*
G03*
X134881000Y142635800I1122045J-2322631D01*
G01*
X137679807Y143052200D02*
G75*
G02*
X139181000Y140695800I-1098807J-2356400D01*
G01*
X135468736Y138393417D02*
G75*
G02*
X134881000Y138785800I1112264J2302383D01*
G01*
%TO.C,Q1*%
X129547000Y142635800D02*
X129547000Y138785800D01*
X132345807Y138339400D02*
G75*
G03*
X133847000Y140695800I-1098807J2356400D01*
G01*
X130124955Y143018431D02*
G75*
G03*
X129547000Y142635800I1122045J-2322631D01*
G01*
X132345807Y143052200D02*
G75*
G02*
X133847000Y140695800I-1098807J-2356400D01*
G01*
X130134736Y138393417D02*
G75*
G02*
X129547000Y138785800I1112264J2302383D01*
G01*
%TO.C,Q4*%
X133429000Y123081200D02*
X133429000Y126931200D01*
X130630193Y127377600D02*
G75*
G03*
X129129000Y125021200I1098807J-2356400D01*
G01*
X132851045Y122698569D02*
G75*
G03*
X133429000Y123081200I-1122045J2322631D01*
G01*
X130630193Y122664800D02*
G75*
G02*
X129129000Y125021200I1098807J2356400D01*
G01*
X132841264Y127323583D02*
G75*
G02*
X133429000Y126931200I-1112264J-2302383D01*
G01*
%TO.C,C1*%
X179890000Y118184000D02*
X179890000Y114144000D01*
X181310000Y113454000D02*
X181310000Y114144000D01*
X179890000Y114144000D02*
X182730000Y114144000D01*
X182730000Y114144000D02*
X182730000Y118184000D01*
X182730000Y118184000D02*
X179890000Y118184000D01*
X181310000Y118874000D02*
X181310000Y118184000D01*
%TO.C,C2*%
X208592000Y118438000D02*
X208592000Y114398000D01*
X210012000Y113708000D02*
X210012000Y114398000D01*
X208592000Y114398000D02*
X211432000Y114398000D01*
X211432000Y114398000D02*
X211432000Y118438000D01*
X211432000Y118438000D02*
X208592000Y118438000D01*
X210012000Y119128000D02*
X210012000Y118438000D01*
%TO.C,D21*%
X101754000Y135334000D02*
X98814000Y135334000D01*
X98814000Y135334000D02*
X98814000Y129894000D01*
X98814000Y129894000D02*
X101754000Y129894000D01*
X101754000Y129894000D02*
X101754000Y135334000D01*
X100284000Y136354000D02*
X100284000Y135334000D01*
X100284000Y128874000D02*
X100284000Y129894000D01*
X101754000Y134434000D02*
X98814000Y134434000D01*
X101754000Y134314000D02*
X98814000Y134314000D01*
X101754000Y134554000D02*
X98814000Y134554000D01*
%TO.C,D22*%
X101627000Y100790000D02*
X98687000Y100790000D01*
X98687000Y100790000D02*
X98687000Y95350000D01*
X98687000Y95350000D02*
X101627000Y95350000D01*
X101627000Y95350000D02*
X101627000Y100790000D01*
X100157000Y101810000D02*
X100157000Y100790000D01*
X100157000Y94330000D02*
X100157000Y95350000D01*
X101627000Y99890000D02*
X98687000Y99890000D01*
X101627000Y99770000D02*
X98687000Y99770000D01*
X101627000Y100010000D02*
X98687000Y100010000D01*
%TO.C,D23*%
X101881000Y64722000D02*
X98941000Y64722000D01*
X98941000Y64722000D02*
X98941000Y59282000D01*
X98941000Y59282000D02*
X101881000Y59282000D01*
X101881000Y59282000D02*
X101881000Y64722000D01*
X100411000Y65742000D02*
X100411000Y64722000D01*
X100411000Y58262000D02*
X100411000Y59282000D01*
X101881000Y63822000D02*
X98941000Y63822000D01*
X101881000Y63702000D02*
X98941000Y63702000D01*
X101881000Y63942000D02*
X98941000Y63942000D01*
%TO.C,D41*%
X97436000Y135334000D02*
X94496000Y135334000D01*
X94496000Y135334000D02*
X94496000Y129894000D01*
X94496000Y129894000D02*
X97436000Y129894000D01*
X97436000Y129894000D02*
X97436000Y135334000D01*
X95966000Y136354000D02*
X95966000Y135334000D01*
X95966000Y128874000D02*
X95966000Y129894000D01*
X97436000Y134434000D02*
X94496000Y134434000D01*
X97436000Y134314000D02*
X94496000Y134314000D01*
X97436000Y134554000D02*
X94496000Y134554000D01*
%TO.C,D42*%
X97182000Y100790000D02*
X94242000Y100790000D01*
X94242000Y100790000D02*
X94242000Y95350000D01*
X94242000Y95350000D02*
X97182000Y95350000D01*
X97182000Y95350000D02*
X97182000Y100790000D01*
X95712000Y101810000D02*
X95712000Y100790000D01*
X95712000Y94330000D02*
X95712000Y95350000D01*
X97182000Y99890000D02*
X94242000Y99890000D01*
X97182000Y99770000D02*
X94242000Y99770000D01*
X97182000Y100010000D02*
X94242000Y100010000D01*
%TO.C,D43*%
X97055000Y64722000D02*
X94115000Y64722000D01*
X94115000Y64722000D02*
X94115000Y59282000D01*
X94115000Y59282000D02*
X97055000Y59282000D01*
X97055000Y59282000D02*
X97055000Y64722000D01*
X95585000Y65742000D02*
X95585000Y64722000D01*
X95585000Y58262000D02*
X95585000Y59282000D01*
X97055000Y63822000D02*
X94115000Y63822000D01*
X97055000Y63702000D02*
X94115000Y63702000D01*
X97055000Y63942000D02*
X94115000Y63942000D01*
%TO.C,DA1*%
X150884000Y7974000D02*
X153824000Y7974000D01*
X153824000Y7974000D02*
X153824000Y13414000D01*
X153824000Y13414000D02*
X150884000Y13414000D01*
X150884000Y13414000D02*
X150884000Y7974000D01*
X152354000Y6954000D02*
X152354000Y7974000D01*
X152354000Y14434000D02*
X152354000Y13414000D01*
X150884000Y8874000D02*
X153824000Y8874000D01*
X150884000Y8994000D02*
X153824000Y8994000D01*
X150884000Y8754000D02*
X153824000Y8754000D01*
%TO.C,DC1*%
X89562000Y28146000D02*
X86622000Y28146000D01*
X86622000Y28146000D02*
X86622000Y22706000D01*
X86622000Y22706000D02*
X89562000Y22706000D01*
X89562000Y22706000D02*
X89562000Y28146000D01*
X88092000Y29166000D02*
X88092000Y28146000D01*
X88092000Y21686000D02*
X88092000Y22706000D01*
X89562000Y27246000D02*
X86622000Y27246000D01*
X89562000Y27126000D02*
X86622000Y27126000D01*
X89562000Y27366000D02*
X86622000Y27366000D01*
%TO.C,DS1*%
X189638000Y13160000D02*
X186698000Y13160000D01*
X186698000Y13160000D02*
X186698000Y7720000D01*
X186698000Y7720000D02*
X189638000Y7720000D01*
X189638000Y7720000D02*
X189638000Y13160000D01*
X188168000Y14180000D02*
X188168000Y13160000D01*
X188168000Y6700000D02*
X188168000Y7720000D01*
X189638000Y12260000D02*
X186698000Y12260000D01*
X189638000Y12140000D02*
X186698000Y12140000D01*
X189638000Y12380000D02*
X186698000Y12380000D01*
%TO.C,Arduino Nano*%
X186260000Y23264000D02*
X204300000Y23264000D01*
X186260000Y66704000D02*
X186260000Y23264000D01*
X204300000Y66704000D02*
X186260000Y66704000D01*
X201630000Y64034000D02*
X204300000Y64034000D01*
X201630000Y28474000D02*
X201630000Y64034000D01*
X201630000Y28474000D02*
X204300000Y28474000D01*
X188930000Y64034000D02*
X186260000Y64034000D01*
X188930000Y25934000D02*
X188930000Y64034000D01*
X188930000Y25934000D02*
X186260000Y25934000D01*
X204300000Y23264000D02*
X204300000Y25934000D01*
X204300000Y28474000D02*
X204300000Y66704000D01*
X201630000Y25934000D02*
X204300000Y25934000D01*
X201630000Y28474000D02*
X201630000Y25934000D01*
%TO.C,Ecran 1602 LCD*%
X195594000Y154264000D02*
X195594000Y152934000D01*
X194264000Y154264000D02*
X195594000Y154264000D01*
X192994000Y154264000D02*
X192994000Y151604000D01*
X192994000Y151604000D02*
X154834000Y151604000D01*
X192994000Y154264000D02*
X154834000Y154264000D01*
X154834000Y154264000D02*
X154834000Y151604000D01*
%TO.C,+  -*%
X226014000Y7900000D02*
X213724000Y7900000D01*
X226014000Y18060000D02*
X213724000Y18060000D01*
X213724000Y5360000D02*
X213314000Y5360000D01*
X213724000Y7900000D02*
X213724000Y5360000D01*
X213724000Y15520000D02*
X213724000Y18060000D01*
X213314000Y15520000D02*
X213724000Y15520000D01*
X204614000Y5360000D02*
X213314000Y5360000D01*
X226014000Y18060000D02*
X226014000Y7900000D01*
X204614000Y5360000D02*
X204614000Y15520000D01*
X205694000Y15520000D02*
X204644000Y15520000D01*
X210774000Y15520000D02*
X213314000Y15520000D01*
X205694000Y15520000D02*
X210774000Y15520000D01*
%TO.C,Multiplexer*%
X167972000Y100740000D02*
X167972000Y82700000D01*
X211412000Y100740000D02*
X167972000Y100740000D01*
X211412000Y82700000D02*
X211412000Y100740000D01*
X208742000Y85370000D02*
X208742000Y82700000D01*
X173182000Y85370000D02*
X208742000Y85370000D01*
X173182000Y85370000D02*
X173182000Y82700000D01*
X208742000Y98070000D02*
X208742000Y100740000D01*
X170642000Y98070000D02*
X208742000Y98070000D01*
X170642000Y98070000D02*
X170642000Y100740000D01*
X167972000Y82700000D02*
X170642000Y82700000D01*
X173182000Y82700000D02*
X211412000Y82700000D01*
X170642000Y85370000D02*
X170642000Y82700000D01*
X173182000Y85370000D02*
X170642000Y85370000D01*
%TO.C,K21*%
X102570000Y127676000D02*
X102570000Y137676000D01*
X102570000Y137676000D02*
X122570000Y137676000D01*
X122570000Y137676000D02*
X122570000Y127676000D01*
X122570000Y127676000D02*
X102570000Y127676000D01*
%TO.C,K22*%
X102824000Y92816000D02*
X102824000Y102816000D01*
X102824000Y102816000D02*
X122824000Y102816000D01*
X122824000Y102816000D02*
X122824000Y92816000D01*
X122824000Y92816000D02*
X102824000Y92816000D01*
%TO.C,K23*%
X103078000Y56748000D02*
X103078000Y66748000D01*
X103078000Y66748000D02*
X123078000Y66748000D01*
X123078000Y66748000D02*
X123078000Y56748000D01*
X123078000Y56748000D02*
X103078000Y56748000D01*
%TO.C,KA1*%
X147274000Y15948000D02*
X147274000Y5948000D01*
X147274000Y5948000D02*
X127274000Y5948000D01*
X127274000Y5948000D02*
X127274000Y15948000D01*
X127274000Y15948000D02*
X147274000Y15948000D01*
%TO.C,Ki1*%
X95712000Y20680000D02*
X95712000Y30680000D01*
X95712000Y30680000D02*
X115712000Y30680000D01*
X115712000Y30680000D02*
X115712000Y20680000D01*
X115712000Y20680000D02*
X95712000Y20680000D01*
%TO.C,KS1*%
X183342000Y15948000D02*
X183342000Y5948000D01*
X183342000Y5948000D02*
X163342000Y5948000D01*
X163342000Y5948000D02*
X163342000Y15948000D01*
X163342000Y15948000D02*
X183342000Y15948000D01*
%TO.C,R1*%
X155910000Y135154000D02*
X155910000Y137694000D01*
X155910000Y137694000D02*
X150830000Y137694000D01*
X150830000Y137694000D02*
X150830000Y135154000D01*
X150830000Y135154000D02*
X155910000Y135154000D01*
X155910000Y135154000D02*
X150830000Y135154000D01*
X150830000Y136424000D02*
X150195000Y136424000D01*
X150195000Y136424000D02*
X150830000Y136424000D01*
X156545000Y136424000D02*
X155910000Y136424000D01*
%TO.C,R2*%
X155910000Y142774000D02*
X155910000Y145314000D01*
X155910000Y145314000D02*
X150830000Y145314000D01*
X150830000Y145314000D02*
X150830000Y142774000D01*
X150830000Y142774000D02*
X155910000Y142774000D01*
X155910000Y142774000D02*
X150830000Y142774000D01*
X150830000Y144044000D02*
X150195000Y144044000D01*
X150195000Y144044000D02*
X150830000Y144044000D01*
X156545000Y144044000D02*
X155910000Y144044000D01*
%TO.C,R3*%
X155910000Y138964000D02*
X155910000Y141504000D01*
X155910000Y141504000D02*
X150830000Y141504000D01*
X150830000Y141504000D02*
X150830000Y138964000D01*
X150830000Y138964000D02*
X155910000Y138964000D01*
X155910000Y138964000D02*
X150830000Y138964000D01*
X150830000Y140234000D02*
X150195000Y140234000D01*
X150195000Y140234000D02*
X150830000Y140234000D01*
X156545000Y140234000D02*
X155910000Y140234000D01*
%TO.C,R4*%
X155910000Y119914000D02*
X155910000Y122454000D01*
X155910000Y122454000D02*
X150830000Y122454000D01*
X150830000Y122454000D02*
X150830000Y119914000D01*
X150830000Y119914000D02*
X155910000Y119914000D01*
X155910000Y119914000D02*
X150830000Y119914000D01*
X150830000Y121184000D02*
X150195000Y121184000D01*
X150195000Y121184000D02*
X150830000Y121184000D01*
X156545000Y121184000D02*
X155910000Y121184000D01*
%TO.C,R5*%
X155910000Y127534000D02*
X155910000Y130074000D01*
X155910000Y130074000D02*
X150830000Y130074000D01*
X150830000Y130074000D02*
X150830000Y127534000D01*
X150830000Y127534000D02*
X155910000Y127534000D01*
X155910000Y127534000D02*
X150830000Y127534000D01*
X150830000Y128804000D02*
X150195000Y128804000D01*
X150195000Y128804000D02*
X150830000Y128804000D01*
X156545000Y128804000D02*
X155910000Y128804000D01*
%TO.C,R6*%
X155910000Y123724000D02*
X155910000Y126264000D01*
X155910000Y126264000D02*
X150830000Y126264000D01*
X150830000Y126264000D02*
X150830000Y123724000D01*
X150830000Y123724000D02*
X155910000Y123724000D01*
X155910000Y123724000D02*
X150830000Y123724000D01*
X150830000Y124994000D02*
X150195000Y124994000D01*
X150195000Y124994000D02*
X150830000Y124994000D01*
X156545000Y124994000D02*
X155910000Y124994000D01*
%TO.C,R7*%
X155910000Y100864000D02*
X155910000Y103404000D01*
X155910000Y103404000D02*
X150830000Y103404000D01*
X150830000Y103404000D02*
X150830000Y100864000D01*
X150830000Y100864000D02*
X155910000Y100864000D01*
X155910000Y100864000D02*
X150830000Y100864000D01*
X150830000Y102134000D02*
X150195000Y102134000D01*
X150195000Y102134000D02*
X150830000Y102134000D01*
X156545000Y102134000D02*
X155910000Y102134000D01*
%TO.C,R8*%
X155910000Y108484000D02*
X155910000Y111024000D01*
X155910000Y111024000D02*
X150830000Y111024000D01*
X150830000Y111024000D02*
X150830000Y108484000D01*
X150830000Y108484000D02*
X155910000Y108484000D01*
X155910000Y108484000D02*
X150830000Y108484000D01*
X150830000Y109754000D02*
X150195000Y109754000D01*
X150195000Y109754000D02*
X150830000Y109754000D01*
X156545000Y109754000D02*
X155910000Y109754000D01*
%TO.C,R9*%
X155910000Y104674000D02*
X155910000Y107214000D01*
X155910000Y107214000D02*
X150830000Y107214000D01*
X150830000Y107214000D02*
X150830000Y104674000D01*
X150830000Y104674000D02*
X155910000Y104674000D01*
X155910000Y104674000D02*
X150830000Y104674000D01*
X150830000Y105944000D02*
X150195000Y105944000D01*
X150195000Y105944000D02*
X150830000Y105944000D01*
X156545000Y105944000D02*
X155910000Y105944000D01*
%TO.C,R10*%
X155910000Y84608000D02*
X155910000Y87148000D01*
X155910000Y87148000D02*
X150830000Y87148000D01*
X150830000Y87148000D02*
X150830000Y84608000D01*
X150830000Y84608000D02*
X155910000Y84608000D01*
X155910000Y84608000D02*
X150830000Y84608000D01*
X150830000Y85878000D02*
X150195000Y85878000D01*
X150195000Y85878000D02*
X150830000Y85878000D01*
X156545000Y85878000D02*
X155910000Y85878000D01*
%TO.C,R11*%
X155910000Y92228000D02*
X155910000Y94768000D01*
X155910000Y94768000D02*
X150830000Y94768000D01*
X150830000Y94768000D02*
X150830000Y92228000D01*
X150830000Y92228000D02*
X155910000Y92228000D01*
X155910000Y92228000D02*
X150830000Y92228000D01*
X150830000Y93498000D02*
X150195000Y93498000D01*
X150195000Y93498000D02*
X150830000Y93498000D01*
X156545000Y93498000D02*
X155910000Y93498000D01*
%TO.C,R12*%
X155910000Y88418000D02*
X155910000Y90958000D01*
X155910000Y90958000D02*
X150830000Y90958000D01*
X150830000Y90958000D02*
X150830000Y88418000D01*
X150830000Y88418000D02*
X155910000Y88418000D01*
X155910000Y88418000D02*
X150830000Y88418000D01*
X150830000Y89688000D02*
X150195000Y89688000D01*
X150195000Y89688000D02*
X150830000Y89688000D01*
X156545000Y89688000D02*
X155910000Y89688000D01*
%TO.C,R13*%
X156164000Y65050000D02*
X156164000Y67590000D01*
X156164000Y67590000D02*
X151084000Y67590000D01*
X151084000Y67590000D02*
X151084000Y65050000D01*
X151084000Y65050000D02*
X156164000Y65050000D01*
X156164000Y65050000D02*
X151084000Y65050000D01*
X151084000Y66320000D02*
X150449000Y66320000D01*
X150449000Y66320000D02*
X151084000Y66320000D01*
X156799000Y66320000D02*
X156164000Y66320000D01*
%TO.C,R14*%
X156164000Y72670000D02*
X156164000Y75210000D01*
X156164000Y75210000D02*
X151084000Y75210000D01*
X151084000Y75210000D02*
X151084000Y72670000D01*
X151084000Y72670000D02*
X156164000Y72670000D01*
X156164000Y72670000D02*
X151084000Y72670000D01*
X151084000Y73940000D02*
X150449000Y73940000D01*
X150449000Y73940000D02*
X151084000Y73940000D01*
X156799000Y73940000D02*
X156164000Y73940000D01*
%TO.C,R15*%
X156164000Y68860000D02*
X156164000Y71400000D01*
X156164000Y71400000D02*
X151084000Y71400000D01*
X151084000Y71400000D02*
X151084000Y68860000D01*
X151084000Y68860000D02*
X156164000Y68860000D01*
X156164000Y68860000D02*
X151084000Y68860000D01*
X151084000Y70130000D02*
X150449000Y70130000D01*
X150449000Y70130000D02*
X151084000Y70130000D01*
X156799000Y70130000D02*
X156164000Y70130000D01*
%TO.C,R16*%
X156418000Y49048000D02*
X156418000Y51588000D01*
X156418000Y51588000D02*
X151338000Y51588000D01*
X151338000Y51588000D02*
X151338000Y49048000D01*
X151338000Y49048000D02*
X156418000Y49048000D01*
X156418000Y49048000D02*
X151338000Y49048000D01*
X151338000Y50318000D02*
X150703000Y50318000D01*
X150703000Y50318000D02*
X151338000Y50318000D01*
X157053000Y50318000D02*
X156418000Y50318000D01*
%TO.C,R17*%
X156418000Y56668000D02*
X156418000Y59208000D01*
X156418000Y59208000D02*
X151338000Y59208000D01*
X151338000Y59208000D02*
X151338000Y56668000D01*
X151338000Y56668000D02*
X156418000Y56668000D01*
X156418000Y56668000D02*
X151338000Y56668000D01*
X151338000Y57938000D02*
X150703000Y57938000D01*
X150703000Y57938000D02*
X151338000Y57938000D01*
X157053000Y57938000D02*
X156418000Y57938000D01*
%TO.C,R18*%
X156418000Y52858000D02*
X156418000Y55398000D01*
X156418000Y55398000D02*
X151338000Y55398000D01*
X151338000Y55398000D02*
X151338000Y52858000D01*
X151338000Y52858000D02*
X156418000Y52858000D01*
X156418000Y52858000D02*
X151338000Y52858000D01*
X151338000Y54128000D02*
X150703000Y54128000D01*
X150703000Y54128000D02*
X151338000Y54128000D01*
X157053000Y54128000D02*
X156418000Y54128000D01*
%TO.C,R19*%
X156418000Y44984000D02*
X156418000Y47524000D01*
X156418000Y47524000D02*
X151338000Y47524000D01*
X151338000Y47524000D02*
X151338000Y44984000D01*
X151338000Y44984000D02*
X156418000Y44984000D01*
X156418000Y44984000D02*
X151338000Y44984000D01*
X151338000Y46254000D02*
X150703000Y46254000D01*
X150703000Y46254000D02*
X151338000Y46254000D01*
X157053000Y46254000D02*
X156418000Y46254000D01*
%TO.C,R22*%
X164927000Y147727000D02*
X162387000Y147727000D01*
X162387000Y147727000D02*
X162387000Y142647000D01*
X162387000Y142647000D02*
X164927000Y142647000D01*
X164927000Y142647000D02*
X164927000Y147727000D01*
X164927000Y147727000D02*
X164927000Y142647000D01*
X163657000Y142647000D02*
X163657000Y142012000D01*
X163657000Y142012000D02*
X163657000Y142647000D01*
X163657000Y148362000D02*
X163657000Y147727000D01*
%TO.C,R23*%
X204424000Y150902000D02*
X204424000Y148362000D01*
X204424000Y148362000D02*
X209504000Y148362000D01*
X209504000Y148362000D02*
X209504000Y150902000D01*
X209504000Y150902000D02*
X204424000Y150902000D01*
X204424000Y150902000D02*
X209504000Y150902000D01*
X209504000Y149632000D02*
X210139000Y149632000D01*
X210139000Y149632000D02*
X209504000Y149632000D01*
X203789000Y149632000D02*
X204424000Y149632000D01*
%TO.C,Rb1*%
X182580000Y110262000D02*
X182580000Y107722000D01*
X182580000Y107722000D02*
X187660000Y107722000D01*
X187660000Y107722000D02*
X187660000Y110262000D01*
X187660000Y110262000D02*
X182580000Y110262000D01*
X182580000Y110262000D02*
X187660000Y110262000D01*
X187660000Y108992000D02*
X188295000Y108992000D01*
X188295000Y108992000D02*
X187660000Y108992000D01*
X181945000Y108992000D02*
X182580000Y108992000D01*
%TO.C,Rb2*%
X208742000Y107722000D02*
X208742000Y110262000D01*
X208742000Y110262000D02*
X203662000Y110262000D01*
X203662000Y110262000D02*
X203662000Y107722000D01*
X203662000Y107722000D02*
X208742000Y107722000D01*
X208742000Y107722000D02*
X203662000Y107722000D01*
X203662000Y108992000D02*
X203027000Y108992000D01*
X203027000Y108992000D02*
X203662000Y108992000D01*
X209377000Y108992000D02*
X208742000Y108992000D01*
%TO.C,RCal1*%
X173190000Y34730000D02*
X175730000Y34730000D01*
X175730000Y34730000D02*
X175730000Y39810000D01*
X175730000Y39810000D02*
X173190000Y39810000D01*
X173190000Y39810000D02*
X173190000Y34730000D01*
X173190000Y34730000D02*
X173190000Y39810000D01*
X174460000Y39810000D02*
X174460000Y40445000D01*
X174460000Y40445000D02*
X174460000Y39810000D01*
X174460000Y34095000D02*
X174460000Y34730000D01*
%TO.C,SW1*%
X186750000Y112250000D02*
X191250000Y112250000D01*
X185500000Y116250000D02*
X185500000Y114750000D01*
X191250000Y118750000D02*
X186750000Y118750000D01*
X192500000Y114750000D02*
X192500000Y116250000D01*
%TO.C,SW2*%
X199836000Y112250000D02*
X204336000Y112250000D01*
X198586000Y116250000D02*
X198586000Y114750000D01*
X204336000Y118750000D02*
X199836000Y118750000D01*
X205586000Y114750000D02*
X205586000Y116250000D01*
%TO.C,Voyant*%
X180330000Y77410000D02*
X177670000Y77410000D01*
X180330000Y72270000D02*
X180330000Y77410000D01*
X177670000Y72270000D02*
X177670000Y77410000D01*
X180330000Y72270000D02*
X177670000Y72270000D01*
X180330000Y71000000D02*
X180330000Y69670000D01*
X180330000Y69670000D02*
X179000000Y69670000D01*
%TO.C,J1*%
D11*
X27626666Y131103620D02*
X27626666Y130389334D01*
X27579047Y130246477D01*
X27483809Y130151239D01*
X27340952Y130103620D01*
X27245714Y130103620D01*
X28626666Y130103620D02*
X28055238Y130103620D01*
X28340952Y130103620D02*
X28340952Y131103620D01*
X28245714Y130960762D01*
X28150476Y130865524D01*
X28055238Y130817905D01*
%TO.C,J2*%
X27372666Y96497620D02*
X27372666Y95783334D01*
X27325047Y95640477D01*
X27229809Y95545239D01*
X27086952Y95497620D01*
X26991714Y95497620D01*
X27801238Y96402381D02*
X27848857Y96450000D01*
X27944095Y96497620D01*
X28182190Y96497620D01*
X28277428Y96450000D01*
X28325047Y96402381D01*
X28372666Y96307143D01*
X28372666Y96211905D01*
X28325047Y96069048D01*
X27753619Y95497620D01*
X28372666Y95497620D01*
%TO.C,J3*%
X27118666Y61191620D02*
X27118666Y60477334D01*
X27071047Y60334477D01*
X26975809Y60239239D01*
X26832952Y60191620D01*
X26737714Y60191620D01*
X27499619Y61191620D02*
X28118666Y61191620D01*
X27785333Y60810667D01*
X27928190Y60810667D01*
X28023428Y60763048D01*
X28071047Y60715429D01*
X28118666Y60620191D01*
X28118666Y60382096D01*
X28071047Y60286858D01*
X28023428Y60239239D01*
X27928190Y60191620D01*
X27642476Y60191620D01*
X27547238Y60239239D01*
X27499619Y60286858D01*
%TO.C,JC1*%
X27126666Y14455620D02*
X27126666Y13741334D01*
X27079047Y13598477D01*
X26983809Y13503239D01*
X26840952Y13455620D01*
X26745714Y13455620D01*
X28174285Y13550858D02*
X28126666Y13503239D01*
X27983809Y13455620D01*
X27888571Y13455620D01*
X27745714Y13503239D01*
X27650476Y13598477D01*
X27602857Y13693715D01*
X27555238Y13884191D01*
X27555238Y14027048D01*
X27602857Y14217524D01*
X27650476Y14312762D01*
X27745714Y14408000D01*
X27888571Y14455620D01*
X27983809Y14455620D01*
X28126666Y14408000D01*
X28174285Y14360381D01*
X29126666Y13455620D02*
X28555238Y13455620D01*
X28840952Y13455620D02*
X28840952Y14455620D01*
X28745714Y14312762D01*
X28650476Y14217524D01*
X28555238Y14169905D01*
%TO.C,JCI1*%
X26888571Y24615620D02*
X26888571Y23901334D01*
X26840952Y23758477D01*
X26745714Y23663239D01*
X26602857Y23615620D01*
X26507619Y23615620D01*
X27936190Y23710858D02*
X27888571Y23663239D01*
X27745714Y23615620D01*
X27650476Y23615620D01*
X27507619Y23663239D01*
X27412380Y23758477D01*
X27364761Y23853715D01*
X27317142Y24044191D01*
X27317142Y24187048D01*
X27364761Y24377524D01*
X27412380Y24472762D01*
X27507619Y24568000D01*
X27650476Y24615620D01*
X27745714Y24615620D01*
X27888571Y24568000D01*
X27936190Y24520381D01*
X28364761Y23615620D02*
X28364761Y24615620D01*
X29364761Y23615620D02*
X28793333Y23615620D01*
X29079047Y23615620D02*
X29079047Y24615620D01*
X28983809Y24472762D01*
X28888571Y24377524D01*
X28793333Y24329905D01*
%TO.C,K41*%
X89722514Y124935320D02*
X89722514Y125935320D01*
X90293942Y124935320D02*
X89865371Y125506748D01*
X90293942Y125935320D02*
X89722514Y125363891D01*
X91151085Y125601986D02*
X91151085Y124935320D01*
X90912990Y125982939D02*
X90674895Y125268653D01*
X91293942Y125268653D01*
X92198704Y124935320D02*
X91627276Y124935320D01*
X91912990Y124935320D02*
X91912990Y125935320D01*
X91817752Y125792462D01*
X91722514Y125697224D01*
X91627276Y125649605D01*
%TO.C,K42*%
X89328814Y90289720D02*
X89328814Y91289720D01*
X89900242Y90289720D02*
X89471671Y90861148D01*
X89900242Y91289720D02*
X89328814Y90718291D01*
X90757385Y90956386D02*
X90757385Y90289720D01*
X90519290Y91337339D02*
X90281195Y90623053D01*
X90900242Y90623053D01*
X91233576Y91194481D02*
X91281195Y91242100D01*
X91376433Y91289720D01*
X91614528Y91289720D01*
X91709766Y91242100D01*
X91757385Y91194481D01*
X91805004Y91099243D01*
X91805004Y91004005D01*
X91757385Y90861148D01*
X91185957Y90289720D01*
X91805004Y90289720D01*
%TO.C,K43*%
X89074814Y54247120D02*
X89074814Y55247120D01*
X89646242Y54247120D02*
X89217671Y54818548D01*
X89646242Y55247120D02*
X89074814Y54675691D01*
X90503385Y54913786D02*
X90503385Y54247120D01*
X90265290Y55294739D02*
X90027195Y54580453D01*
X90646242Y54580453D01*
X90931957Y55247120D02*
X91551004Y55247120D01*
X91217671Y54866167D01*
X91360528Y54866167D01*
X91455766Y54818548D01*
X91503385Y54770929D01*
X91551004Y54675691D01*
X91551004Y54437596D01*
X91503385Y54342358D01*
X91455766Y54294739D01*
X91360528Y54247120D01*
X91074814Y54247120D01*
X90979576Y54294739D01*
X90931957Y54342358D01*
%TO.C,KC1*%
X81773904Y17455220D02*
X81773904Y18455220D01*
X82345333Y17455220D02*
X81916761Y18026648D01*
X82345333Y18455220D02*
X81773904Y17883791D01*
X83345333Y17550458D02*
X83297714Y17502839D01*
X83154857Y17455220D01*
X83059619Y17455220D01*
X82916761Y17502839D01*
X82821523Y17598077D01*
X82773904Y17693315D01*
X82726285Y17883791D01*
X82726285Y18026648D01*
X82773904Y18217124D01*
X82821523Y18312362D01*
X82916761Y18407600D01*
X83059619Y18455220D01*
X83154857Y18455220D01*
X83297714Y18407600D01*
X83345333Y18359981D01*
X84297714Y17455220D02*
X83726285Y17455220D01*
X84012000Y17455220D02*
X84012000Y18455220D01*
X83916761Y18312362D01*
X83821523Y18217124D01*
X83726285Y18169505D01*
%TO.C,DI1*%
X92437109Y17531420D02*
X92437109Y18531420D01*
X92675204Y18531420D01*
X92818061Y18483800D01*
X92913300Y18388562D01*
X92960919Y18293324D01*
X93008538Y18102848D01*
X93008538Y17959991D01*
X92960919Y17769515D01*
X92913300Y17674277D01*
X92818061Y17579039D01*
X92675204Y17531420D01*
X92437109Y17531420D01*
X93437109Y17531420D02*
X93437109Y18531420D01*
X94437109Y17531420D02*
X93865680Y17531420D01*
X94151395Y17531420D02*
X94151395Y18531420D01*
X94056157Y18388562D01*
X93960919Y18293324D01*
X93865680Y18245705D01*
%TO.C,JUSB1*%
X223164666Y21865620D02*
X223164666Y21151334D01*
X223117047Y21008477D01*
X223021809Y20913239D01*
X222878952Y20865620D01*
X222783714Y20865620D01*
X223640857Y21865620D02*
X223640857Y21056096D01*
X223688476Y20960858D01*
X223736095Y20913239D01*
X223831333Y20865620D01*
X224021809Y20865620D01*
X224117047Y20913239D01*
X224164666Y20960858D01*
X224212285Y21056096D01*
X224212285Y21865620D01*
X224640857Y20913239D02*
X224783714Y20865620D01*
X225021809Y20865620D01*
X225117047Y20913239D01*
X225164666Y20960858D01*
X225212285Y21056096D01*
X225212285Y21151334D01*
X225164666Y21246572D01*
X225117047Y21294191D01*
X225021809Y21341810D01*
X224831333Y21389429D01*
X224736095Y21437048D01*
X224688476Y21484667D01*
X224640857Y21579905D01*
X224640857Y21675143D01*
X224688476Y21770381D01*
X224736095Y21818000D01*
X224831333Y21865620D01*
X225069428Y21865620D01*
X225212285Y21818000D01*
X225974190Y21389429D02*
X226117047Y21341810D01*
X226164666Y21294191D01*
X226212285Y21198953D01*
X226212285Y21056096D01*
X226164666Y20960858D01*
X226117047Y20913239D01*
X226021809Y20865620D01*
X225640857Y20865620D01*
X225640857Y21865620D01*
X225974190Y21865620D01*
X226069428Y21818000D01*
X226117047Y21770381D01*
X226164666Y21675143D01*
X226164666Y21579905D01*
X226117047Y21484667D01*
X226069428Y21437048D01*
X225974190Y21389429D01*
X225640857Y21389429D01*
X227164666Y20865620D02*
X226593238Y20865620D01*
X226878952Y20865620D02*
X226878952Y21865620D01*
X226783714Y21722762D01*
X226688476Y21627524D01*
X226593238Y21579905D01*
%TO.C,Q16*%
X131908519Y46546172D02*
X131860900Y46450934D01*
X131765661Y46355696D01*
X131622804Y46212839D01*
X131575185Y46117600D01*
X131575185Y46022362D01*
X131813280Y46069981D02*
X131765661Y45974743D01*
X131670423Y45879505D01*
X131479947Y45831886D01*
X131146614Y45831886D01*
X130956138Y45879505D01*
X130860900Y45974743D01*
X130813280Y46069981D01*
X130813280Y46260458D01*
X130860900Y46355696D01*
X130956138Y46450934D01*
X131146614Y46498553D01*
X131479947Y46498553D01*
X131670423Y46450934D01*
X131765661Y46355696D01*
X131813280Y46260458D01*
X131813280Y46069981D01*
X131813280Y47450934D02*
X131813280Y46879505D01*
X131813280Y47165220D02*
X130813280Y47165220D01*
X130956138Y47069981D01*
X131051376Y46974743D01*
X131098995Y46879505D01*
X130813280Y48308077D02*
X130813280Y48117600D01*
X130860900Y48022362D01*
X130908519Y47974743D01*
X131051376Y47879505D01*
X131241852Y47831886D01*
X131622804Y47831886D01*
X131718042Y47879505D01*
X131765661Y47927124D01*
X131813280Y48022362D01*
X131813280Y48212839D01*
X131765661Y48308077D01*
X131718042Y48355696D01*
X131622804Y48403315D01*
X131384709Y48403315D01*
X131289471Y48355696D01*
X131241852Y48308077D01*
X131194233Y48212839D01*
X131194233Y48022362D01*
X131241852Y47927124D01*
X131289471Y47879505D01*
X131384709Y47831886D01*
%TO.C,Q19*%
X132872271Y35190781D02*
X132777033Y35238400D01*
X132681795Y35333639D01*
X132538938Y35476496D01*
X132443700Y35524115D01*
X132348461Y35524115D01*
X132396080Y35286020D02*
X132300842Y35333639D01*
X132205604Y35428877D01*
X132157985Y35619353D01*
X132157985Y35952686D01*
X132205604Y36143162D01*
X132300842Y36238400D01*
X132396080Y36286020D01*
X132586557Y36286020D01*
X132681795Y36238400D01*
X132777033Y36143162D01*
X132824652Y35952686D01*
X132824652Y35619353D01*
X132777033Y35428877D01*
X132681795Y35333639D01*
X132586557Y35286020D01*
X132396080Y35286020D01*
X133777033Y35286020D02*
X133205604Y35286020D01*
X133491319Y35286020D02*
X133491319Y36286020D01*
X133396080Y36143162D01*
X133300842Y36047924D01*
X133205604Y36000305D01*
X134253223Y35286020D02*
X134443700Y35286020D01*
X134538938Y35333639D01*
X134586557Y35381258D01*
X134681795Y35524115D01*
X134729414Y35714591D01*
X134729414Y36095543D01*
X134681795Y36190781D01*
X134634176Y36238400D01*
X134538938Y36286020D01*
X134348461Y36286020D01*
X134253223Y36238400D01*
X134205604Y36190781D01*
X134157985Y36095543D01*
X134157985Y35857448D01*
X134205604Y35762210D01*
X134253223Y35714591D01*
X134348461Y35666972D01*
X134538938Y35666972D01*
X134634176Y35714591D01*
X134681795Y35762210D01*
X134729414Y35857448D01*
%TO.C,Q18*%
X142640019Y46546172D02*
X142592400Y46450934D01*
X142497161Y46355696D01*
X142354304Y46212839D01*
X142306685Y46117600D01*
X142306685Y46022362D01*
X142544780Y46069981D02*
X142497161Y45974743D01*
X142401923Y45879505D01*
X142211447Y45831886D01*
X141878114Y45831886D01*
X141687638Y45879505D01*
X141592400Y45974743D01*
X141544780Y46069981D01*
X141544780Y46260458D01*
X141592400Y46355696D01*
X141687638Y46450934D01*
X141878114Y46498553D01*
X142211447Y46498553D01*
X142401923Y46450934D01*
X142497161Y46355696D01*
X142544780Y46260458D01*
X142544780Y46069981D01*
X142544780Y47450934D02*
X142544780Y46879505D01*
X142544780Y47165220D02*
X141544780Y47165220D01*
X141687638Y47069981D01*
X141782876Y46974743D01*
X141830495Y46879505D01*
X141973352Y48022362D02*
X141925733Y47927124D01*
X141878114Y47879505D01*
X141782876Y47831886D01*
X141735257Y47831886D01*
X141640019Y47879505D01*
X141592400Y47927124D01*
X141544780Y48022362D01*
X141544780Y48212839D01*
X141592400Y48308077D01*
X141640019Y48355696D01*
X141735257Y48403315D01*
X141782876Y48403315D01*
X141878114Y48355696D01*
X141925733Y48308077D01*
X141973352Y48212839D01*
X141973352Y48022362D01*
X142020971Y47927124D01*
X142068590Y47879505D01*
X142163828Y47831886D01*
X142354304Y47831886D01*
X142449542Y47879505D01*
X142497161Y47927124D01*
X142544780Y48022362D01*
X142544780Y48212839D01*
X142497161Y48308077D01*
X142449542Y48355696D01*
X142354304Y48403315D01*
X142163828Y48403315D01*
X142068590Y48355696D01*
X142020971Y48308077D01*
X141973352Y48212839D01*
%TO.C,Q17*%
X137356819Y46584272D02*
X137309200Y46489034D01*
X137213961Y46393796D01*
X137071104Y46250939D01*
X137023485Y46155700D01*
X137023485Y46060462D01*
X137261580Y46108081D02*
X137213961Y46012843D01*
X137118723Y45917605D01*
X136928247Y45869986D01*
X136594914Y45869986D01*
X136404438Y45917605D01*
X136309200Y46012843D01*
X136261580Y46108081D01*
X136261580Y46298558D01*
X136309200Y46393796D01*
X136404438Y46489034D01*
X136594914Y46536653D01*
X136928247Y46536653D01*
X137118723Y46489034D01*
X137213961Y46393796D01*
X137261580Y46298558D01*
X137261580Y46108081D01*
X137261580Y47489034D02*
X137261580Y46917605D01*
X137261580Y47203320D02*
X136261580Y47203320D01*
X136404438Y47108081D01*
X136499676Y47012843D01*
X136547295Y46917605D01*
X136261580Y47822367D02*
X136261580Y48489034D01*
X137261580Y48060462D01*
%TO.C,Q15*%
X142525719Y76365772D02*
X142478100Y76270534D01*
X142382861Y76175296D01*
X142240004Y76032439D01*
X142192385Y75937200D01*
X142192385Y75841962D01*
X142430480Y75889581D02*
X142382861Y75794343D01*
X142287623Y75699105D01*
X142097147Y75651486D01*
X141763814Y75651486D01*
X141573338Y75699105D01*
X141478100Y75794343D01*
X141430480Y75889581D01*
X141430480Y76080058D01*
X141478100Y76175296D01*
X141573338Y76270534D01*
X141763814Y76318153D01*
X142097147Y76318153D01*
X142287623Y76270534D01*
X142382861Y76175296D01*
X142430480Y76080058D01*
X142430480Y75889581D01*
X142430480Y77270534D02*
X142430480Y76699105D01*
X142430480Y76984820D02*
X141430480Y76984820D01*
X141573338Y76889581D01*
X141668576Y76794343D01*
X141716195Y76699105D01*
X141430480Y78175296D02*
X141430480Y77699105D01*
X141906671Y77651486D01*
X141859052Y77699105D01*
X141811433Y77794343D01*
X141811433Y78032439D01*
X141859052Y78127677D01*
X141906671Y78175296D01*
X142001909Y78222915D01*
X142240004Y78222915D01*
X142335242Y78175296D01*
X142382861Y78127677D01*
X142430480Y78032439D01*
X142430480Y77794343D01*
X142382861Y77699105D01*
X142335242Y77651486D01*
%TO.C,Q14*%
X137217119Y76365772D02*
X137169500Y76270534D01*
X137074261Y76175296D01*
X136931404Y76032439D01*
X136883785Y75937200D01*
X136883785Y75841962D01*
X137121880Y75889581D02*
X137074261Y75794343D01*
X136979023Y75699105D01*
X136788547Y75651486D01*
X136455214Y75651486D01*
X136264738Y75699105D01*
X136169500Y75794343D01*
X136121880Y75889581D01*
X136121880Y76080058D01*
X136169500Y76175296D01*
X136264738Y76270534D01*
X136455214Y76318153D01*
X136788547Y76318153D01*
X136979023Y76270534D01*
X137074261Y76175296D01*
X137121880Y76080058D01*
X137121880Y75889581D01*
X137121880Y77270534D02*
X137121880Y76699105D01*
X137121880Y76984820D02*
X136121880Y76984820D01*
X136264738Y76889581D01*
X136359976Y76794343D01*
X136407595Y76699105D01*
X136455214Y78127677D02*
X137121880Y78127677D01*
X136074261Y77889581D02*
X136788547Y77651486D01*
X136788547Y78270534D01*
%TO.C,Q13*%
X131768819Y76403872D02*
X131721200Y76308634D01*
X131625961Y76213396D01*
X131483104Y76070539D01*
X131435485Y75975300D01*
X131435485Y75880062D01*
X131673580Y75927681D02*
X131625961Y75832443D01*
X131530723Y75737205D01*
X131340247Y75689586D01*
X131006914Y75689586D01*
X130816438Y75737205D01*
X130721200Y75832443D01*
X130673580Y75927681D01*
X130673580Y76118158D01*
X130721200Y76213396D01*
X130816438Y76308634D01*
X131006914Y76356253D01*
X131340247Y76356253D01*
X131530723Y76308634D01*
X131625961Y76213396D01*
X131673580Y76118158D01*
X131673580Y75927681D01*
X131673580Y77308634D02*
X131673580Y76737205D01*
X131673580Y77022920D02*
X130673580Y77022920D01*
X130816438Y76927681D01*
X130911676Y76832443D01*
X130959295Y76737205D01*
X130673580Y77641967D02*
X130673580Y78261015D01*
X131054533Y77927681D01*
X131054533Y78070539D01*
X131102152Y78165777D01*
X131149771Y78213396D01*
X131245009Y78261015D01*
X131483104Y78261015D01*
X131578342Y78213396D01*
X131625961Y78165777D01*
X131673580Y78070539D01*
X131673580Y77784824D01*
X131625961Y77689586D01*
X131578342Y77641967D01*
%TO.C,Q11*%
X137420319Y82766572D02*
X137372700Y82671334D01*
X137277461Y82576096D01*
X137134604Y82433239D01*
X137086985Y82338000D01*
X137086985Y82242762D01*
X137325080Y82290381D02*
X137277461Y82195143D01*
X137182223Y82099905D01*
X136991747Y82052286D01*
X136658414Y82052286D01*
X136467938Y82099905D01*
X136372700Y82195143D01*
X136325080Y82290381D01*
X136325080Y82480858D01*
X136372700Y82576096D01*
X136467938Y82671334D01*
X136658414Y82718953D01*
X136991747Y82718953D01*
X137182223Y82671334D01*
X137277461Y82576096D01*
X137325080Y82480858D01*
X137325080Y82290381D01*
X137325080Y83671334D02*
X137325080Y83099905D01*
X137325080Y83385620D02*
X136325080Y83385620D01*
X136467938Y83290381D01*
X136563176Y83195143D01*
X136610795Y83099905D01*
X137325080Y84623715D02*
X137325080Y84052286D01*
X137325080Y84338000D02*
X136325080Y84338000D01*
X136467938Y84242762D01*
X136563176Y84147524D01*
X136610795Y84052286D01*
%TO.C,Q12*%
X142830519Y82677672D02*
X142782900Y82582434D01*
X142687661Y82487196D01*
X142544804Y82344339D01*
X142497185Y82249100D01*
X142497185Y82153862D01*
X142735280Y82201481D02*
X142687661Y82106243D01*
X142592423Y82011005D01*
X142401947Y81963386D01*
X142068614Y81963386D01*
X141878138Y82011005D01*
X141782900Y82106243D01*
X141735280Y82201481D01*
X141735280Y82391958D01*
X141782900Y82487196D01*
X141878138Y82582434D01*
X142068614Y82630053D01*
X142401947Y82630053D01*
X142592423Y82582434D01*
X142687661Y82487196D01*
X142735280Y82391958D01*
X142735280Y82201481D01*
X142735280Y83582434D02*
X142735280Y83011005D01*
X142735280Y83296720D02*
X141735280Y83296720D01*
X141878138Y83201481D01*
X141973376Y83106243D01*
X142020995Y83011005D01*
X141830519Y83963386D02*
X141782900Y84011005D01*
X141735280Y84106243D01*
X141735280Y84344339D01*
X141782900Y84439577D01*
X141830519Y84487196D01*
X141925757Y84534815D01*
X142020995Y84534815D01*
X142163852Y84487196D01*
X142735280Y83915767D01*
X142735280Y84534815D01*
%TO.C,Q9*%
X142728919Y111970162D02*
X142681300Y111874924D01*
X142586061Y111779686D01*
X142443204Y111636829D01*
X142395585Y111541591D01*
X142395585Y111446353D01*
X142633680Y111493972D02*
X142586061Y111398734D01*
X142490823Y111303496D01*
X142300347Y111255877D01*
X141967014Y111255877D01*
X141776538Y111303496D01*
X141681300Y111398734D01*
X141633680Y111493972D01*
X141633680Y111684448D01*
X141681300Y111779686D01*
X141776538Y111874924D01*
X141967014Y111922543D01*
X142300347Y111922543D01*
X142490823Y111874924D01*
X142586061Y111779686D01*
X142633680Y111684448D01*
X142633680Y111493972D01*
X142633680Y112398734D02*
X142633680Y112589210D01*
X142586061Y112684448D01*
X142538442Y112732067D01*
X142395585Y112827305D01*
X142205109Y112874924D01*
X141824157Y112874924D01*
X141728919Y112827305D01*
X141681300Y112779686D01*
X141633680Y112684448D01*
X141633680Y112493972D01*
X141681300Y112398734D01*
X141728919Y112351115D01*
X141824157Y112303496D01*
X142062252Y112303496D01*
X142157490Y112351115D01*
X142205109Y112398734D01*
X142252728Y112493972D01*
X142252728Y112684448D01*
X142205109Y112779686D01*
X142157490Y112827305D01*
X142062252Y112874924D01*
%TO.C,Q8*%
X137420319Y112084462D02*
X137372700Y111989224D01*
X137277461Y111893986D01*
X137134604Y111751129D01*
X137086985Y111655891D01*
X137086985Y111560653D01*
X137325080Y111608272D02*
X137277461Y111513034D01*
X137182223Y111417796D01*
X136991747Y111370177D01*
X136658414Y111370177D01*
X136467938Y111417796D01*
X136372700Y111513034D01*
X136325080Y111608272D01*
X136325080Y111798748D01*
X136372700Y111893986D01*
X136467938Y111989224D01*
X136658414Y112036843D01*
X136991747Y112036843D01*
X137182223Y111989224D01*
X137277461Y111893986D01*
X137325080Y111798748D01*
X137325080Y111608272D01*
X136753652Y112608272D02*
X136706033Y112513034D01*
X136658414Y112465415D01*
X136563176Y112417796D01*
X136515557Y112417796D01*
X136420319Y112465415D01*
X136372700Y112513034D01*
X136325080Y112608272D01*
X136325080Y112798748D01*
X136372700Y112893986D01*
X136420319Y112941605D01*
X136515557Y112989224D01*
X136563176Y112989224D01*
X136658414Y112941605D01*
X136706033Y112893986D01*
X136753652Y112798748D01*
X136753652Y112608272D01*
X136801271Y112513034D01*
X136848890Y112465415D01*
X136944128Y112417796D01*
X137134604Y112417796D01*
X137229842Y112465415D01*
X137277461Y112513034D01*
X137325080Y112608272D01*
X137325080Y112798748D01*
X137277461Y112893986D01*
X137229842Y112941605D01*
X137134604Y112989224D01*
X136944128Y112989224D01*
X136848890Y112941605D01*
X136801271Y112893986D01*
X136753652Y112798748D01*
%TO.C,Q7*%
X132073619Y112122562D02*
X132026000Y112027324D01*
X131930761Y111932086D01*
X131787904Y111789229D01*
X131740285Y111693991D01*
X131740285Y111598753D01*
X131978380Y111646372D02*
X131930761Y111551134D01*
X131835523Y111455896D01*
X131645047Y111408277D01*
X131311714Y111408277D01*
X131121238Y111455896D01*
X131026000Y111551134D01*
X130978380Y111646372D01*
X130978380Y111836848D01*
X131026000Y111932086D01*
X131121238Y112027324D01*
X131311714Y112074943D01*
X131645047Y112074943D01*
X131835523Y112027324D01*
X131930761Y111932086D01*
X131978380Y111836848D01*
X131978380Y111646372D01*
X130978380Y112408277D02*
X130978380Y113074943D01*
X131978380Y112646372D01*
%TO.C,Q10*%
X132213319Y82677672D02*
X132165700Y82582434D01*
X132070461Y82487196D01*
X131927604Y82344339D01*
X131879985Y82249100D01*
X131879985Y82153862D01*
X132118080Y82201481D02*
X132070461Y82106243D01*
X131975223Y82011005D01*
X131784747Y81963386D01*
X131451414Y81963386D01*
X131260938Y82011005D01*
X131165700Y82106243D01*
X131118080Y82201481D01*
X131118080Y82391958D01*
X131165700Y82487196D01*
X131260938Y82582434D01*
X131451414Y82630053D01*
X131784747Y82630053D01*
X131975223Y82582434D01*
X132070461Y82487196D01*
X132118080Y82391958D01*
X132118080Y82201481D01*
X132118080Y83582434D02*
X132118080Y83011005D01*
X132118080Y83296720D02*
X131118080Y83296720D01*
X131260938Y83201481D01*
X131356176Y83106243D01*
X131403795Y83011005D01*
X131118080Y84201481D02*
X131118080Y84296720D01*
X131165700Y84391958D01*
X131213319Y84439577D01*
X131308557Y84487196D01*
X131499033Y84534815D01*
X131737128Y84534815D01*
X131927604Y84487196D01*
X132022842Y84439577D01*
X132070461Y84391958D01*
X132118080Y84296720D01*
X132118080Y84201481D01*
X132070461Y84106243D01*
X132022842Y84058624D01*
X131927604Y84011005D01*
X131737128Y83963386D01*
X131499033Y83963386D01*
X131308557Y84011005D01*
X131213319Y84058624D01*
X131165700Y84106243D01*
X131118080Y84201481D01*
%TO.C,Q5*%
X137687019Y118472562D02*
X137639400Y118377324D01*
X137544161Y118282086D01*
X137401304Y118139229D01*
X137353685Y118043991D01*
X137353685Y117948753D01*
X137591780Y117996372D02*
X137544161Y117901134D01*
X137448923Y117805896D01*
X137258447Y117758277D01*
X136925114Y117758277D01*
X136734638Y117805896D01*
X136639400Y117901134D01*
X136591780Y117996372D01*
X136591780Y118186848D01*
X136639400Y118282086D01*
X136734638Y118377324D01*
X136925114Y118424943D01*
X137258447Y118424943D01*
X137448923Y118377324D01*
X137544161Y118282086D01*
X137591780Y118186848D01*
X137591780Y117996372D01*
X136591780Y119329705D02*
X136591780Y118853515D01*
X137067971Y118805896D01*
X137020352Y118853515D01*
X136972733Y118948753D01*
X136972733Y119186848D01*
X137020352Y119282086D01*
X137067971Y119329705D01*
X137163209Y119377324D01*
X137401304Y119377324D01*
X137496542Y119329705D01*
X137544161Y119282086D01*
X137591780Y119186848D01*
X137591780Y118948753D01*
X137544161Y118853515D01*
X137496542Y118805896D01*
%TO.C,Q6*%
X142970219Y118472562D02*
X142922600Y118377324D01*
X142827361Y118282086D01*
X142684504Y118139229D01*
X142636885Y118043991D01*
X142636885Y117948753D01*
X142874980Y117996372D02*
X142827361Y117901134D01*
X142732123Y117805896D01*
X142541647Y117758277D01*
X142208314Y117758277D01*
X142017838Y117805896D01*
X141922600Y117901134D01*
X141874980Y117996372D01*
X141874980Y118186848D01*
X141922600Y118282086D01*
X142017838Y118377324D01*
X142208314Y118424943D01*
X142541647Y118424943D01*
X142732123Y118377324D01*
X142827361Y118282086D01*
X142874980Y118186848D01*
X142874980Y117996372D01*
X141874980Y119282086D02*
X141874980Y119091610D01*
X141922600Y118996372D01*
X141970219Y118948753D01*
X142113076Y118853515D01*
X142303552Y118805896D01*
X142684504Y118805896D01*
X142779742Y118853515D01*
X142827361Y118901134D01*
X142874980Y118996372D01*
X142874980Y119186848D01*
X142827361Y119282086D01*
X142779742Y119329705D01*
X142684504Y119377324D01*
X142446409Y119377324D01*
X142351171Y119329705D01*
X142303552Y119282086D01*
X142255933Y119186848D01*
X142255933Y118996372D01*
X142303552Y118901134D01*
X142351171Y118853515D01*
X142446409Y118805896D01*
%TO.C,Q3*%
X142411419Y146869762D02*
X142363800Y146774524D01*
X142268561Y146679286D01*
X142125704Y146536429D01*
X142078085Y146441191D01*
X142078085Y146345953D01*
X142316180Y146393572D02*
X142268561Y146298334D01*
X142173323Y146203096D01*
X141982847Y146155477D01*
X141649514Y146155477D01*
X141459038Y146203096D01*
X141363800Y146298334D01*
X141316180Y146393572D01*
X141316180Y146584048D01*
X141363800Y146679286D01*
X141459038Y146774524D01*
X141649514Y146822143D01*
X141982847Y146822143D01*
X142173323Y146774524D01*
X142268561Y146679286D01*
X142316180Y146584048D01*
X142316180Y146393572D01*
X141316180Y147155477D02*
X141316180Y147774524D01*
X141697133Y147441191D01*
X141697133Y147584048D01*
X141744752Y147679286D01*
X141792371Y147726905D01*
X141887609Y147774524D01*
X142125704Y147774524D01*
X142220942Y147726905D01*
X142268561Y147679286D01*
X142316180Y147584048D01*
X142316180Y147298334D01*
X142268561Y147203096D01*
X142220942Y147155477D01*
%TO.C,Q2*%
X136975819Y146920562D02*
X136928200Y146825324D01*
X136832961Y146730086D01*
X136690104Y146587229D01*
X136642485Y146491991D01*
X136642485Y146396753D01*
X136880580Y146444372D02*
X136832961Y146349134D01*
X136737723Y146253896D01*
X136547247Y146206277D01*
X136213914Y146206277D01*
X136023438Y146253896D01*
X135928200Y146349134D01*
X135880580Y146444372D01*
X135880580Y146634848D01*
X135928200Y146730086D01*
X136023438Y146825324D01*
X136213914Y146872943D01*
X136547247Y146872943D01*
X136737723Y146825324D01*
X136832961Y146730086D01*
X136880580Y146634848D01*
X136880580Y146444372D01*
X135975819Y147253896D02*
X135928200Y147301515D01*
X135880580Y147396753D01*
X135880580Y147634848D01*
X135928200Y147730086D01*
X135975819Y147777705D01*
X136071057Y147825324D01*
X136166295Y147825324D01*
X136309152Y147777705D01*
X136880580Y147206277D01*
X136880580Y147825324D01*
%TO.C,Q1*%
X131743419Y147136462D02*
X131695800Y147041224D01*
X131600561Y146945986D01*
X131457704Y146803129D01*
X131410085Y146707891D01*
X131410085Y146612653D01*
X131648180Y146660272D02*
X131600561Y146565034D01*
X131505323Y146469796D01*
X131314847Y146422177D01*
X130981514Y146422177D01*
X130791038Y146469796D01*
X130695800Y146565034D01*
X130648180Y146660272D01*
X130648180Y146850748D01*
X130695800Y146945986D01*
X130791038Y147041224D01*
X130981514Y147088843D01*
X131314847Y147088843D01*
X131505323Y147041224D01*
X131600561Y146945986D01*
X131648180Y146850748D01*
X131648180Y146660272D01*
X131648180Y148041224D02*
X131648180Y147469796D01*
X131648180Y147755510D02*
X130648180Y147755510D01*
X130791038Y147660272D01*
X130886276Y147565034D01*
X130933895Y147469796D01*
%TO.C,Q4*%
X132353019Y118421762D02*
X132305400Y118326524D01*
X132210161Y118231286D01*
X132067304Y118088429D01*
X132019685Y117993191D01*
X132019685Y117897953D01*
X132257780Y117945572D02*
X132210161Y117850334D01*
X132114923Y117755096D01*
X131924447Y117707477D01*
X131591114Y117707477D01*
X131400638Y117755096D01*
X131305400Y117850334D01*
X131257780Y117945572D01*
X131257780Y118136048D01*
X131305400Y118231286D01*
X131400638Y118326524D01*
X131591114Y118374143D01*
X131924447Y118374143D01*
X132114923Y118326524D01*
X132210161Y118231286D01*
X132257780Y118136048D01*
X132257780Y117945572D01*
X131591114Y119231286D02*
X132257780Y119231286D01*
X131210161Y118993191D02*
X131924447Y118755096D01*
X131924447Y119374143D01*
%TO.C,C1*%
X181603642Y116026234D02*
X181651261Y115978615D01*
X181698880Y115835758D01*
X181698880Y115740520D01*
X181651261Y115597662D01*
X181556023Y115502424D01*
X181460785Y115454805D01*
X181270309Y115407186D01*
X181127452Y115407186D01*
X180936976Y115454805D01*
X180841738Y115502424D01*
X180746500Y115597662D01*
X180698880Y115740520D01*
X180698880Y115835758D01*
X180746500Y115978615D01*
X180794119Y116026234D01*
X181698880Y116978615D02*
X181698880Y116407186D01*
X181698880Y116692900D02*
X180698880Y116692900D01*
X180841738Y116597662D01*
X180936976Y116502424D01*
X180984595Y116407186D01*
%TO.C,C2*%
X210419942Y116292934D02*
X210467561Y116245315D01*
X210515180Y116102458D01*
X210515180Y116007220D01*
X210467561Y115864362D01*
X210372323Y115769124D01*
X210277085Y115721505D01*
X210086609Y115673886D01*
X209943752Y115673886D01*
X209753276Y115721505D01*
X209658038Y115769124D01*
X209562800Y115864362D01*
X209515180Y116007220D01*
X209515180Y116102458D01*
X209562800Y116245315D01*
X209610419Y116292934D01*
X209610419Y116673886D02*
X209562800Y116721505D01*
X209515180Y116816743D01*
X209515180Y117054839D01*
X209562800Y117150077D01*
X209610419Y117197696D01*
X209705657Y117245315D01*
X209800895Y117245315D01*
X209943752Y117197696D01*
X210515180Y116626267D01*
X210515180Y117245315D01*
%TO.C,D21*%
X99095114Y124821020D02*
X99095114Y125821020D01*
X99333209Y125821020D01*
X99476066Y125773400D01*
X99571304Y125678162D01*
X99618923Y125582924D01*
X99666542Y125392448D01*
X99666542Y125249591D01*
X99618923Y125059115D01*
X99571304Y124963877D01*
X99476066Y124868639D01*
X99333209Y124821020D01*
X99095114Y124821020D01*
X100047495Y125725781D02*
X100095114Y125773400D01*
X100190352Y125821020D01*
X100428447Y125821020D01*
X100523685Y125773400D01*
X100571304Y125725781D01*
X100618923Y125630543D01*
X100618923Y125535305D01*
X100571304Y125392448D01*
X99999876Y124821020D01*
X100618923Y124821020D01*
X101571304Y124821020D02*
X100999876Y124821020D01*
X101285590Y124821020D02*
X101285590Y125821020D01*
X101190352Y125678162D01*
X101095114Y125582924D01*
X100999876Y125535305D01*
%TO.C,D22*%
X99018914Y90277020D02*
X99018914Y91277020D01*
X99257009Y91277020D01*
X99399866Y91229400D01*
X99495104Y91134162D01*
X99542723Y91038924D01*
X99590342Y90848448D01*
X99590342Y90705591D01*
X99542723Y90515115D01*
X99495104Y90419877D01*
X99399866Y90324639D01*
X99257009Y90277020D01*
X99018914Y90277020D01*
X99971295Y91181781D02*
X100018914Y91229400D01*
X100114152Y91277020D01*
X100352247Y91277020D01*
X100447485Y91229400D01*
X100495104Y91181781D01*
X100542723Y91086543D01*
X100542723Y90991305D01*
X100495104Y90848448D01*
X99923676Y90277020D01*
X100542723Y90277020D01*
X100923676Y91181781D02*
X100971295Y91229400D01*
X101066533Y91277020D01*
X101304628Y91277020D01*
X101399866Y91229400D01*
X101447485Y91181781D01*
X101495104Y91086543D01*
X101495104Y90991305D01*
X101447485Y90848448D01*
X100876057Y90277020D01*
X101495104Y90277020D01*
%TO.C,D23*%
X99336414Y54310620D02*
X99336414Y55310620D01*
X99574509Y55310620D01*
X99717366Y55263000D01*
X99812604Y55167762D01*
X99860223Y55072524D01*
X99907842Y54882048D01*
X99907842Y54739191D01*
X99860223Y54548715D01*
X99812604Y54453477D01*
X99717366Y54358239D01*
X99574509Y54310620D01*
X99336414Y54310620D01*
X100288795Y55215381D02*
X100336414Y55263000D01*
X100431652Y55310620D01*
X100669747Y55310620D01*
X100764985Y55263000D01*
X100812604Y55215381D01*
X100860223Y55120143D01*
X100860223Y55024905D01*
X100812604Y54882048D01*
X100241176Y54310620D01*
X100860223Y54310620D01*
X101193557Y55310620D02*
X101812604Y55310620D01*
X101479271Y54929667D01*
X101622128Y54929667D01*
X101717366Y54882048D01*
X101764985Y54834429D01*
X101812604Y54739191D01*
X101812604Y54501096D01*
X101764985Y54405858D01*
X101717366Y54358239D01*
X101622128Y54310620D01*
X101336414Y54310620D01*
X101241176Y54358239D01*
X101193557Y54405858D01*
X102963380Y66820096D02*
X101963380Y66820096D01*
X102963380Y67391524D02*
X102391952Y66962953D01*
X101963380Y67391524D02*
X102534809Y66820096D01*
%TO.C,D41*%
X94802514Y124859120D02*
X94802514Y125859120D01*
X95040609Y125859120D01*
X95183466Y125811500D01*
X95278704Y125716262D01*
X95326323Y125621024D01*
X95373942Y125430548D01*
X95373942Y125287691D01*
X95326323Y125097215D01*
X95278704Y125001977D01*
X95183466Y124906739D01*
X95040609Y124859120D01*
X94802514Y124859120D01*
X96231085Y125525786D02*
X96231085Y124859120D01*
X95992990Y125906739D02*
X95754895Y125192453D01*
X96373942Y125192453D01*
X97278704Y124859120D02*
X96707276Y124859120D01*
X96992990Y124859120D02*
X96992990Y125859120D01*
X96897752Y125716262D01*
X96802514Y125621024D01*
X96707276Y125573405D01*
%TO.C,D42*%
X94573914Y90315120D02*
X94573914Y91315120D01*
X94812009Y91315120D01*
X94954866Y91267500D01*
X95050104Y91172262D01*
X95097723Y91077024D01*
X95145342Y90886548D01*
X95145342Y90743691D01*
X95097723Y90553215D01*
X95050104Y90457977D01*
X94954866Y90362739D01*
X94812009Y90315120D01*
X94573914Y90315120D01*
X96002485Y90981786D02*
X96002485Y90315120D01*
X95764390Y91362739D02*
X95526295Y90648453D01*
X96145342Y90648453D01*
X96478676Y91219881D02*
X96526295Y91267500D01*
X96621533Y91315120D01*
X96859628Y91315120D01*
X96954866Y91267500D01*
X97002485Y91219881D01*
X97050104Y91124643D01*
X97050104Y91029405D01*
X97002485Y90886548D01*
X96431057Y90315120D01*
X97050104Y90315120D01*
X98264380Y102888096D02*
X97264380Y102888096D01*
X98264380Y103459524D02*
X97692952Y103030953D01*
X97264380Y103459524D02*
X97835809Y102888096D01*
%TO.C,D43*%
X94434214Y54259820D02*
X94434214Y55259820D01*
X94672309Y55259820D01*
X94815166Y55212200D01*
X94910404Y55116962D01*
X94958023Y55021724D01*
X95005642Y54831248D01*
X95005642Y54688391D01*
X94958023Y54497915D01*
X94910404Y54402677D01*
X94815166Y54307439D01*
X94672309Y54259820D01*
X94434214Y54259820D01*
X95862785Y54926486D02*
X95862785Y54259820D01*
X95624690Y55307439D02*
X95386595Y54593153D01*
X96005642Y54593153D01*
X96291357Y55259820D02*
X96910404Y55259820D01*
X96577071Y54878867D01*
X96719928Y54878867D01*
X96815166Y54831248D01*
X96862785Y54783629D01*
X96910404Y54688391D01*
X96910404Y54450296D01*
X96862785Y54355058D01*
X96815166Y54307439D01*
X96719928Y54259820D01*
X96434214Y54259820D01*
X96338976Y54307439D01*
X96291357Y54355058D01*
X98137380Y66820096D02*
X97137380Y66820096D01*
X98137380Y67391524D02*
X97565952Y66962953D01*
X97137380Y67391524D02*
X97708809Y66820096D01*
%TO.C,DA1*%
X155765480Y9946434D02*
X154765480Y9946434D01*
X154765480Y10184529D01*
X154813100Y10327386D01*
X154908338Y10422624D01*
X155003576Y10470243D01*
X155194052Y10517862D01*
X155336909Y10517862D01*
X155527385Y10470243D01*
X155622623Y10422624D01*
X155717861Y10327386D01*
X155765480Y10184529D01*
X155765480Y9946434D01*
X155479766Y10898815D02*
X155479766Y11375005D01*
X155765480Y10803577D02*
X154765480Y11136910D01*
X155765480Y11470243D01*
X155765480Y12327386D02*
X155765480Y11755958D01*
X155765480Y12041672D02*
X154765480Y12041672D01*
X154908338Y11946434D01*
X155003576Y11851196D01*
X155051195Y11755958D01*
%TO.C,DC1*%
X86942804Y17493320D02*
X86942804Y18493320D01*
X87180900Y18493320D01*
X87323757Y18445700D01*
X87418995Y18350462D01*
X87466614Y18255224D01*
X87514233Y18064748D01*
X87514233Y17921891D01*
X87466614Y17731415D01*
X87418995Y17636177D01*
X87323757Y17540939D01*
X87180900Y17493320D01*
X86942804Y17493320D01*
X88514233Y17588558D02*
X88466614Y17540939D01*
X88323757Y17493320D01*
X88228519Y17493320D01*
X88085661Y17540939D01*
X87990423Y17636177D01*
X87942804Y17731415D01*
X87895185Y17921891D01*
X87895185Y18064748D01*
X87942804Y18255224D01*
X87990423Y18350462D01*
X88085661Y18445700D01*
X88228519Y18493320D01*
X88323757Y18493320D01*
X88466614Y18445700D01*
X88514233Y18398081D01*
X89466614Y17493320D02*
X88895185Y17493320D01*
X89180900Y17493320D02*
X89180900Y18493320D01*
X89085661Y18350462D01*
X88990423Y18255224D01*
X88895185Y18207605D01*
X90644380Y30244096D02*
X89644380Y30244096D01*
X90644380Y30815524D02*
X90072952Y30386953D01*
X89644380Y30815524D02*
X90215809Y30244096D01*
%TO.C,DS1*%
X191541380Y9073315D02*
X190541380Y9073315D01*
X190541380Y9311410D01*
X190589000Y9454267D01*
X190684238Y9549505D01*
X190779476Y9597124D01*
X190969952Y9644743D01*
X191112809Y9644743D01*
X191303285Y9597124D01*
X191398523Y9549505D01*
X191493761Y9454267D01*
X191541380Y9311410D01*
X191541380Y9073315D01*
X191493761Y10025696D02*
X191541380Y10168553D01*
X191541380Y10406648D01*
X191493761Y10501886D01*
X191446142Y10549505D01*
X191350904Y10597124D01*
X191255666Y10597124D01*
X191160428Y10549505D01*
X191112809Y10501886D01*
X191065190Y10406648D01*
X191017571Y10216172D01*
X190969952Y10120934D01*
X190922333Y10073315D01*
X190827095Y10025696D01*
X190731857Y10025696D01*
X190636619Y10073315D01*
X190589000Y10120934D01*
X190541380Y10216172D01*
X190541380Y10454267D01*
X190589000Y10597124D01*
X191541380Y11549505D02*
X191541380Y10978077D01*
X191541380Y11263791D02*
X190541380Y11263791D01*
X190684238Y11168553D01*
X190779476Y11073315D01*
X190827095Y10978077D01*
%TO.C,Arduino Nano*%
X190422857Y21957334D02*
X190899047Y21957334D01*
X190327619Y21671620D02*
X190660952Y22671620D01*
X190994285Y21671620D01*
X191327619Y21671620D02*
X191327619Y22338286D01*
X191327619Y22147810D02*
X191375238Y22243048D01*
X191422857Y22290667D01*
X191518095Y22338286D01*
X191613333Y22338286D01*
X192375238Y21671620D02*
X192375238Y22671620D01*
X192375238Y21719239D02*
X192280000Y21671620D01*
X192089523Y21671620D01*
X191994285Y21719239D01*
X191946666Y21766858D01*
X191899047Y21862096D01*
X191899047Y22147810D01*
X191946666Y22243048D01*
X191994285Y22290667D01*
X192089523Y22338286D01*
X192280000Y22338286D01*
X192375238Y22290667D01*
X193280000Y22338286D02*
X193280000Y21671620D01*
X192851428Y22338286D02*
X192851428Y21814477D01*
X192899047Y21719239D01*
X192994285Y21671620D01*
X193137142Y21671620D01*
X193232380Y21719239D01*
X193280000Y21766858D01*
X193756190Y21671620D02*
X193756190Y22338286D01*
X193756190Y22671620D02*
X193708571Y22624000D01*
X193756190Y22576381D01*
X193803809Y22624000D01*
X193756190Y22671620D01*
X193756190Y22576381D01*
X194232380Y22338286D02*
X194232380Y21671620D01*
X194232380Y22243048D02*
X194280000Y22290667D01*
X194375238Y22338286D01*
X194518095Y22338286D01*
X194613333Y22290667D01*
X194660952Y22195429D01*
X194660952Y21671620D01*
X195280000Y21671620D02*
X195184761Y21719239D01*
X195137142Y21766858D01*
X195089523Y21862096D01*
X195089523Y22147810D01*
X195137142Y22243048D01*
X195184761Y22290667D01*
X195280000Y22338286D01*
X195422857Y22338286D01*
X195518095Y22290667D01*
X195565714Y22243048D01*
X195613333Y22147810D01*
X195613333Y21862096D01*
X195565714Y21766858D01*
X195518095Y21719239D01*
X195422857Y21671620D01*
X195280000Y21671620D01*
X196803809Y21671620D02*
X196803809Y22671620D01*
X197375238Y21671620D01*
X197375238Y22671620D01*
X198280000Y21671620D02*
X198280000Y22195429D01*
X198232380Y22290667D01*
X198137142Y22338286D01*
X197946666Y22338286D01*
X197851428Y22290667D01*
X198280000Y21719239D02*
X198184761Y21671620D01*
X197946666Y21671620D01*
X197851428Y21719239D01*
X197803809Y21814477D01*
X197803809Y21909715D01*
X197851428Y22004953D01*
X197946666Y22052572D01*
X198184761Y22052572D01*
X198280000Y22100191D01*
X198756190Y22338286D02*
X198756190Y21671620D01*
X198756190Y22243048D02*
X198803809Y22290667D01*
X198899047Y22338286D01*
X199041904Y22338286D01*
X199137142Y22290667D01*
X199184761Y22195429D01*
X199184761Y21671620D01*
X199803809Y21671620D02*
X199708571Y21719239D01*
X199660952Y21766858D01*
X199613333Y21862096D01*
X199613333Y22147810D01*
X199660952Y22243048D01*
X199708571Y22290667D01*
X199803809Y22338286D01*
X199946666Y22338286D01*
X200041904Y22290667D01*
X200089523Y22243048D01*
X200137142Y22147810D01*
X200137142Y21862096D01*
X200089523Y21766858D01*
X200041904Y21719239D01*
X199946666Y21671620D01*
X199803809Y21671620D01*
%TO.C,Ecran 1602 LCD*%
X169044128Y150274929D02*
X169377461Y150274929D01*
X169520319Y149751120D02*
X169044128Y149751120D01*
X169044128Y150751120D01*
X169520319Y150751120D01*
X170377461Y149798739D02*
X170282223Y149751120D01*
X170091747Y149751120D01*
X169996509Y149798739D01*
X169948890Y149846358D01*
X169901271Y149941596D01*
X169901271Y150227310D01*
X169948890Y150322548D01*
X169996509Y150370167D01*
X170091747Y150417786D01*
X170282223Y150417786D01*
X170377461Y150370167D01*
X170806033Y149751120D02*
X170806033Y150417786D01*
X170806033Y150227310D02*
X170853652Y150322548D01*
X170901271Y150370167D01*
X170996509Y150417786D01*
X171091747Y150417786D01*
X171853652Y149751120D02*
X171853652Y150274929D01*
X171806033Y150370167D01*
X171710795Y150417786D01*
X171520319Y150417786D01*
X171425080Y150370167D01*
X171853652Y149798739D02*
X171758414Y149751120D01*
X171520319Y149751120D01*
X171425080Y149798739D01*
X171377461Y149893977D01*
X171377461Y149989215D01*
X171425080Y150084453D01*
X171520319Y150132072D01*
X171758414Y150132072D01*
X171853652Y150179691D01*
X172329842Y150417786D02*
X172329842Y149751120D01*
X172329842Y150322548D02*
X172377461Y150370167D01*
X172472700Y150417786D01*
X172615557Y150417786D01*
X172710795Y150370167D01*
X172758414Y150274929D01*
X172758414Y149751120D01*
X174520319Y149751120D02*
X173948890Y149751120D01*
X174234604Y149751120D02*
X174234604Y150751120D01*
X174139366Y150608262D01*
X174044128Y150513024D01*
X173948890Y150465405D01*
X175377461Y150751120D02*
X175186985Y150751120D01*
X175091747Y150703500D01*
X175044128Y150655881D01*
X174948890Y150513024D01*
X174901271Y150322548D01*
X174901271Y149941596D01*
X174948890Y149846358D01*
X174996509Y149798739D01*
X175091747Y149751120D01*
X175282223Y149751120D01*
X175377461Y149798739D01*
X175425080Y149846358D01*
X175472700Y149941596D01*
X175472700Y150179691D01*
X175425080Y150274929D01*
X175377461Y150322548D01*
X175282223Y150370167D01*
X175091747Y150370167D01*
X174996509Y150322548D01*
X174948890Y150274929D01*
X174901271Y150179691D01*
X176091747Y150751120D02*
X176186985Y150751120D01*
X176282223Y150703500D01*
X176329842Y150655881D01*
X176377461Y150560643D01*
X176425080Y150370167D01*
X176425080Y150132072D01*
X176377461Y149941596D01*
X176329842Y149846358D01*
X176282223Y149798739D01*
X176186985Y149751120D01*
X176091747Y149751120D01*
X175996509Y149798739D01*
X175948890Y149846358D01*
X175901271Y149941596D01*
X175853652Y150132072D01*
X175853652Y150370167D01*
X175901271Y150560643D01*
X175948890Y150655881D01*
X175996509Y150703500D01*
X176091747Y150751120D01*
X176806033Y150655881D02*
X176853652Y150703500D01*
X176948890Y150751120D01*
X177186985Y150751120D01*
X177282223Y150703500D01*
X177329842Y150655881D01*
X177377461Y150560643D01*
X177377461Y150465405D01*
X177329842Y150322548D01*
X176758414Y149751120D01*
X177377461Y149751120D01*
X179044128Y149751120D02*
X178567938Y149751120D01*
X178567938Y150751120D01*
X179948890Y149846358D02*
X179901271Y149798739D01*
X179758414Y149751120D01*
X179663176Y149751120D01*
X179520319Y149798739D01*
X179425080Y149893977D01*
X179377461Y149989215D01*
X179329842Y150179691D01*
X179329842Y150322548D01*
X179377461Y150513024D01*
X179425080Y150608262D01*
X179520319Y150703500D01*
X179663176Y150751120D01*
X179758414Y150751120D01*
X179901271Y150703500D01*
X179948890Y150655881D01*
X180377461Y149751120D02*
X180377461Y150751120D01*
X180615557Y150751120D01*
X180758414Y150703500D01*
X180853652Y150608262D01*
X180901271Y150513024D01*
X180948890Y150322548D01*
X180948890Y150179691D01*
X180901271Y149989215D01*
X180853652Y149893977D01*
X180758414Y149798739D01*
X180615557Y149751120D01*
X180377461Y149751120D01*
%TO.C,+  -*%
D10*
X226804557Y9354591D02*
X226804557Y10878400D01*
X227566461Y10116496D02*
X226042652Y10116496D01*
X226804557Y14878400D02*
X226804557Y16402210D01*
%TO.C,Multiplexer*%
D11*
X167284380Y87862858D02*
X166284380Y87862858D01*
X166998666Y88196191D01*
X166284380Y88529524D01*
X167284380Y88529524D01*
X166617714Y89434286D02*
X167284380Y89434286D01*
X166617714Y89005715D02*
X167141523Y89005715D01*
X167236761Y89053334D01*
X167284380Y89148572D01*
X167284380Y89291429D01*
X167236761Y89386667D01*
X167189142Y89434286D01*
X167284380Y90053334D02*
X167236761Y89958096D01*
X167141523Y89910477D01*
X166284380Y89910477D01*
X166617714Y90291429D02*
X166617714Y90672381D01*
X166284380Y90434286D02*
X167141523Y90434286D01*
X167236761Y90481905D01*
X167284380Y90577143D01*
X167284380Y90672381D01*
X167284380Y91005715D02*
X166617714Y91005715D01*
X166284380Y91005715D02*
X166332000Y90958096D01*
X166379619Y91005715D01*
X166332000Y91053334D01*
X166284380Y91005715D01*
X166379619Y91005715D01*
X166617714Y91481905D02*
X167617714Y91481905D01*
X166665333Y91481905D02*
X166617714Y91577143D01*
X166617714Y91767620D01*
X166665333Y91862858D01*
X166712952Y91910477D01*
X166808190Y91958096D01*
X167093904Y91958096D01*
X167189142Y91910477D01*
X167236761Y91862858D01*
X167284380Y91767620D01*
X167284380Y91577143D01*
X167236761Y91481905D01*
X167284380Y92529524D02*
X167236761Y92434286D01*
X167141523Y92386667D01*
X166284380Y92386667D01*
X167236761Y93291429D02*
X167284380Y93196191D01*
X167284380Y93005715D01*
X167236761Y92910477D01*
X167141523Y92862858D01*
X166760571Y92862858D01*
X166665333Y92910477D01*
X166617714Y93005715D01*
X166617714Y93196191D01*
X166665333Y93291429D01*
X166760571Y93339048D01*
X166855809Y93339048D01*
X166951047Y92862858D01*
X167284380Y93672381D02*
X166617714Y94196191D01*
X166617714Y93672381D02*
X167284380Y94196191D01*
X167236761Y94958096D02*
X167284380Y94862858D01*
X167284380Y94672381D01*
X167236761Y94577143D01*
X167141523Y94529524D01*
X166760571Y94529524D01*
X166665333Y94577143D01*
X166617714Y94672381D01*
X166617714Y94862858D01*
X166665333Y94958096D01*
X166760571Y95005715D01*
X166855809Y95005715D01*
X166951047Y94529524D01*
X167284380Y95434286D02*
X166617714Y95434286D01*
X166808190Y95434286D02*
X166712952Y95481905D01*
X166665333Y95529524D01*
X166617714Y95624762D01*
X166617714Y95720000D01*
%TO.C,K21*%
X104772014Y126218020D02*
X104772014Y127218020D01*
X105343442Y126218020D02*
X104914871Y126789448D01*
X105343442Y127218020D02*
X104772014Y126646591D01*
X105724395Y127122781D02*
X105772014Y127170400D01*
X105867252Y127218020D01*
X106105347Y127218020D01*
X106200585Y127170400D01*
X106248204Y127122781D01*
X106295823Y127027543D01*
X106295823Y126932305D01*
X106248204Y126789448D01*
X105676776Y126218020D01*
X106295823Y126218020D01*
X107248204Y126218020D02*
X106676776Y126218020D01*
X106962490Y126218020D02*
X106962490Y127218020D01*
X106867252Y127075162D01*
X106772014Y126979924D01*
X106676776Y126932305D01*
%TO.C,K22*%
X104098914Y91064420D02*
X104098914Y92064420D01*
X104670342Y91064420D02*
X104241771Y91635848D01*
X104670342Y92064420D02*
X104098914Y91492991D01*
X105051295Y91969181D02*
X105098914Y92016800D01*
X105194152Y92064420D01*
X105432247Y92064420D01*
X105527485Y92016800D01*
X105575104Y91969181D01*
X105622723Y91873943D01*
X105622723Y91778705D01*
X105575104Y91635848D01*
X105003676Y91064420D01*
X105622723Y91064420D01*
X106003676Y91969181D02*
X106051295Y92016800D01*
X106146533Y92064420D01*
X106384628Y92064420D01*
X106479866Y92016800D01*
X106527485Y91969181D01*
X106575104Y91873943D01*
X106575104Y91778705D01*
X106527485Y91635848D01*
X105956057Y91064420D01*
X106575104Y91064420D01*
%TO.C,K23*%
X104721214Y55110720D02*
X104721214Y56110720D01*
X105292642Y55110720D02*
X104864071Y55682148D01*
X105292642Y56110720D02*
X104721214Y55539291D01*
X105673595Y56015481D02*
X105721214Y56063100D01*
X105816452Y56110720D01*
X106054547Y56110720D01*
X106149785Y56063100D01*
X106197404Y56015481D01*
X106245023Y55920243D01*
X106245023Y55825005D01*
X106197404Y55682148D01*
X105625976Y55110720D01*
X106245023Y55110720D01*
X106578357Y56110720D02*
X107197404Y56110720D01*
X106864071Y55729767D01*
X107006928Y55729767D01*
X107102166Y55682148D01*
X107149785Y55634529D01*
X107197404Y55539291D01*
X107197404Y55301196D01*
X107149785Y55205958D01*
X107102166Y55158339D01*
X107006928Y55110720D01*
X106721214Y55110720D01*
X106625976Y55158339D01*
X106578357Y55205958D01*
%TO.C,KA1*%
X144227733Y17112320D02*
X144227733Y18112320D01*
X144799161Y17112320D02*
X144370590Y17683748D01*
X144799161Y18112320D02*
X144227733Y17540891D01*
X145180114Y17398034D02*
X145656304Y17398034D01*
X145084876Y17112320D02*
X145418209Y18112320D01*
X145751542Y17112320D01*
X146608685Y17112320D02*
X146037257Y17112320D01*
X146322971Y17112320D02*
X146322971Y18112320D01*
X146227733Y17969462D01*
X146132495Y17874224D01*
X146037257Y17826605D01*
%TO.C,Ki1*%
X98355309Y19093520D02*
X98355309Y20093520D01*
X98926738Y19093520D02*
X98498166Y19664948D01*
X98926738Y20093520D02*
X98355309Y19522091D01*
X99355309Y19093520D02*
X99355309Y19760186D01*
X99355309Y20093520D02*
X99307690Y20045900D01*
X99355309Y19998281D01*
X99402928Y20045900D01*
X99355309Y20093520D01*
X99355309Y19998281D01*
X100355309Y19093520D02*
X99783880Y19093520D01*
X100069595Y19093520D02*
X100069595Y20093520D01*
X99974357Y19950662D01*
X99879119Y19855424D01*
X99783880Y19807805D01*
%TO.C,KS1*%
X180425914Y17061520D02*
X180425914Y18061520D01*
X180997342Y17061520D02*
X180568771Y17632948D01*
X180997342Y18061520D02*
X180425914Y17490091D01*
X181378295Y17109139D02*
X181521152Y17061520D01*
X181759247Y17061520D01*
X181854485Y17109139D01*
X181902104Y17156758D01*
X181949723Y17251996D01*
X181949723Y17347234D01*
X181902104Y17442472D01*
X181854485Y17490091D01*
X181759247Y17537710D01*
X181568771Y17585329D01*
X181473533Y17632948D01*
X181425914Y17680567D01*
X181378295Y17775805D01*
X181378295Y17871043D01*
X181425914Y17966281D01*
X181473533Y18013900D01*
X181568771Y18061520D01*
X181806866Y18061520D01*
X181949723Y18013900D01*
X182902104Y17061520D02*
X182330676Y17061520D01*
X182616390Y17061520D02*
X182616390Y18061520D01*
X182521152Y17918662D01*
X182425914Y17823424D01*
X182330676Y17775805D01*
%TO.C,R1*%
X153083333Y136297620D02*
X152750000Y136773810D01*
X152511904Y136297620D02*
X152511904Y137297620D01*
X152892857Y137297620D01*
X152988095Y137250000D01*
X153035714Y137202381D01*
X153083333Y137107143D01*
X153083333Y136964286D01*
X153035714Y136869048D01*
X152988095Y136821429D01*
X152892857Y136773810D01*
X152511904Y136773810D01*
X154035714Y136297620D02*
X153464285Y136297620D01*
X153750000Y136297620D02*
X153750000Y137297620D01*
X153654761Y137154762D01*
X153559523Y137059524D01*
X153464285Y137011905D01*
D13*
X152728571Y135373810D02*
X152442857Y135373810D01*
X152585714Y135373810D02*
X152585714Y135873810D01*
X152538095Y135802381D01*
X152490476Y135754762D01*
X152442857Y135730953D01*
X153038095Y135873810D02*
X153085714Y135873810D01*
X153133333Y135850000D01*
X153157142Y135826191D01*
X153180952Y135778572D01*
X153204761Y135683334D01*
X153204761Y135564286D01*
X153180952Y135469048D01*
X153157142Y135421429D01*
X153133333Y135397620D01*
X153085714Y135373810D01*
X153038095Y135373810D01*
X152990476Y135397620D01*
X152966666Y135421429D01*
X152942857Y135469048D01*
X152919047Y135564286D01*
X152919047Y135683334D01*
X152942857Y135778572D01*
X152966666Y135826191D01*
X152990476Y135850000D01*
X153038095Y135873810D01*
X153514285Y135873810D02*
X153561904Y135873810D01*
X153609523Y135850000D01*
X153633333Y135826191D01*
X153657142Y135778572D01*
X153680952Y135683334D01*
X153680952Y135564286D01*
X153657142Y135469048D01*
X153633333Y135421429D01*
X153609523Y135397620D01*
X153561904Y135373810D01*
X153514285Y135373810D01*
X153466666Y135397620D01*
X153442857Y135421429D01*
X153419047Y135469048D01*
X153395238Y135564286D01*
X153395238Y135683334D01*
X153419047Y135778572D01*
X153442857Y135826191D01*
X153466666Y135850000D01*
X153514285Y135873810D01*
X153990476Y135873810D02*
X154038095Y135873810D01*
X154085714Y135850000D01*
X154109523Y135826191D01*
X154133333Y135778572D01*
X154157142Y135683334D01*
X154157142Y135564286D01*
X154133333Y135469048D01*
X154109523Y135421429D01*
X154085714Y135397620D01*
X154038095Y135373810D01*
X153990476Y135373810D01*
X153942857Y135397620D01*
X153919047Y135421429D01*
X153895238Y135469048D01*
X153871428Y135564286D01*
X153871428Y135683334D01*
X153895238Y135778572D01*
X153919047Y135826191D01*
X153942857Y135850000D01*
X153990476Y135873810D01*
%TO.C,R2*%
D11*
X153083333Y143797620D02*
X152750000Y144273810D01*
X152511904Y143797620D02*
X152511904Y144797620D01*
X152892857Y144797620D01*
X152988095Y144750000D01*
X153035714Y144702381D01*
X153083333Y144607143D01*
X153083333Y144464286D01*
X153035714Y144369048D01*
X152988095Y144321429D01*
X152892857Y144273810D01*
X152511904Y144273810D01*
X153464285Y144702381D02*
X153511904Y144750000D01*
X153607142Y144797620D01*
X153845238Y144797620D01*
X153940476Y144750000D01*
X153988095Y144702381D01*
X154035714Y144607143D01*
X154035714Y144511905D01*
X153988095Y144369048D01*
X153416666Y143797620D01*
X154035714Y143797620D01*
D13*
X152678571Y143023810D02*
X152392857Y143023810D01*
X152535714Y143023810D02*
X152535714Y143523810D01*
X152488095Y143452381D01*
X152440476Y143404762D01*
X152392857Y143380953D01*
X152988095Y143523810D02*
X153035714Y143523810D01*
X153083333Y143500000D01*
X153107142Y143476191D01*
X153130952Y143428572D01*
X153154761Y143333334D01*
X153154761Y143214286D01*
X153130952Y143119048D01*
X153107142Y143071429D01*
X153083333Y143047620D01*
X153035714Y143023810D01*
X152988095Y143023810D01*
X152940476Y143047620D01*
X152916666Y143071429D01*
X152892857Y143119048D01*
X152869047Y143214286D01*
X152869047Y143333334D01*
X152892857Y143428572D01*
X152916666Y143476191D01*
X152940476Y143500000D01*
X152988095Y143523810D01*
X153464285Y143523810D02*
X153511904Y143523810D01*
X153559523Y143500000D01*
X153583333Y143476191D01*
X153607142Y143428572D01*
X153630952Y143333334D01*
X153630952Y143214286D01*
X153607142Y143119048D01*
X153583333Y143071429D01*
X153559523Y143047620D01*
X153511904Y143023810D01*
X153464285Y143023810D01*
X153416666Y143047620D01*
X153392857Y143071429D01*
X153369047Y143119048D01*
X153345238Y143214286D01*
X153345238Y143333334D01*
X153369047Y143428572D01*
X153392857Y143476191D01*
X153416666Y143500000D01*
X153464285Y143523810D01*
X153940476Y143523810D02*
X153988095Y143523810D01*
X154035714Y143500000D01*
X154059523Y143476191D01*
X154083333Y143428572D01*
X154107142Y143333334D01*
X154107142Y143214286D01*
X154083333Y143119048D01*
X154059523Y143071429D01*
X154035714Y143047620D01*
X153988095Y143023810D01*
X153940476Y143023810D01*
X153892857Y143047620D01*
X153869047Y143071429D01*
X153845238Y143119048D01*
X153821428Y143214286D01*
X153821428Y143333334D01*
X153845238Y143428572D01*
X153869047Y143476191D01*
X153892857Y143500000D01*
X153940476Y143523810D01*
%TO.C,R3*%
D11*
X153083333Y140047620D02*
X152750000Y140523810D01*
X152511904Y140047620D02*
X152511904Y141047620D01*
X152892857Y141047620D01*
X152988095Y141000000D01*
X153035714Y140952381D01*
X153083333Y140857143D01*
X153083333Y140714286D01*
X153035714Y140619048D01*
X152988095Y140571429D01*
X152892857Y140523810D01*
X152511904Y140523810D01*
X153416666Y141047620D02*
X154035714Y141047620D01*
X153702380Y140666667D01*
X153845238Y140666667D01*
X153940476Y140619048D01*
X153988095Y140571429D01*
X154035714Y140476191D01*
X154035714Y140238096D01*
X153988095Y140142858D01*
X153940476Y140095239D01*
X153845238Y140047620D01*
X153559523Y140047620D01*
X153464285Y140095239D01*
X153416666Y140142858D01*
D13*
X152678571Y139273810D02*
X152392857Y139273810D01*
X152535714Y139273810D02*
X152535714Y139773810D01*
X152488095Y139702381D01*
X152440476Y139654762D01*
X152392857Y139630953D01*
X152988095Y139773810D02*
X153035714Y139773810D01*
X153083333Y139750000D01*
X153107142Y139726191D01*
X153130952Y139678572D01*
X153154761Y139583334D01*
X153154761Y139464286D01*
X153130952Y139369048D01*
X153107142Y139321429D01*
X153083333Y139297620D01*
X153035714Y139273810D01*
X152988095Y139273810D01*
X152940476Y139297620D01*
X152916666Y139321429D01*
X152892857Y139369048D01*
X152869047Y139464286D01*
X152869047Y139583334D01*
X152892857Y139678572D01*
X152916666Y139726191D01*
X152940476Y139750000D01*
X152988095Y139773810D01*
X153464285Y139773810D02*
X153511904Y139773810D01*
X153559523Y139750000D01*
X153583333Y139726191D01*
X153607142Y139678572D01*
X153630952Y139583334D01*
X153630952Y139464286D01*
X153607142Y139369048D01*
X153583333Y139321429D01*
X153559523Y139297620D01*
X153511904Y139273810D01*
X153464285Y139273810D01*
X153416666Y139297620D01*
X153392857Y139321429D01*
X153369047Y139369048D01*
X153345238Y139464286D01*
X153345238Y139583334D01*
X153369047Y139678572D01*
X153392857Y139726191D01*
X153416666Y139750000D01*
X153464285Y139773810D01*
X153940476Y139773810D02*
X153988095Y139773810D01*
X154035714Y139750000D01*
X154059523Y139726191D01*
X154083333Y139678572D01*
X154107142Y139583334D01*
X154107142Y139464286D01*
X154083333Y139369048D01*
X154059523Y139321429D01*
X154035714Y139297620D01*
X153988095Y139273810D01*
X153940476Y139273810D01*
X153892857Y139297620D01*
X153869047Y139321429D01*
X153845238Y139369048D01*
X153821428Y139464286D01*
X153821428Y139583334D01*
X153845238Y139678572D01*
X153869047Y139726191D01*
X153892857Y139750000D01*
X153940476Y139773810D01*
%TO.C,R4*%
D11*
X153083333Y121047620D02*
X152750000Y121523810D01*
X152511904Y121047620D02*
X152511904Y122047620D01*
X152892857Y122047620D01*
X152988095Y122000000D01*
X153035714Y121952381D01*
X153083333Y121857143D01*
X153083333Y121714286D01*
X153035714Y121619048D01*
X152988095Y121571429D01*
X152892857Y121523810D01*
X152511904Y121523810D01*
X153940476Y121714286D02*
X153940476Y121047620D01*
X153702380Y122095239D02*
X153464285Y121380953D01*
X154083333Y121380953D01*
D13*
X152798571Y120273810D02*
X152512857Y120273810D01*
X152655714Y120273810D02*
X152655714Y120773810D01*
X152608095Y120702381D01*
X152560476Y120654762D01*
X152512857Y120630953D01*
X153108095Y120773810D02*
X153155714Y120773810D01*
X153203333Y120750000D01*
X153227142Y120726191D01*
X153250952Y120678572D01*
X153274761Y120583334D01*
X153274761Y120464286D01*
X153250952Y120369048D01*
X153227142Y120321429D01*
X153203333Y120297620D01*
X153155714Y120273810D01*
X153108095Y120273810D01*
X153060476Y120297620D01*
X153036666Y120321429D01*
X153012857Y120369048D01*
X152989047Y120464286D01*
X152989047Y120583334D01*
X153012857Y120678572D01*
X153036666Y120726191D01*
X153060476Y120750000D01*
X153108095Y120773810D01*
X153584285Y120773810D02*
X153631904Y120773810D01*
X153679523Y120750000D01*
X153703333Y120726191D01*
X153727142Y120678572D01*
X153750952Y120583334D01*
X153750952Y120464286D01*
X153727142Y120369048D01*
X153703333Y120321429D01*
X153679523Y120297620D01*
X153631904Y120273810D01*
X153584285Y120273810D01*
X153536666Y120297620D01*
X153512857Y120321429D01*
X153489047Y120369048D01*
X153465238Y120464286D01*
X153465238Y120583334D01*
X153489047Y120678572D01*
X153512857Y120726191D01*
X153536666Y120750000D01*
X153584285Y120773810D01*
X154060476Y120773810D02*
X154108095Y120773810D01*
X154155714Y120750000D01*
X154179523Y120726191D01*
X154203333Y120678572D01*
X154227142Y120583334D01*
X154227142Y120464286D01*
X154203333Y120369048D01*
X154179523Y120321429D01*
X154155714Y120297620D01*
X154108095Y120273810D01*
X154060476Y120273810D01*
X154012857Y120297620D01*
X153989047Y120321429D01*
X153965238Y120369048D01*
X153941428Y120464286D01*
X153941428Y120583334D01*
X153965238Y120678572D01*
X153989047Y120726191D01*
X154012857Y120750000D01*
X154060476Y120773810D01*
%TO.C,R5*%
D11*
X153083333Y128547620D02*
X152750000Y129023810D01*
X152511904Y128547620D02*
X152511904Y129547620D01*
X152892857Y129547620D01*
X152988095Y129500000D01*
X153035714Y129452381D01*
X153083333Y129357143D01*
X153083333Y129214286D01*
X153035714Y129119048D01*
X152988095Y129071429D01*
X152892857Y129023810D01*
X152511904Y129023810D01*
X153988095Y129547620D02*
X153511904Y129547620D01*
X153464285Y129071429D01*
X153511904Y129119048D01*
X153607142Y129166667D01*
X153845238Y129166667D01*
X153940476Y129119048D01*
X153988095Y129071429D01*
X154035714Y128976191D01*
X154035714Y128738096D01*
X153988095Y128642858D01*
X153940476Y128595239D01*
X153845238Y128547620D01*
X153607142Y128547620D01*
X153511904Y128595239D01*
X153464285Y128642858D01*
D13*
X152798571Y127773810D02*
X152512857Y127773810D01*
X152655714Y127773810D02*
X152655714Y128273810D01*
X152608095Y128202381D01*
X152560476Y128154762D01*
X152512857Y128130953D01*
X153108095Y128273810D02*
X153155714Y128273810D01*
X153203333Y128250000D01*
X153227142Y128226191D01*
X153250952Y128178572D01*
X153274761Y128083334D01*
X153274761Y127964286D01*
X153250952Y127869048D01*
X153227142Y127821429D01*
X153203333Y127797620D01*
X153155714Y127773810D01*
X153108095Y127773810D01*
X153060476Y127797620D01*
X153036666Y127821429D01*
X153012857Y127869048D01*
X152989047Y127964286D01*
X152989047Y128083334D01*
X153012857Y128178572D01*
X153036666Y128226191D01*
X153060476Y128250000D01*
X153108095Y128273810D01*
X153584285Y128273810D02*
X153631904Y128273810D01*
X153679523Y128250000D01*
X153703333Y128226191D01*
X153727142Y128178572D01*
X153750952Y128083334D01*
X153750952Y127964286D01*
X153727142Y127869048D01*
X153703333Y127821429D01*
X153679523Y127797620D01*
X153631904Y127773810D01*
X153584285Y127773810D01*
X153536666Y127797620D01*
X153512857Y127821429D01*
X153489047Y127869048D01*
X153465238Y127964286D01*
X153465238Y128083334D01*
X153489047Y128178572D01*
X153512857Y128226191D01*
X153536666Y128250000D01*
X153584285Y128273810D01*
X154060476Y128273810D02*
X154108095Y128273810D01*
X154155714Y128250000D01*
X154179523Y128226191D01*
X154203333Y128178572D01*
X154227142Y128083334D01*
X154227142Y127964286D01*
X154203333Y127869048D01*
X154179523Y127821429D01*
X154155714Y127797620D01*
X154108095Y127773810D01*
X154060476Y127773810D01*
X154012857Y127797620D01*
X153989047Y127821429D01*
X153965238Y127869048D01*
X153941428Y127964286D01*
X153941428Y128083334D01*
X153965238Y128178572D01*
X153989047Y128226191D01*
X154012857Y128250000D01*
X154060476Y128273810D01*
%TO.C,R6*%
D11*
X153083333Y124797620D02*
X152750000Y125273810D01*
X152511904Y124797620D02*
X152511904Y125797620D01*
X152892857Y125797620D01*
X152988095Y125750000D01*
X153035714Y125702381D01*
X153083333Y125607143D01*
X153083333Y125464286D01*
X153035714Y125369048D01*
X152988095Y125321429D01*
X152892857Y125273810D01*
X152511904Y125273810D01*
X153940476Y125797620D02*
X153750000Y125797620D01*
X153654761Y125750000D01*
X153607142Y125702381D01*
X153511904Y125559524D01*
X153464285Y125369048D01*
X153464285Y124988096D01*
X153511904Y124892858D01*
X153559523Y124845239D01*
X153654761Y124797620D01*
X153845238Y124797620D01*
X153940476Y124845239D01*
X153988095Y124892858D01*
X154035714Y124988096D01*
X154035714Y125226191D01*
X153988095Y125321429D01*
X153940476Y125369048D01*
X153845238Y125416667D01*
X153654761Y125416667D01*
X153559523Y125369048D01*
X153511904Y125321429D01*
X153464285Y125226191D01*
D13*
X152678571Y124023810D02*
X152392857Y124023810D01*
X152535714Y124023810D02*
X152535714Y124523810D01*
X152488095Y124452381D01*
X152440476Y124404762D01*
X152392857Y124380953D01*
X152988095Y124523810D02*
X153035714Y124523810D01*
X153083333Y124500000D01*
X153107142Y124476191D01*
X153130952Y124428572D01*
X153154761Y124333334D01*
X153154761Y124214286D01*
X153130952Y124119048D01*
X153107142Y124071429D01*
X153083333Y124047620D01*
X153035714Y124023810D01*
X152988095Y124023810D01*
X152940476Y124047620D01*
X152916666Y124071429D01*
X152892857Y124119048D01*
X152869047Y124214286D01*
X152869047Y124333334D01*
X152892857Y124428572D01*
X152916666Y124476191D01*
X152940476Y124500000D01*
X152988095Y124523810D01*
X153464285Y124523810D02*
X153511904Y124523810D01*
X153559523Y124500000D01*
X153583333Y124476191D01*
X153607142Y124428572D01*
X153630952Y124333334D01*
X153630952Y124214286D01*
X153607142Y124119048D01*
X153583333Y124071429D01*
X153559523Y124047620D01*
X153511904Y124023810D01*
X153464285Y124023810D01*
X153416666Y124047620D01*
X153392857Y124071429D01*
X153369047Y124119048D01*
X153345238Y124214286D01*
X153345238Y124333334D01*
X153369047Y124428572D01*
X153392857Y124476191D01*
X153416666Y124500000D01*
X153464285Y124523810D01*
X153940476Y124523810D02*
X153988095Y124523810D01*
X154035714Y124500000D01*
X154059523Y124476191D01*
X154083333Y124428572D01*
X154107142Y124333334D01*
X154107142Y124214286D01*
X154083333Y124119048D01*
X154059523Y124071429D01*
X154035714Y124047620D01*
X153988095Y124023810D01*
X153940476Y124023810D01*
X153892857Y124047620D01*
X153869047Y124071429D01*
X153845238Y124119048D01*
X153821428Y124214286D01*
X153821428Y124333334D01*
X153845238Y124428572D01*
X153869047Y124476191D01*
X153892857Y124500000D01*
X153940476Y124523810D01*
%TO.C,R7*%
D11*
X153333333Y101797620D02*
X153000000Y102273810D01*
X152761904Y101797620D02*
X152761904Y102797620D01*
X153142857Y102797620D01*
X153238095Y102750000D01*
X153285714Y102702381D01*
X153333333Y102607143D01*
X153333333Y102464286D01*
X153285714Y102369048D01*
X153238095Y102321429D01*
X153142857Y102273810D01*
X152761904Y102273810D01*
X153666666Y102797620D02*
X154333333Y102797620D01*
X153904761Y101797620D01*
D13*
X152798571Y101023810D02*
X152512857Y101023810D01*
X152655714Y101023810D02*
X152655714Y101523810D01*
X152608095Y101452381D01*
X152560476Y101404762D01*
X152512857Y101380953D01*
X153108095Y101523810D02*
X153155714Y101523810D01*
X153203333Y101500000D01*
X153227142Y101476191D01*
X153250952Y101428572D01*
X153274761Y101333334D01*
X153274761Y101214286D01*
X153250952Y101119048D01*
X153227142Y101071429D01*
X153203333Y101047620D01*
X153155714Y101023810D01*
X153108095Y101023810D01*
X153060476Y101047620D01*
X153036666Y101071429D01*
X153012857Y101119048D01*
X152989047Y101214286D01*
X152989047Y101333334D01*
X153012857Y101428572D01*
X153036666Y101476191D01*
X153060476Y101500000D01*
X153108095Y101523810D01*
X153584285Y101523810D02*
X153631904Y101523810D01*
X153679523Y101500000D01*
X153703333Y101476191D01*
X153727142Y101428572D01*
X153750952Y101333334D01*
X153750952Y101214286D01*
X153727142Y101119048D01*
X153703333Y101071429D01*
X153679523Y101047620D01*
X153631904Y101023810D01*
X153584285Y101023810D01*
X153536666Y101047620D01*
X153512857Y101071429D01*
X153489047Y101119048D01*
X153465238Y101214286D01*
X153465238Y101333334D01*
X153489047Y101428572D01*
X153512857Y101476191D01*
X153536666Y101500000D01*
X153584285Y101523810D01*
X154060476Y101523810D02*
X154108095Y101523810D01*
X154155714Y101500000D01*
X154179523Y101476191D01*
X154203333Y101428572D01*
X154227142Y101333334D01*
X154227142Y101214286D01*
X154203333Y101119048D01*
X154179523Y101071429D01*
X154155714Y101047620D01*
X154108095Y101023810D01*
X154060476Y101023810D01*
X154012857Y101047620D01*
X153989047Y101071429D01*
X153965238Y101119048D01*
X153941428Y101214286D01*
X153941428Y101333334D01*
X153965238Y101428572D01*
X153989047Y101476191D01*
X154012857Y101500000D01*
X154060476Y101523810D01*
%TO.C,R8*%
D11*
X153333333Y109547620D02*
X153000000Y110023810D01*
X152761904Y109547620D02*
X152761904Y110547620D01*
X153142857Y110547620D01*
X153238095Y110500000D01*
X153285714Y110452381D01*
X153333333Y110357143D01*
X153333333Y110214286D01*
X153285714Y110119048D01*
X153238095Y110071429D01*
X153142857Y110023810D01*
X152761904Y110023810D01*
X153904761Y110119048D02*
X153809523Y110166667D01*
X153761904Y110214286D01*
X153714285Y110309524D01*
X153714285Y110357143D01*
X153761904Y110452381D01*
X153809523Y110500000D01*
X153904761Y110547620D01*
X154095238Y110547620D01*
X154190476Y110500000D01*
X154238095Y110452381D01*
X154285714Y110357143D01*
X154285714Y110309524D01*
X154238095Y110214286D01*
X154190476Y110166667D01*
X154095238Y110119048D01*
X153904761Y110119048D01*
X153809523Y110071429D01*
X153761904Y110023810D01*
X153714285Y109928572D01*
X153714285Y109738096D01*
X153761904Y109642858D01*
X153809523Y109595239D01*
X153904761Y109547620D01*
X154095238Y109547620D01*
X154190476Y109595239D01*
X154238095Y109642858D01*
X154285714Y109738096D01*
X154285714Y109928572D01*
X154238095Y110023810D01*
X154190476Y110071429D01*
X154095238Y110119048D01*
D13*
X152798571Y108773810D02*
X152512857Y108773810D01*
X152655714Y108773810D02*
X152655714Y109273810D01*
X152608095Y109202381D01*
X152560476Y109154762D01*
X152512857Y109130953D01*
X153108095Y109273810D02*
X153155714Y109273810D01*
X153203333Y109250000D01*
X153227142Y109226191D01*
X153250952Y109178572D01*
X153274761Y109083334D01*
X153274761Y108964286D01*
X153250952Y108869048D01*
X153227142Y108821429D01*
X153203333Y108797620D01*
X153155714Y108773810D01*
X153108095Y108773810D01*
X153060476Y108797620D01*
X153036666Y108821429D01*
X153012857Y108869048D01*
X152989047Y108964286D01*
X152989047Y109083334D01*
X153012857Y109178572D01*
X153036666Y109226191D01*
X153060476Y109250000D01*
X153108095Y109273810D01*
X153584285Y109273810D02*
X153631904Y109273810D01*
X153679523Y109250000D01*
X153703333Y109226191D01*
X153727142Y109178572D01*
X153750952Y109083334D01*
X153750952Y108964286D01*
X153727142Y108869048D01*
X153703333Y108821429D01*
X153679523Y108797620D01*
X153631904Y108773810D01*
X153584285Y108773810D01*
X153536666Y108797620D01*
X153512857Y108821429D01*
X153489047Y108869048D01*
X153465238Y108964286D01*
X153465238Y109083334D01*
X153489047Y109178572D01*
X153512857Y109226191D01*
X153536666Y109250000D01*
X153584285Y109273810D01*
X154060476Y109273810D02*
X154108095Y109273810D01*
X154155714Y109250000D01*
X154179523Y109226191D01*
X154203333Y109178572D01*
X154227142Y109083334D01*
X154227142Y108964286D01*
X154203333Y108869048D01*
X154179523Y108821429D01*
X154155714Y108797620D01*
X154108095Y108773810D01*
X154060476Y108773810D01*
X154012857Y108797620D01*
X153989047Y108821429D01*
X153965238Y108869048D01*
X153941428Y108964286D01*
X153941428Y109083334D01*
X153965238Y109178572D01*
X153989047Y109226191D01*
X154012857Y109250000D01*
X154060476Y109273810D01*
%TO.C,R9*%
D11*
X153333333Y105797620D02*
X153000000Y106273810D01*
X152761904Y105797620D02*
X152761904Y106797620D01*
X153142857Y106797620D01*
X153238095Y106750000D01*
X153285714Y106702381D01*
X153333333Y106607143D01*
X153333333Y106464286D01*
X153285714Y106369048D01*
X153238095Y106321429D01*
X153142857Y106273810D01*
X152761904Y106273810D01*
X153809523Y105797620D02*
X154000000Y105797620D01*
X154095238Y105845239D01*
X154142857Y105892858D01*
X154238095Y106035715D01*
X154285714Y106226191D01*
X154285714Y106607143D01*
X154238095Y106702381D01*
X154190476Y106750000D01*
X154095238Y106797620D01*
X153904761Y106797620D01*
X153809523Y106750000D01*
X153761904Y106702381D01*
X153714285Y106607143D01*
X153714285Y106369048D01*
X153761904Y106273810D01*
X153809523Y106226191D01*
X153904761Y106178572D01*
X154095238Y106178572D01*
X154190476Y106226191D01*
X154238095Y106273810D01*
X154285714Y106369048D01*
D13*
X152798571Y105023810D02*
X152512857Y105023810D01*
X152655714Y105023810D02*
X152655714Y105523810D01*
X152608095Y105452381D01*
X152560476Y105404762D01*
X152512857Y105380953D01*
X153108095Y105523810D02*
X153155714Y105523810D01*
X153203333Y105500000D01*
X153227142Y105476191D01*
X153250952Y105428572D01*
X153274761Y105333334D01*
X153274761Y105214286D01*
X153250952Y105119048D01*
X153227142Y105071429D01*
X153203333Y105047620D01*
X153155714Y105023810D01*
X153108095Y105023810D01*
X153060476Y105047620D01*
X153036666Y105071429D01*
X153012857Y105119048D01*
X152989047Y105214286D01*
X152989047Y105333334D01*
X153012857Y105428572D01*
X153036666Y105476191D01*
X153060476Y105500000D01*
X153108095Y105523810D01*
X153584285Y105523810D02*
X153631904Y105523810D01*
X153679523Y105500000D01*
X153703333Y105476191D01*
X153727142Y105428572D01*
X153750952Y105333334D01*
X153750952Y105214286D01*
X153727142Y105119048D01*
X153703333Y105071429D01*
X153679523Y105047620D01*
X153631904Y105023810D01*
X153584285Y105023810D01*
X153536666Y105047620D01*
X153512857Y105071429D01*
X153489047Y105119048D01*
X153465238Y105214286D01*
X153465238Y105333334D01*
X153489047Y105428572D01*
X153512857Y105476191D01*
X153536666Y105500000D01*
X153584285Y105523810D01*
X154060476Y105523810D02*
X154108095Y105523810D01*
X154155714Y105500000D01*
X154179523Y105476191D01*
X154203333Y105428572D01*
X154227142Y105333334D01*
X154227142Y105214286D01*
X154203333Y105119048D01*
X154179523Y105071429D01*
X154155714Y105047620D01*
X154108095Y105023810D01*
X154060476Y105023810D01*
X154012857Y105047620D01*
X153989047Y105071429D01*
X153965238Y105119048D01*
X153941428Y105214286D01*
X153941428Y105333334D01*
X153965238Y105428572D01*
X153989047Y105476191D01*
X154012857Y105500000D01*
X154060476Y105523810D01*
%TO.C,R10*%
D11*
X152857142Y85547620D02*
X152523809Y86023810D01*
X152285714Y85547620D02*
X152285714Y86547620D01*
X152666666Y86547620D01*
X152761904Y86500000D01*
X152809523Y86452381D01*
X152857142Y86357143D01*
X152857142Y86214286D01*
X152809523Y86119048D01*
X152761904Y86071429D01*
X152666666Y86023810D01*
X152285714Y86023810D01*
X153809523Y85547620D02*
X153238095Y85547620D01*
X153523809Y85547620D02*
X153523809Y86547620D01*
X153428571Y86404762D01*
X153333333Y86309524D01*
X153238095Y86261905D01*
X154428571Y86547620D02*
X154523809Y86547620D01*
X154619047Y86500000D01*
X154666666Y86452381D01*
X154714285Y86357143D01*
X154761904Y86166667D01*
X154761904Y85928572D01*
X154714285Y85738096D01*
X154666666Y85642858D01*
X154619047Y85595239D01*
X154523809Y85547620D01*
X154428571Y85547620D01*
X154333333Y85595239D01*
X154285714Y85642858D01*
X154238095Y85738096D01*
X154190476Y85928572D01*
X154190476Y86166667D01*
X154238095Y86357143D01*
X154285714Y86452381D01*
X154333333Y86500000D01*
X154428571Y86547620D01*
D13*
X152798571Y84773810D02*
X152512857Y84773810D01*
X152655714Y84773810D02*
X152655714Y85273810D01*
X152608095Y85202381D01*
X152560476Y85154762D01*
X152512857Y85130953D01*
X153108095Y85273810D02*
X153155714Y85273810D01*
X153203333Y85250000D01*
X153227142Y85226191D01*
X153250952Y85178572D01*
X153274761Y85083334D01*
X153274761Y84964286D01*
X153250952Y84869048D01*
X153227142Y84821429D01*
X153203333Y84797620D01*
X153155714Y84773810D01*
X153108095Y84773810D01*
X153060476Y84797620D01*
X153036666Y84821429D01*
X153012857Y84869048D01*
X152989047Y84964286D01*
X152989047Y85083334D01*
X153012857Y85178572D01*
X153036666Y85226191D01*
X153060476Y85250000D01*
X153108095Y85273810D01*
X153584285Y85273810D02*
X153631904Y85273810D01*
X153679523Y85250000D01*
X153703333Y85226191D01*
X153727142Y85178572D01*
X153750952Y85083334D01*
X153750952Y84964286D01*
X153727142Y84869048D01*
X153703333Y84821429D01*
X153679523Y84797620D01*
X153631904Y84773810D01*
X153584285Y84773810D01*
X153536666Y84797620D01*
X153512857Y84821429D01*
X153489047Y84869048D01*
X153465238Y84964286D01*
X153465238Y85083334D01*
X153489047Y85178572D01*
X153512857Y85226191D01*
X153536666Y85250000D01*
X153584285Y85273810D01*
X154060476Y85273810D02*
X154108095Y85273810D01*
X154155714Y85250000D01*
X154179523Y85226191D01*
X154203333Y85178572D01*
X154227142Y85083334D01*
X154227142Y84964286D01*
X154203333Y84869048D01*
X154179523Y84821429D01*
X154155714Y84797620D01*
X154108095Y84773810D01*
X154060476Y84773810D01*
X154012857Y84797620D01*
X153989047Y84821429D01*
X153965238Y84869048D01*
X153941428Y84964286D01*
X153941428Y85083334D01*
X153965238Y85178572D01*
X153989047Y85226191D01*
X154012857Y85250000D01*
X154060476Y85273810D01*
%TO.C,R11*%
D11*
X152607142Y93297620D02*
X152273809Y93773810D01*
X152035714Y93297620D02*
X152035714Y94297620D01*
X152416666Y94297620D01*
X152511904Y94250000D01*
X152559523Y94202381D01*
X152607142Y94107143D01*
X152607142Y93964286D01*
X152559523Y93869048D01*
X152511904Y93821429D01*
X152416666Y93773810D01*
X152035714Y93773810D01*
X153559523Y93297620D02*
X152988095Y93297620D01*
X153273809Y93297620D02*
X153273809Y94297620D01*
X153178571Y94154762D01*
X153083333Y94059524D01*
X152988095Y94011905D01*
X154511904Y93297620D02*
X153940476Y93297620D01*
X154226190Y93297620D02*
X154226190Y94297620D01*
X154130952Y94154762D01*
X154035714Y94059524D01*
X153940476Y94011905D01*
D13*
X152798571Y92523810D02*
X152512857Y92523810D01*
X152655714Y92523810D02*
X152655714Y93023810D01*
X152608095Y92952381D01*
X152560476Y92904762D01*
X152512857Y92880953D01*
X153108095Y93023810D02*
X153155714Y93023810D01*
X153203333Y93000000D01*
X153227142Y92976191D01*
X153250952Y92928572D01*
X153274761Y92833334D01*
X153274761Y92714286D01*
X153250952Y92619048D01*
X153227142Y92571429D01*
X153203333Y92547620D01*
X153155714Y92523810D01*
X153108095Y92523810D01*
X153060476Y92547620D01*
X153036666Y92571429D01*
X153012857Y92619048D01*
X152989047Y92714286D01*
X152989047Y92833334D01*
X153012857Y92928572D01*
X153036666Y92976191D01*
X153060476Y93000000D01*
X153108095Y93023810D01*
X153584285Y93023810D02*
X153631904Y93023810D01*
X153679523Y93000000D01*
X153703333Y92976191D01*
X153727142Y92928572D01*
X153750952Y92833334D01*
X153750952Y92714286D01*
X153727142Y92619048D01*
X153703333Y92571429D01*
X153679523Y92547620D01*
X153631904Y92523810D01*
X153584285Y92523810D01*
X153536666Y92547620D01*
X153512857Y92571429D01*
X153489047Y92619048D01*
X153465238Y92714286D01*
X153465238Y92833334D01*
X153489047Y92928572D01*
X153512857Y92976191D01*
X153536666Y93000000D01*
X153584285Y93023810D01*
X154060476Y93023810D02*
X154108095Y93023810D01*
X154155714Y93000000D01*
X154179523Y92976191D01*
X154203333Y92928572D01*
X154227142Y92833334D01*
X154227142Y92714286D01*
X154203333Y92619048D01*
X154179523Y92571429D01*
X154155714Y92547620D01*
X154108095Y92523810D01*
X154060476Y92523810D01*
X154012857Y92547620D01*
X153989047Y92571429D01*
X153965238Y92619048D01*
X153941428Y92714286D01*
X153941428Y92833334D01*
X153965238Y92928572D01*
X153989047Y92976191D01*
X154012857Y93000000D01*
X154060476Y93023810D01*
%TO.C,R12*%
D11*
X152607142Y89547620D02*
X152273809Y90023810D01*
X152035714Y89547620D02*
X152035714Y90547620D01*
X152416666Y90547620D01*
X152511904Y90500000D01*
X152559523Y90452381D01*
X152607142Y90357143D01*
X152607142Y90214286D01*
X152559523Y90119048D01*
X152511904Y90071429D01*
X152416666Y90023810D01*
X152035714Y90023810D01*
X153559523Y89547620D02*
X152988095Y89547620D01*
X153273809Y89547620D02*
X153273809Y90547620D01*
X153178571Y90404762D01*
X153083333Y90309524D01*
X152988095Y90261905D01*
X153940476Y90452381D02*
X153988095Y90500000D01*
X154083333Y90547620D01*
X154321428Y90547620D01*
X154416666Y90500000D01*
X154464285Y90452381D01*
X154511904Y90357143D01*
X154511904Y90261905D01*
X154464285Y90119048D01*
X153892857Y89547620D01*
X154511904Y89547620D01*
D13*
X152798571Y88773810D02*
X152512857Y88773810D01*
X152655714Y88773810D02*
X152655714Y89273810D01*
X152608095Y89202381D01*
X152560476Y89154762D01*
X152512857Y89130953D01*
X153108095Y89273810D02*
X153155714Y89273810D01*
X153203333Y89250000D01*
X153227142Y89226191D01*
X153250952Y89178572D01*
X153274761Y89083334D01*
X153274761Y88964286D01*
X153250952Y88869048D01*
X153227142Y88821429D01*
X153203333Y88797620D01*
X153155714Y88773810D01*
X153108095Y88773810D01*
X153060476Y88797620D01*
X153036666Y88821429D01*
X153012857Y88869048D01*
X152989047Y88964286D01*
X152989047Y89083334D01*
X153012857Y89178572D01*
X153036666Y89226191D01*
X153060476Y89250000D01*
X153108095Y89273810D01*
X153584285Y89273810D02*
X153631904Y89273810D01*
X153679523Y89250000D01*
X153703333Y89226191D01*
X153727142Y89178572D01*
X153750952Y89083334D01*
X153750952Y88964286D01*
X153727142Y88869048D01*
X153703333Y88821429D01*
X153679523Y88797620D01*
X153631904Y88773810D01*
X153584285Y88773810D01*
X153536666Y88797620D01*
X153512857Y88821429D01*
X153489047Y88869048D01*
X153465238Y88964286D01*
X153465238Y89083334D01*
X153489047Y89178572D01*
X153512857Y89226191D01*
X153536666Y89250000D01*
X153584285Y89273810D01*
X154060476Y89273810D02*
X154108095Y89273810D01*
X154155714Y89250000D01*
X154179523Y89226191D01*
X154203333Y89178572D01*
X154227142Y89083334D01*
X154227142Y88964286D01*
X154203333Y88869048D01*
X154179523Y88821429D01*
X154155714Y88797620D01*
X154108095Y88773810D01*
X154060476Y88773810D01*
X154012857Y88797620D01*
X153989047Y88821429D01*
X153965238Y88869048D01*
X153941428Y88964286D01*
X153941428Y89083334D01*
X153965238Y89178572D01*
X153989047Y89226191D01*
X154012857Y89250000D01*
X154060476Y89273810D01*
%TO.C,R13*%
D11*
X153107142Y66047620D02*
X152773809Y66523810D01*
X152535714Y66047620D02*
X152535714Y67047620D01*
X152916666Y67047620D01*
X153011904Y67000000D01*
X153059523Y66952381D01*
X153107142Y66857143D01*
X153107142Y66714286D01*
X153059523Y66619048D01*
X153011904Y66571429D01*
X152916666Y66523810D01*
X152535714Y66523810D01*
X154059523Y66047620D02*
X153488095Y66047620D01*
X153773809Y66047620D02*
X153773809Y67047620D01*
X153678571Y66904762D01*
X153583333Y66809524D01*
X153488095Y66761905D01*
X154392857Y67047620D02*
X155011904Y67047620D01*
X154678571Y66666667D01*
X154821428Y66666667D01*
X154916666Y66619048D01*
X154964285Y66571429D01*
X155011904Y66476191D01*
X155011904Y66238096D01*
X154964285Y66142858D01*
X154916666Y66095239D01*
X154821428Y66047620D01*
X154535714Y66047620D01*
X154440476Y66095239D01*
X154392857Y66142858D01*
D13*
X153052571Y65273810D02*
X152766857Y65273810D01*
X152909714Y65273810D02*
X152909714Y65773810D01*
X152862095Y65702381D01*
X152814476Y65654762D01*
X152766857Y65630953D01*
X153362095Y65773810D02*
X153409714Y65773810D01*
X153457333Y65750000D01*
X153481142Y65726191D01*
X153504952Y65678572D01*
X153528761Y65583334D01*
X153528761Y65464286D01*
X153504952Y65369048D01*
X153481142Y65321429D01*
X153457333Y65297620D01*
X153409714Y65273810D01*
X153362095Y65273810D01*
X153314476Y65297620D01*
X153290666Y65321429D01*
X153266857Y65369048D01*
X153243047Y65464286D01*
X153243047Y65583334D01*
X153266857Y65678572D01*
X153290666Y65726191D01*
X153314476Y65750000D01*
X153362095Y65773810D01*
X153838285Y65773810D02*
X153885904Y65773810D01*
X153933523Y65750000D01*
X153957333Y65726191D01*
X153981142Y65678572D01*
X154004952Y65583334D01*
X154004952Y65464286D01*
X153981142Y65369048D01*
X153957333Y65321429D01*
X153933523Y65297620D01*
X153885904Y65273810D01*
X153838285Y65273810D01*
X153790666Y65297620D01*
X153766857Y65321429D01*
X153743047Y65369048D01*
X153719238Y65464286D01*
X153719238Y65583334D01*
X153743047Y65678572D01*
X153766857Y65726191D01*
X153790666Y65750000D01*
X153838285Y65773810D01*
X154314476Y65773810D02*
X154362095Y65773810D01*
X154409714Y65750000D01*
X154433523Y65726191D01*
X154457333Y65678572D01*
X154481142Y65583334D01*
X154481142Y65464286D01*
X154457333Y65369048D01*
X154433523Y65321429D01*
X154409714Y65297620D01*
X154362095Y65273810D01*
X154314476Y65273810D01*
X154266857Y65297620D01*
X154243047Y65321429D01*
X154219238Y65369048D01*
X154195428Y65464286D01*
X154195428Y65583334D01*
X154219238Y65678572D01*
X154243047Y65726191D01*
X154266857Y65750000D01*
X154314476Y65773810D01*
%TO.C,R14*%
D11*
X153107142Y73797620D02*
X152773809Y74273810D01*
X152535714Y73797620D02*
X152535714Y74797620D01*
X152916666Y74797620D01*
X153011904Y74750000D01*
X153059523Y74702381D01*
X153107142Y74607143D01*
X153107142Y74464286D01*
X153059523Y74369048D01*
X153011904Y74321429D01*
X152916666Y74273810D01*
X152535714Y74273810D01*
X154059523Y73797620D02*
X153488095Y73797620D01*
X153773809Y73797620D02*
X153773809Y74797620D01*
X153678571Y74654762D01*
X153583333Y74559524D01*
X153488095Y74511905D01*
X154916666Y74464286D02*
X154916666Y73797620D01*
X154678571Y74845239D02*
X154440476Y74130953D01*
X155059523Y74130953D01*
D13*
X153052571Y73023810D02*
X152766857Y73023810D01*
X152909714Y73023810D02*
X152909714Y73523810D01*
X152862095Y73452381D01*
X152814476Y73404762D01*
X152766857Y73380953D01*
X153362095Y73523810D02*
X153409714Y73523810D01*
X153457333Y73500000D01*
X153481142Y73476191D01*
X153504952Y73428572D01*
X153528761Y73333334D01*
X153528761Y73214286D01*
X153504952Y73119048D01*
X153481142Y73071429D01*
X153457333Y73047620D01*
X153409714Y73023810D01*
X153362095Y73023810D01*
X153314476Y73047620D01*
X153290666Y73071429D01*
X153266857Y73119048D01*
X153243047Y73214286D01*
X153243047Y73333334D01*
X153266857Y73428572D01*
X153290666Y73476191D01*
X153314476Y73500000D01*
X153362095Y73523810D01*
X153838285Y73523810D02*
X153885904Y73523810D01*
X153933523Y73500000D01*
X153957333Y73476191D01*
X153981142Y73428572D01*
X154004952Y73333334D01*
X154004952Y73214286D01*
X153981142Y73119048D01*
X153957333Y73071429D01*
X153933523Y73047620D01*
X153885904Y73023810D01*
X153838285Y73023810D01*
X153790666Y73047620D01*
X153766857Y73071429D01*
X153743047Y73119048D01*
X153719238Y73214286D01*
X153719238Y73333334D01*
X153743047Y73428572D01*
X153766857Y73476191D01*
X153790666Y73500000D01*
X153838285Y73523810D01*
X154314476Y73523810D02*
X154362095Y73523810D01*
X154409714Y73500000D01*
X154433523Y73476191D01*
X154457333Y73428572D01*
X154481142Y73333334D01*
X154481142Y73214286D01*
X154457333Y73119048D01*
X154433523Y73071429D01*
X154409714Y73047620D01*
X154362095Y73023810D01*
X154314476Y73023810D01*
X154266857Y73047620D01*
X154243047Y73071429D01*
X154219238Y73119048D01*
X154195428Y73214286D01*
X154195428Y73333334D01*
X154219238Y73428572D01*
X154243047Y73476191D01*
X154266857Y73500000D01*
X154314476Y73523810D01*
%TO.C,R15*%
D11*
X153107142Y69797620D02*
X152773809Y70273810D01*
X152535714Y69797620D02*
X152535714Y70797620D01*
X152916666Y70797620D01*
X153011904Y70750000D01*
X153059523Y70702381D01*
X153107142Y70607143D01*
X153107142Y70464286D01*
X153059523Y70369048D01*
X153011904Y70321429D01*
X152916666Y70273810D01*
X152535714Y70273810D01*
X154059523Y69797620D02*
X153488095Y69797620D01*
X153773809Y69797620D02*
X153773809Y70797620D01*
X153678571Y70654762D01*
X153583333Y70559524D01*
X153488095Y70511905D01*
X154964285Y70797620D02*
X154488095Y70797620D01*
X154440476Y70321429D01*
X154488095Y70369048D01*
X154583333Y70416667D01*
X154821428Y70416667D01*
X154916666Y70369048D01*
X154964285Y70321429D01*
X155011904Y70226191D01*
X155011904Y69988096D01*
X154964285Y69892858D01*
X154916666Y69845239D01*
X154821428Y69797620D01*
X154583333Y69797620D01*
X154488095Y69845239D01*
X154440476Y69892858D01*
D13*
X153052571Y69023810D02*
X152766857Y69023810D01*
X152909714Y69023810D02*
X152909714Y69523810D01*
X152862095Y69452381D01*
X152814476Y69404762D01*
X152766857Y69380953D01*
X153362095Y69523810D02*
X153409714Y69523810D01*
X153457333Y69500000D01*
X153481142Y69476191D01*
X153504952Y69428572D01*
X153528761Y69333334D01*
X153528761Y69214286D01*
X153504952Y69119048D01*
X153481142Y69071429D01*
X153457333Y69047620D01*
X153409714Y69023810D01*
X153362095Y69023810D01*
X153314476Y69047620D01*
X153290666Y69071429D01*
X153266857Y69119048D01*
X153243047Y69214286D01*
X153243047Y69333334D01*
X153266857Y69428572D01*
X153290666Y69476191D01*
X153314476Y69500000D01*
X153362095Y69523810D01*
X153838285Y69523810D02*
X153885904Y69523810D01*
X153933523Y69500000D01*
X153957333Y69476191D01*
X153981142Y69428572D01*
X154004952Y69333334D01*
X154004952Y69214286D01*
X153981142Y69119048D01*
X153957333Y69071429D01*
X153933523Y69047620D01*
X153885904Y69023810D01*
X153838285Y69023810D01*
X153790666Y69047620D01*
X153766857Y69071429D01*
X153743047Y69119048D01*
X153719238Y69214286D01*
X153719238Y69333334D01*
X153743047Y69428572D01*
X153766857Y69476191D01*
X153790666Y69500000D01*
X153838285Y69523810D01*
X154314476Y69523810D02*
X154362095Y69523810D01*
X154409714Y69500000D01*
X154433523Y69476191D01*
X154457333Y69428572D01*
X154481142Y69333334D01*
X154481142Y69214286D01*
X154457333Y69119048D01*
X154433523Y69071429D01*
X154409714Y69047620D01*
X154362095Y69023810D01*
X154314476Y69023810D01*
X154266857Y69047620D01*
X154243047Y69071429D01*
X154219238Y69119048D01*
X154195428Y69214286D01*
X154195428Y69333334D01*
X154219238Y69428572D01*
X154243047Y69476191D01*
X154266857Y69500000D01*
X154314476Y69523810D01*
%TO.C,R16*%
D11*
X153357142Y50047620D02*
X153023809Y50523810D01*
X152785714Y50047620D02*
X152785714Y51047620D01*
X153166666Y51047620D01*
X153261904Y51000000D01*
X153309523Y50952381D01*
X153357142Y50857143D01*
X153357142Y50714286D01*
X153309523Y50619048D01*
X153261904Y50571429D01*
X153166666Y50523810D01*
X152785714Y50523810D01*
X154309523Y50047620D02*
X153738095Y50047620D01*
X154023809Y50047620D02*
X154023809Y51047620D01*
X153928571Y50904762D01*
X153833333Y50809524D01*
X153738095Y50761905D01*
X155166666Y51047620D02*
X154976190Y51047620D01*
X154880952Y51000000D01*
X154833333Y50952381D01*
X154738095Y50809524D01*
X154690476Y50619048D01*
X154690476Y50238096D01*
X154738095Y50142858D01*
X154785714Y50095239D01*
X154880952Y50047620D01*
X155071428Y50047620D01*
X155166666Y50095239D01*
X155214285Y50142858D01*
X155261904Y50238096D01*
X155261904Y50476191D01*
X155214285Y50571429D01*
X155166666Y50619048D01*
X155071428Y50666667D01*
X154880952Y50666667D01*
X154785714Y50619048D01*
X154738095Y50571429D01*
X154690476Y50476191D01*
D13*
X153428571Y49273810D02*
X153142857Y49273810D01*
X153285714Y49273810D02*
X153285714Y49773810D01*
X153238095Y49702381D01*
X153190476Y49654762D01*
X153142857Y49630953D01*
X153738095Y49773810D02*
X153785714Y49773810D01*
X153833333Y49750000D01*
X153857142Y49726191D01*
X153880952Y49678572D01*
X153904761Y49583334D01*
X153904761Y49464286D01*
X153880952Y49369048D01*
X153857142Y49321429D01*
X153833333Y49297620D01*
X153785714Y49273810D01*
X153738095Y49273810D01*
X153690476Y49297620D01*
X153666666Y49321429D01*
X153642857Y49369048D01*
X153619047Y49464286D01*
X153619047Y49583334D01*
X153642857Y49678572D01*
X153666666Y49726191D01*
X153690476Y49750000D01*
X153738095Y49773810D01*
X154214285Y49773810D02*
X154261904Y49773810D01*
X154309523Y49750000D01*
X154333333Y49726191D01*
X154357142Y49678572D01*
X154380952Y49583334D01*
X154380952Y49464286D01*
X154357142Y49369048D01*
X154333333Y49321429D01*
X154309523Y49297620D01*
X154261904Y49273810D01*
X154214285Y49273810D01*
X154166666Y49297620D01*
X154142857Y49321429D01*
X154119047Y49369048D01*
X154095238Y49464286D01*
X154095238Y49583334D01*
X154119047Y49678572D01*
X154142857Y49726191D01*
X154166666Y49750000D01*
X154214285Y49773810D01*
X154690476Y49773810D02*
X154738095Y49773810D01*
X154785714Y49750000D01*
X154809523Y49726191D01*
X154833333Y49678572D01*
X154857142Y49583334D01*
X154857142Y49464286D01*
X154833333Y49369048D01*
X154809523Y49321429D01*
X154785714Y49297620D01*
X154738095Y49273810D01*
X154690476Y49273810D01*
X154642857Y49297620D01*
X154619047Y49321429D01*
X154595238Y49369048D01*
X154571428Y49464286D01*
X154571428Y49583334D01*
X154595238Y49678572D01*
X154619047Y49726191D01*
X154642857Y49750000D01*
X154690476Y49773810D01*
%TO.C,R17*%
D11*
X153357142Y57547620D02*
X153023809Y58023810D01*
X152785714Y57547620D02*
X152785714Y58547620D01*
X153166666Y58547620D01*
X153261904Y58500000D01*
X153309523Y58452381D01*
X153357142Y58357143D01*
X153357142Y58214286D01*
X153309523Y58119048D01*
X153261904Y58071429D01*
X153166666Y58023810D01*
X152785714Y58023810D01*
X154309523Y57547620D02*
X153738095Y57547620D01*
X154023809Y57547620D02*
X154023809Y58547620D01*
X153928571Y58404762D01*
X153833333Y58309524D01*
X153738095Y58261905D01*
X154642857Y58547620D02*
X155309523Y58547620D01*
X154880952Y57547620D01*
D13*
X153306571Y56773810D02*
X153020857Y56773810D01*
X153163714Y56773810D02*
X153163714Y57273810D01*
X153116095Y57202381D01*
X153068476Y57154762D01*
X153020857Y57130953D01*
X153616095Y57273810D02*
X153663714Y57273810D01*
X153711333Y57250000D01*
X153735142Y57226191D01*
X153758952Y57178572D01*
X153782761Y57083334D01*
X153782761Y56964286D01*
X153758952Y56869048D01*
X153735142Y56821429D01*
X153711333Y56797620D01*
X153663714Y56773810D01*
X153616095Y56773810D01*
X153568476Y56797620D01*
X153544666Y56821429D01*
X153520857Y56869048D01*
X153497047Y56964286D01*
X153497047Y57083334D01*
X153520857Y57178572D01*
X153544666Y57226191D01*
X153568476Y57250000D01*
X153616095Y57273810D01*
X154092285Y57273810D02*
X154139904Y57273810D01*
X154187523Y57250000D01*
X154211333Y57226191D01*
X154235142Y57178572D01*
X154258952Y57083334D01*
X154258952Y56964286D01*
X154235142Y56869048D01*
X154211333Y56821429D01*
X154187523Y56797620D01*
X154139904Y56773810D01*
X154092285Y56773810D01*
X154044666Y56797620D01*
X154020857Y56821429D01*
X153997047Y56869048D01*
X153973238Y56964286D01*
X153973238Y57083334D01*
X153997047Y57178572D01*
X154020857Y57226191D01*
X154044666Y57250000D01*
X154092285Y57273810D01*
X154568476Y57273810D02*
X154616095Y57273810D01*
X154663714Y57250000D01*
X154687523Y57226191D01*
X154711333Y57178572D01*
X154735142Y57083334D01*
X154735142Y56964286D01*
X154711333Y56869048D01*
X154687523Y56821429D01*
X154663714Y56797620D01*
X154616095Y56773810D01*
X154568476Y56773810D01*
X154520857Y56797620D01*
X154497047Y56821429D01*
X154473238Y56869048D01*
X154449428Y56964286D01*
X154449428Y57083334D01*
X154473238Y57178572D01*
X154497047Y57226191D01*
X154520857Y57250000D01*
X154568476Y57273810D01*
%TO.C,R18*%
D11*
X153357142Y53797620D02*
X153023809Y54273810D01*
X152785714Y53797620D02*
X152785714Y54797620D01*
X153166666Y54797620D01*
X153261904Y54750000D01*
X153309523Y54702381D01*
X153357142Y54607143D01*
X153357142Y54464286D01*
X153309523Y54369048D01*
X153261904Y54321429D01*
X153166666Y54273810D01*
X152785714Y54273810D01*
X154309523Y53797620D02*
X153738095Y53797620D01*
X154023809Y53797620D02*
X154023809Y54797620D01*
X153928571Y54654762D01*
X153833333Y54559524D01*
X153738095Y54511905D01*
X154880952Y54369048D02*
X154785714Y54416667D01*
X154738095Y54464286D01*
X154690476Y54559524D01*
X154690476Y54607143D01*
X154738095Y54702381D01*
X154785714Y54750000D01*
X154880952Y54797620D01*
X155071428Y54797620D01*
X155166666Y54750000D01*
X155214285Y54702381D01*
X155261904Y54607143D01*
X155261904Y54559524D01*
X155214285Y54464286D01*
X155166666Y54416667D01*
X155071428Y54369048D01*
X154880952Y54369048D01*
X154785714Y54321429D01*
X154738095Y54273810D01*
X154690476Y54178572D01*
X154690476Y53988096D01*
X154738095Y53892858D01*
X154785714Y53845239D01*
X154880952Y53797620D01*
X155071428Y53797620D01*
X155166666Y53845239D01*
X155214285Y53892858D01*
X155261904Y53988096D01*
X155261904Y54178572D01*
X155214285Y54273810D01*
X155166666Y54321429D01*
X155071428Y54369048D01*
D13*
X153306571Y53023810D02*
X153020857Y53023810D01*
X153163714Y53023810D02*
X153163714Y53523810D01*
X153116095Y53452381D01*
X153068476Y53404762D01*
X153020857Y53380953D01*
X153616095Y53523810D02*
X153663714Y53523810D01*
X153711333Y53500000D01*
X153735142Y53476191D01*
X153758952Y53428572D01*
X153782761Y53333334D01*
X153782761Y53214286D01*
X153758952Y53119048D01*
X153735142Y53071429D01*
X153711333Y53047620D01*
X153663714Y53023810D01*
X153616095Y53023810D01*
X153568476Y53047620D01*
X153544666Y53071429D01*
X153520857Y53119048D01*
X153497047Y53214286D01*
X153497047Y53333334D01*
X153520857Y53428572D01*
X153544666Y53476191D01*
X153568476Y53500000D01*
X153616095Y53523810D01*
X154092285Y53523810D02*
X154139904Y53523810D01*
X154187523Y53500000D01*
X154211333Y53476191D01*
X154235142Y53428572D01*
X154258952Y53333334D01*
X154258952Y53214286D01*
X154235142Y53119048D01*
X154211333Y53071429D01*
X154187523Y53047620D01*
X154139904Y53023810D01*
X154092285Y53023810D01*
X154044666Y53047620D01*
X154020857Y53071429D01*
X153997047Y53119048D01*
X153973238Y53214286D01*
X153973238Y53333334D01*
X153997047Y53428572D01*
X154020857Y53476191D01*
X154044666Y53500000D01*
X154092285Y53523810D01*
X154568476Y53523810D02*
X154616095Y53523810D01*
X154663714Y53500000D01*
X154687523Y53476191D01*
X154711333Y53428572D01*
X154735142Y53333334D01*
X154735142Y53214286D01*
X154711333Y53119048D01*
X154687523Y53071429D01*
X154663714Y53047620D01*
X154616095Y53023810D01*
X154568476Y53023810D01*
X154520857Y53047620D01*
X154497047Y53071429D01*
X154473238Y53119048D01*
X154449428Y53214286D01*
X154449428Y53333334D01*
X154473238Y53428572D01*
X154497047Y53476191D01*
X154520857Y53500000D01*
X154568476Y53523810D01*
%TO.C,R19*%
D11*
X153357142Y46047620D02*
X153023809Y46523810D01*
X152785714Y46047620D02*
X152785714Y47047620D01*
X153166666Y47047620D01*
X153261904Y47000000D01*
X153309523Y46952381D01*
X153357142Y46857143D01*
X153357142Y46714286D01*
X153309523Y46619048D01*
X153261904Y46571429D01*
X153166666Y46523810D01*
X152785714Y46523810D01*
X154309523Y46047620D02*
X153738095Y46047620D01*
X154023809Y46047620D02*
X154023809Y47047620D01*
X153928571Y46904762D01*
X153833333Y46809524D01*
X153738095Y46761905D01*
X154785714Y46047620D02*
X154976190Y46047620D01*
X155071428Y46095239D01*
X155119047Y46142858D01*
X155214285Y46285715D01*
X155261904Y46476191D01*
X155261904Y46857143D01*
X155214285Y46952381D01*
X155166666Y47000000D01*
X155071428Y47047620D01*
X154880952Y47047620D01*
X154785714Y47000000D01*
X154738095Y46952381D01*
X154690476Y46857143D01*
X154690476Y46619048D01*
X154738095Y46523810D01*
X154785714Y46476191D01*
X154880952Y46428572D01*
X155071428Y46428572D01*
X155166666Y46476191D01*
X155214285Y46523810D01*
X155261904Y46619048D01*
D13*
X153306571Y45273810D02*
X153020857Y45273810D01*
X153163714Y45273810D02*
X153163714Y45773810D01*
X153116095Y45702381D01*
X153068476Y45654762D01*
X153020857Y45630953D01*
X153616095Y45773810D02*
X153663714Y45773810D01*
X153711333Y45750000D01*
X153735142Y45726191D01*
X153758952Y45678572D01*
X153782761Y45583334D01*
X153782761Y45464286D01*
X153758952Y45369048D01*
X153735142Y45321429D01*
X153711333Y45297620D01*
X153663714Y45273810D01*
X153616095Y45273810D01*
X153568476Y45297620D01*
X153544666Y45321429D01*
X153520857Y45369048D01*
X153497047Y45464286D01*
X153497047Y45583334D01*
X153520857Y45678572D01*
X153544666Y45726191D01*
X153568476Y45750000D01*
X153616095Y45773810D01*
X154092285Y45773810D02*
X154139904Y45773810D01*
X154187523Y45750000D01*
X154211333Y45726191D01*
X154235142Y45678572D01*
X154258952Y45583334D01*
X154258952Y45464286D01*
X154235142Y45369048D01*
X154211333Y45321429D01*
X154187523Y45297620D01*
X154139904Y45273810D01*
X154092285Y45273810D01*
X154044666Y45297620D01*
X154020857Y45321429D01*
X153997047Y45369048D01*
X153973238Y45464286D01*
X153973238Y45583334D01*
X153997047Y45678572D01*
X154020857Y45726191D01*
X154044666Y45750000D01*
X154092285Y45773810D01*
X154568476Y45773810D02*
X154616095Y45773810D01*
X154663714Y45750000D01*
X154687523Y45726191D01*
X154711333Y45678572D01*
X154735142Y45583334D01*
X154735142Y45464286D01*
X154711333Y45369048D01*
X154687523Y45321429D01*
X154663714Y45297620D01*
X154616095Y45273810D01*
X154568476Y45273810D01*
X154520857Y45297620D01*
X154497047Y45321429D01*
X154473238Y45369048D01*
X154449428Y45464286D01*
X154449428Y45583334D01*
X154473238Y45678572D01*
X154497047Y45726191D01*
X154520857Y45750000D01*
X154568476Y45773810D01*
%TO.C,R22*%
D11*
X163952380Y144607143D02*
X163476190Y144273810D01*
X163952380Y144035715D02*
X162952380Y144035715D01*
X162952380Y144416667D01*
X163000000Y144511905D01*
X163047619Y144559524D01*
X163142857Y144607143D01*
X163285714Y144607143D01*
X163380952Y144559524D01*
X163428571Y144511905D01*
X163476190Y144416667D01*
X163476190Y144035715D01*
X163047619Y144988096D02*
X163000000Y145035715D01*
X162952380Y145130953D01*
X162952380Y145369048D01*
X163000000Y145464286D01*
X163047619Y145511905D01*
X163142857Y145559524D01*
X163238095Y145559524D01*
X163380952Y145511905D01*
X163952380Y144940477D01*
X163952380Y145559524D01*
X163047619Y145940477D02*
X163000000Y145988096D01*
X162952380Y146083334D01*
X162952380Y146321429D01*
X163000000Y146416667D01*
X163047619Y146464286D01*
X163142857Y146511905D01*
X163238095Y146511905D01*
X163380952Y146464286D01*
X163952380Y145892858D01*
X163952380Y146511905D01*
D13*
X164226190Y144369048D02*
X164226190Y144678572D01*
X164416666Y144511905D01*
X164416666Y144583334D01*
X164440476Y144630953D01*
X164464285Y144654762D01*
X164511904Y144678572D01*
X164630952Y144678572D01*
X164678571Y144654762D01*
X164702380Y144630953D01*
X164726190Y144583334D01*
X164726190Y144440477D01*
X164702380Y144392858D01*
X164678571Y144369048D01*
X164226190Y144845239D02*
X164226190Y145154762D01*
X164416666Y144988096D01*
X164416666Y145059524D01*
X164440476Y145107143D01*
X164464285Y145130953D01*
X164511904Y145154762D01*
X164630952Y145154762D01*
X164678571Y145130953D01*
X164702380Y145107143D01*
X164726190Y145059524D01*
X164726190Y144916667D01*
X164702380Y144869048D01*
X164678571Y144845239D01*
X164226190Y145464286D02*
X164226190Y145511905D01*
X164250000Y145559524D01*
X164273809Y145583334D01*
X164321428Y145607143D01*
X164416666Y145630953D01*
X164535714Y145630953D01*
X164630952Y145607143D01*
X164678571Y145583334D01*
X164702380Y145559524D01*
X164726190Y145511905D01*
X164726190Y145464286D01*
X164702380Y145416667D01*
X164678571Y145392858D01*
X164630952Y145369048D01*
X164535714Y145345239D01*
X164416666Y145345239D01*
X164321428Y145369048D01*
X164273809Y145392858D01*
X164250000Y145416667D01*
X164226190Y145464286D01*
X164226190Y145940477D02*
X164226190Y145988096D01*
X164250000Y146035715D01*
X164273809Y146059524D01*
X164321428Y146083334D01*
X164416666Y146107143D01*
X164535714Y146107143D01*
X164630952Y146083334D01*
X164678571Y146059524D01*
X164702380Y146035715D01*
X164726190Y145988096D01*
X164726190Y145940477D01*
X164702380Y145892858D01*
X164678571Y145869048D01*
X164630952Y145845239D01*
X164535714Y145821429D01*
X164416666Y145821429D01*
X164321428Y145845239D01*
X164273809Y145869048D01*
X164250000Y145892858D01*
X164226190Y145940477D01*
%TO.C,R23*%
D11*
X206357142Y149297620D02*
X206023809Y149773810D01*
X205785714Y149297620D02*
X205785714Y150297620D01*
X206166666Y150297620D01*
X206261904Y150250000D01*
X206309523Y150202381D01*
X206357142Y150107143D01*
X206357142Y149964286D01*
X206309523Y149869048D01*
X206261904Y149821429D01*
X206166666Y149773810D01*
X205785714Y149773810D01*
X206738095Y150202381D02*
X206785714Y150250000D01*
X206880952Y150297620D01*
X207119047Y150297620D01*
X207214285Y150250000D01*
X207261904Y150202381D01*
X207309523Y150107143D01*
X207309523Y150011905D01*
X207261904Y149869048D01*
X206690476Y149297620D01*
X207309523Y149297620D01*
X207642857Y150297620D02*
X208261904Y150297620D01*
X207928571Y149916667D01*
X208071428Y149916667D01*
X208166666Y149869048D01*
X208214285Y149821429D01*
X208261904Y149726191D01*
X208261904Y149488096D01*
X208214285Y149392858D01*
X208166666Y149345239D01*
X208071428Y149297620D01*
X207785714Y149297620D01*
X207690476Y149345239D01*
X207642857Y149392858D01*
D13*
X206380952Y148976191D02*
X206404761Y149000000D01*
X206452380Y149023810D01*
X206571428Y149023810D01*
X206619047Y149000000D01*
X206642857Y148976191D01*
X206666666Y148928572D01*
X206666666Y148880953D01*
X206642857Y148809524D01*
X206357142Y148523810D01*
X206666666Y148523810D01*
X206857142Y148976191D02*
X206880952Y149000000D01*
X206928571Y149023810D01*
X207047619Y149023810D01*
X207095238Y149000000D01*
X207119047Y148976191D01*
X207142857Y148928572D01*
X207142857Y148880953D01*
X207119047Y148809524D01*
X206833333Y148523810D01*
X207142857Y148523810D01*
X207452380Y149023810D02*
X207500000Y149023810D01*
X207547619Y149000000D01*
X207571428Y148976191D01*
X207595238Y148928572D01*
X207619047Y148833334D01*
X207619047Y148714286D01*
X207595238Y148619048D01*
X207571428Y148571429D01*
X207547619Y148547620D01*
X207500000Y148523810D01*
X207452380Y148523810D01*
X207404761Y148547620D01*
X207380952Y148571429D01*
X207357142Y148619048D01*
X207333333Y148714286D01*
X207333333Y148833334D01*
X207357142Y148928572D01*
X207380952Y148976191D01*
X207404761Y149000000D01*
X207452380Y149023810D01*
%TO.C,Rb1*%
D11*
X183880952Y108797620D02*
X183547619Y109273810D01*
X183309523Y108797620D02*
X183309523Y109797620D01*
X183690476Y109797620D01*
X183785714Y109750000D01*
X183833333Y109702381D01*
X183880952Y109607143D01*
X183880952Y109464286D01*
X183833333Y109369048D01*
X183785714Y109321429D01*
X183690476Y109273810D01*
X183309523Y109273810D01*
X184309523Y108797620D02*
X184309523Y109797620D01*
X184309523Y109416667D02*
X184404761Y109464286D01*
X184595238Y109464286D01*
X184690476Y109416667D01*
X184738095Y109369048D01*
X184785714Y109273810D01*
X184785714Y108988096D01*
X184738095Y108892858D01*
X184690476Y108845239D01*
X184595238Y108797620D01*
X184404761Y108797620D01*
X184309523Y108845239D01*
X185738095Y108797620D02*
X185166666Y108797620D01*
X185452380Y108797620D02*
X185452380Y109797620D01*
X185357142Y109654762D01*
X185261904Y109559524D01*
X185166666Y109511905D01*
D13*
X183630952Y108476191D02*
X183654761Y108500000D01*
X183702380Y108523810D01*
X183821428Y108523810D01*
X183869047Y108500000D01*
X183892857Y108476191D01*
X183916666Y108428572D01*
X183916666Y108380953D01*
X183892857Y108309524D01*
X183607142Y108023810D01*
X183916666Y108023810D01*
X184107142Y108476191D02*
X184130952Y108500000D01*
X184178571Y108523810D01*
X184297619Y108523810D01*
X184345238Y108500000D01*
X184369047Y108476191D01*
X184392857Y108428572D01*
X184392857Y108380953D01*
X184369047Y108309524D01*
X184083333Y108023810D01*
X184392857Y108023810D01*
X184702380Y108523810D02*
X184750000Y108523810D01*
X184797619Y108500000D01*
X184821428Y108476191D01*
X184845238Y108428572D01*
X184869047Y108333334D01*
X184869047Y108214286D01*
X184845238Y108119048D01*
X184821428Y108071429D01*
X184797619Y108047620D01*
X184750000Y108023810D01*
X184702380Y108023810D01*
X184654761Y108047620D01*
X184630952Y108071429D01*
X184607142Y108119048D01*
X184583333Y108214286D01*
X184583333Y108333334D01*
X184607142Y108428572D01*
X184630952Y108476191D01*
X184654761Y108500000D01*
X184702380Y108523810D01*
%TO.C,Rb2*%
D11*
X204630952Y108797620D02*
X204297619Y109273810D01*
X204059523Y108797620D02*
X204059523Y109797620D01*
X204440476Y109797620D01*
X204535714Y109750000D01*
X204583333Y109702381D01*
X204630952Y109607143D01*
X204630952Y109464286D01*
X204583333Y109369048D01*
X204535714Y109321429D01*
X204440476Y109273810D01*
X204059523Y109273810D01*
X205059523Y108797620D02*
X205059523Y109797620D01*
X205059523Y109416667D02*
X205154761Y109464286D01*
X205345238Y109464286D01*
X205440476Y109416667D01*
X205488095Y109369048D01*
X205535714Y109273810D01*
X205535714Y108988096D01*
X205488095Y108892858D01*
X205440476Y108845239D01*
X205345238Y108797620D01*
X205154761Y108797620D01*
X205059523Y108845239D01*
X205916666Y109702381D02*
X205964285Y109750000D01*
X206059523Y109797620D01*
X206297619Y109797620D01*
X206392857Y109750000D01*
X206440476Y109702381D01*
X206488095Y109607143D01*
X206488095Y109511905D01*
X206440476Y109369048D01*
X205869047Y108797620D01*
X206488095Y108797620D01*
D13*
X204380952Y108476191D02*
X204404761Y108500000D01*
X204452380Y108523810D01*
X204571428Y108523810D01*
X204619047Y108500000D01*
X204642857Y108476191D01*
X204666666Y108428572D01*
X204666666Y108380953D01*
X204642857Y108309524D01*
X204357142Y108023810D01*
X204666666Y108023810D01*
X204857142Y108476191D02*
X204880952Y108500000D01*
X204928571Y108523810D01*
X205047619Y108523810D01*
X205095238Y108500000D01*
X205119047Y108476191D01*
X205142857Y108428572D01*
X205142857Y108380953D01*
X205119047Y108309524D01*
X204833333Y108023810D01*
X205142857Y108023810D01*
X205452380Y108523810D02*
X205500000Y108523810D01*
X205547619Y108500000D01*
X205571428Y108476191D01*
X205595238Y108428572D01*
X205619047Y108333334D01*
X205619047Y108214286D01*
X205595238Y108119048D01*
X205571428Y108071429D01*
X205547619Y108047620D01*
X205500000Y108023810D01*
X205452380Y108023810D01*
X205404761Y108047620D01*
X205380952Y108071429D01*
X205357142Y108119048D01*
X205333333Y108214286D01*
X205333333Y108333334D01*
X205357142Y108428572D01*
X205380952Y108476191D01*
X205404761Y108500000D01*
X205452380Y108523810D01*
%TO.C,RCal1*%
D11*
X174702380Y35869048D02*
X174226190Y35535715D01*
X174702380Y35297620D02*
X173702380Y35297620D01*
X173702380Y35678572D01*
X173750000Y35773810D01*
X173797619Y35821429D01*
X173892857Y35869048D01*
X174035714Y35869048D01*
X174130952Y35821429D01*
X174178571Y35773810D01*
X174226190Y35678572D01*
X174226190Y35297620D01*
X174607142Y36869048D02*
X174654761Y36821429D01*
X174702380Y36678572D01*
X174702380Y36583334D01*
X174654761Y36440477D01*
X174559523Y36345239D01*
X174464285Y36297620D01*
X174273809Y36250000D01*
X174130952Y36250000D01*
X173940476Y36297620D01*
X173845238Y36345239D01*
X173750000Y36440477D01*
X173702380Y36583334D01*
X173702380Y36678572D01*
X173750000Y36821429D01*
X173797619Y36869048D01*
X174702380Y37726191D02*
X174178571Y37726191D01*
X174083333Y37678572D01*
X174035714Y37583334D01*
X174035714Y37392858D01*
X174083333Y37297620D01*
X174654761Y37726191D02*
X174702380Y37630953D01*
X174702380Y37392858D01*
X174654761Y37297620D01*
X174559523Y37250000D01*
X174464285Y37250000D01*
X174369047Y37297620D01*
X174321428Y37392858D01*
X174321428Y37630953D01*
X174273809Y37726191D01*
X174702380Y38345239D02*
X174654761Y38250000D01*
X174559523Y38202381D01*
X173702380Y38202381D01*
X174702380Y39250000D02*
X174702380Y38678572D01*
X174702380Y38964286D02*
X173702380Y38964286D01*
X173845238Y38869048D01*
X173940476Y38773810D01*
X173988095Y38678572D01*
D13*
X175023809Y36630953D02*
X175000000Y36654762D01*
X174976190Y36702381D01*
X174976190Y36821429D01*
X175000000Y36869048D01*
X175023809Y36892858D01*
X175071428Y36916667D01*
X175119047Y36916667D01*
X175190476Y36892858D01*
X175476190Y36607143D01*
X175476190Y36916667D01*
X175023809Y37107143D02*
X175000000Y37130953D01*
X174976190Y37178572D01*
X174976190Y37297620D01*
X175000000Y37345239D01*
X175023809Y37369048D01*
X175071428Y37392858D01*
X175119047Y37392858D01*
X175190476Y37369048D01*
X175476190Y37083334D01*
X175476190Y37392858D01*
X174976190Y37702381D02*
X174976190Y37750000D01*
X175000000Y37797620D01*
X175023809Y37821429D01*
X175071428Y37845239D01*
X175166666Y37869048D01*
X175285714Y37869048D01*
X175380952Y37845239D01*
X175428571Y37821429D01*
X175452380Y37797620D01*
X175476190Y37750000D01*
X175476190Y37702381D01*
X175452380Y37654762D01*
X175428571Y37630953D01*
X175380952Y37607143D01*
X175285714Y37583334D01*
X175166666Y37583334D01*
X175071428Y37607143D01*
X175023809Y37630953D01*
X175000000Y37654762D01*
X174976190Y37702381D01*
%TO.C,SW1*%
D11*
X187666666Y119345239D02*
X187809523Y119297620D01*
X188047619Y119297620D01*
X188142857Y119345239D01*
X188190476Y119392858D01*
X188238095Y119488096D01*
X188238095Y119583334D01*
X188190476Y119678572D01*
X188142857Y119726191D01*
X188047619Y119773810D01*
X187857142Y119821429D01*
X187761904Y119869048D01*
X187714285Y119916667D01*
X187666666Y120011905D01*
X187666666Y120107143D01*
X187714285Y120202381D01*
X187761904Y120250000D01*
X187857142Y120297620D01*
X188095238Y120297620D01*
X188238095Y120250000D01*
X188571428Y120297620D02*
X188809523Y119297620D01*
X189000000Y120011905D01*
X189190476Y119297620D01*
X189428571Y120297620D01*
X190333333Y119297620D02*
X189761904Y119297620D01*
X190047619Y119297620D02*
X190047619Y120297620D01*
X189952380Y120154762D01*
X189857142Y120059524D01*
X189761904Y120011905D01*
%TO.C,SW2*%
X200752666Y119345239D02*
X200895523Y119297620D01*
X201133619Y119297620D01*
X201228857Y119345239D01*
X201276476Y119392858D01*
X201324095Y119488096D01*
X201324095Y119583334D01*
X201276476Y119678572D01*
X201228857Y119726191D01*
X201133619Y119773810D01*
X200943142Y119821429D01*
X200847904Y119869048D01*
X200800285Y119916667D01*
X200752666Y120011905D01*
X200752666Y120107143D01*
X200800285Y120202381D01*
X200847904Y120250000D01*
X200943142Y120297620D01*
X201181238Y120297620D01*
X201324095Y120250000D01*
X201657428Y120297620D02*
X201895523Y119297620D01*
X202086000Y120011905D01*
X202276476Y119297620D01*
X202514571Y120297620D01*
X202847904Y120202381D02*
X202895523Y120250000D01*
X202990761Y120297620D01*
X203228857Y120297620D01*
X203324095Y120250000D01*
X203371714Y120202381D01*
X203419333Y120107143D01*
X203419333Y120011905D01*
X203371714Y119869048D01*
X202800285Y119297620D01*
X203419333Y119297620D01*
%TO.C,Voyant*%
X176642857Y69217620D02*
X176976190Y68217620D01*
X177309523Y69217620D01*
X177785714Y68217620D02*
X177690476Y68265239D01*
X177642857Y68312858D01*
X177595238Y68408096D01*
X177595238Y68693810D01*
X177642857Y68789048D01*
X177690476Y68836667D01*
X177785714Y68884286D01*
X177928571Y68884286D01*
X178023809Y68836667D01*
X178071428Y68789048D01*
X178119047Y68693810D01*
X178119047Y68408096D01*
X178071428Y68312858D01*
X178023809Y68265239D01*
X177928571Y68217620D01*
X177785714Y68217620D01*
X178452380Y68884286D02*
X178690476Y68217620D01*
X178928571Y68884286D02*
X178690476Y68217620D01*
X178595238Y67979524D01*
X178547619Y67931905D01*
X178452380Y67884286D01*
X179738095Y68217620D02*
X179738095Y68741429D01*
X179690476Y68836667D01*
X179595238Y68884286D01*
X179404761Y68884286D01*
X179309523Y68836667D01*
X179738095Y68265239D02*
X179642857Y68217620D01*
X179404761Y68217620D01*
X179309523Y68265239D01*
X179261904Y68360477D01*
X179261904Y68455715D01*
X179309523Y68550953D01*
X179404761Y68598572D01*
X179642857Y68598572D01*
X179738095Y68646191D01*
X180214285Y68884286D02*
X180214285Y68217620D01*
X180214285Y68789048D02*
X180261904Y68836667D01*
X180357142Y68884286D01*
X180500000Y68884286D01*
X180595238Y68836667D01*
X180642857Y68741429D01*
X180642857Y68217620D01*
X180976190Y68884286D02*
X181357142Y68884286D01*
X181119047Y69217620D02*
X181119047Y68360477D01*
X181166666Y68265239D01*
X181261904Y68217620D01*
X181357142Y68217620D01*
%TD*%
M02*
